# GE Spline Export bridge02
v 1905.6458740234375	 31.891050338745117	 -1517.0733642578125
v 1905.6854248046875	 31.891050338745117	 -1522.0733642578125
v 1905.7303466796875	 31.154661178588867	 -1527.0726318359375
v 1905.76953125	 29.947036743164062	 -1532.072509765625
v 1905.7984619140625	 28.35439109802246	 -1537.0721435546875
v 1905.8233642578125	 28.389535903930664	 -1542.0718994140625
v 1905.8455810546875	 29.037609100341797	 -1547.07177734375
v 1905.8616943359375	 31.891050338745117	 -1552.0716552734375
l 1 2
l 2 3
l 3 4
l 4 5
l 5 6
l 6 7
l 7 8
