# GE Spline Export bridge01
v 634.3779907226562	 31.78841209411621	 454.6148681640625
v 631.7522583007812	 31.71063804626465	 458.8634033203125
v 629.1114501953125	 16.30350112915039	 463.10394287109375
v 626.4658813476562	 16.30350112915039	 467.3482360839844
v 623.8214111328125	 16.30350112915039	 471.58905029296875
v 621.1724243164062	 16.30350112915039	 475.8358459472656
v 618.5264892578125	 16.307392120361328	 480.0773010253906
v 615.880859375	 16.30350112915039	 484.3177490234375
v 613.2333984375	 16.30350112915039	 488.56085205078125
v 610.58447265625	 16.30350112915039	 492.8059997558594
v 607.9376220703125	 16.30350112915039	 497.0476379394531
v 605.2925415039062	 16.30350112915039	 501.2863464355469
v 602.64404296875	 16.30350112915039	 505.5302734375
v 599.9962158203125	 16.30350112915039	 509.7731628417969
v 597.3499145507812	 16.30350112915039	 514.013427734375
v 594.7006225585938	 16.30350112915039	 518.2584228515625
v 592.0548095703125	 16.30350112915039	 522.497802734375
v 589.4059448242188	 16.30350112915039	 526.7420043945312
v 586.7595825195312	 16.30350112915039	 530.9822998046875
v 584.1114501953125	 16.30350112915039	 535.2252197265625
v 581.4641723632812	 16.30350112915039	 539.466796875
v 578.816650390625	 29.463809967041016	 543.7088012695312
v 576.1688842773438	 31.760639190673828	 547.9510498046875
l 1 2
l 2 3
l 3 4
l 4 5
l 5 6
l 6 7
l 7 8
l 8 9
l 9 10
l 10 11
l 11 12
l 12 13
l 13 14
l 14 15
l 15 16
l 16 17
l 17 18
l 18 19
l 19 20
l 20 21
l 21 22
l 22 23
