# GE Spline Export driveWay01
v -38.66302490234375	 32.715911865234375	 273.593994140625
v -38.66279602050781	 32.66234588623047	 278.592529296875
v -38.657962799072266	 32.754573822021484	 283.5924377441406
v -38.64752960205078	 32.93550491333008	 288.5921325683594
v -38.63283920288086	 32.98443603515625	 293.5935974121094
v -38.61452865600586	 32.98443603515625	 298.5929870605469
v -38.59243392944336	 32.98443603515625	 303.59283447265625
v -38.566070556640625	 32.98443603515625	 308.5930480957031
v -38.534664154052734	 32.98443603515625	 313.59344482421875
v -38.49699020385742	 32.98443603515625	 318.59381103515625
v -38.45109939575195	 32.98443603515625	 323.5932922363281
v -38.39546203613281	 32.98443603515625	 328.5936279296875
v -38.3306999206543	 32.966922760009766	 333.5931396484375
v -38.25822448730469	 32.92626953125	 338.59185791015625
v -38.18043899536133	 32.93391418457031	 343.5914306640625
v -38.10141372680664	 32.92133712768555	 348.5911865234375
v -38.02474594116211	 32.91901397705078	 353.59039306640625
v -37.950199127197266	 32.91707992553711	 358.5895690917969
v -37.87629699707031	 32.96551513671875	 363.5890808105469
v -37.783775329589844	 33.0537109375	 368.5877990722656
v -37.45892333984375	 33.054473876953125	 373.57464599609375
v -35.70872497558594	 33.054473876953125	 378.19818115234375
v -32.0786247253418	 33.054473876953125	 381.5904541015625
v -27.6080265045166	 33.054473876953125	 383.8163757324219
v -22.948503494262695	 33.054473876953125	 385.6277160644531
v -18.249439239501953	 33.054473876953125	 387.3372497558594
v -13.518672943115234	 33.054473876953125	 388.95648193359375
v -8.740479469299316	 33.054473876953125	 390.4278259277344
v -3.8901760578155518	 32.99679946899414	 391.63641357421875
v 1.0424754619598389	 32.88243865966797	 392.4383544921875
v 6.025237083435059	 32.761962890625	 392.824951171875
v 11.017683982849121	 32.630008697509766	 392.7344665527344
v 15.924986839294434	 32.503692626953125	 391.8044128417969
l 1 2
l 2 3
l 3 4
l 4 5
l 5 6
l 6 7
l 7 8
l 8 9
l 9 10
l 10 11
l 11 12
l 12 13
l 13 14
l 14 15
l 15 16
l 16 17
l 17 18
l 18 19
l 19 20
l 20 21
l 21 22
l 22 23
l 23 24
l 24 25
l 25 26
l 26 27
l 27 28
l 28 29
l 29 30
l 30 31
l 31 32
l 32 33
