# GE Spline Export driveWay02
v 298.8710021972656	 33.342411041259766	 -1560.6109619140625
v 294.987548828125	 33.342411041259766	 -1557.4617919921875
v 290.89642333984375	 33.342411041259766	 -1554.592041015625
v 286.4179992675781	 33.313636779785156	 -1552.3841552734375
v 281.61248779296875	 33.24688720703125	 -1551.02587890625
v 276.6629638671875	 33.17894744873047	 -1550.337158203125
v 271.6734619140625	 33.11037826538086	 -1550.0291748046875
v 266.676025390625	 33.04290771484375	 -1549.888916015625
v 261.6772155761719	 32.9640007019043	 -1549.8187255859375
v 256.6782531738281	 32.8535270690918	 -1549.7791748046875
v 251.67860412597656	 32.81072998046875	 -1549.7559814453125
v 246.67881774902344	 32.76792907714844	 -1549.74072265625
v 241.67901611328125	 32.72512435913086	 -1549.730224609375
v 236.6791534423828	 32.69010925292969	 -1549.7220458984375
v 231.67926025390625	 32.65898132324219	 -1549.71533203125
v 226.67933654785156	 32.631744384765625	 -1549.7098388671875
v 221.6793975830078	 32.609649658203125	 -1549.705078125
v 216.67942810058594	 32.59143829345703	 -1549.7008056640625
v 211.67947387695312	 32.578521728515625	 -1549.69580078125
v 206.6794891357422	 32.57073974609375	 -1549.68994140625
v 201.67950439453125	 32.56420135498047	 -1549.6837158203125
v 196.67950439453125	 32.56031036376953	 -1549.6766357421875
v 191.67953491210938	 32.555171966552734	 -1549.66845703125
v 186.67955017089844	 32.54863739013672	 -1549.6585693359375
v 181.67958068847656	 32.540855407714844	 -1549.646484375
v 176.67962646484375	 32.53182601928711	 -1549.6322021484375
v 171.6796875	 32.51626205444336	 -1549.6151123046875
v 166.67974853515625	 32.49680709838867	 -1549.5950927734375
v 161.67987060546875	 32.47346496582031	 -1549.5706787109375
v 156.68003845214844	 32.446224212646484	 -1549.5418701171875
v 151.68023681640625	 32.41898727416992	 -1549.5084228515625
v 146.6804962158203	 32.38785934448242	 -1549.4691162109375
v 141.68080139160156	 32.360626220703125	 -1549.4229736328125
v 136.68116760253906	 32.337284088134766	 -1549.3685302734375
v 131.681640625	 32.31393814086914	 -1549.3040771484375
v 126.68226623535156	 32.29837417602539	 -1549.228515625
v 121.68310546875	 32.2840461730957	 -1549.1385498046875
v 116.68429565429688	 32.27626419067383	 -1549.0303955078125
v 111.68608093261719	 32.26848220825195	 -1548.898681640625
v 106.68876647949219	 32.264591217041016	 -1548.7353515625
v 101.69303894042969	 32.264591217041016	 -1548.5291748046875
v 96.70010375976562	 32.263423919677734	 -1548.2647705078125
v 91.71229553222656	 32.27107620239258	 -1547.9166259765625
v 86.7342529296875	 32.26588821411133	 -1547.450439453125
v 81.77447509765625	 32.26957321166992	 -1546.820068359375
v 76.84675598144531	 32.271995544433594	 -1545.9759521484375
v 71.97114562988281	 32.26358413696289	 -1544.8707275390625
v 67.16535949707031	 32.26447296142578	 -1543.4925537109375
v 62.425048828125	 32.25680923461914	 -1541.903076171875
v 57.72953796386719	 32.25969314575195	 -1540.1851806640625
v 53.06268310546875	 32.26240158081055	 -1538.390625
v 48.41680908203125	 32.258766174316406	 -1536.5426025390625
v 43.78837585449219	 32.266944885253906	 -1534.6512451171875
v 39.17768859863281	 32.26589584350586	 -1532.7171630859375
v 34.59130859375	 32.268104553222656	 -1530.7259521484375
v 30.048171997070312	 32.265995025634766	 -1528.6383056640625
v 25.563568115234375	 32.25680923461914	 -1526.4273681640625
v 21.004364013671875	 32.25680923461914	 -1524.3807373046875
v 16.18475341796875	 32.25680923461914	 -1523.0692138671875
v 11.241546630859375	 32.25680923461914	 -1522.3267822265625
v 6.263641357421875	 32.266109466552734	 -1521.8609619140625
v 1.273651123046875	 32.25680923461914	 -1521.5469970703125
v -3.721466064453125	 32.25680923461914	 -1521.3272705078125
v -8.718963623046875	 32.24343490600586	 -1521.171875
v -13.717498779296875	 32.19565200805664	 -1521.0611572265625
v -18.716644287109375	 32.15784454345703	 -1520.9801025390625
v -23.716094970703125	 32.11894226074219	 -1520.9173583984375
v -28.71563720703125	 32.08003234863281	 -1520.865966796875
v -33.71527099609375	 32.0411262512207	 -1520.822509765625
v -38.7149658203125	 32.01278305053711	 -1520.783203125
v -43.71478271484375	 31.992218017578125	 -1520.7449951171875
v -48.714569091796875	 31.977764129638672	 -1520.70654296875
v -53.714385986328125	 31.969980239868164	 -1520.6663818359375
v -58.71417236328125	 31.964981079101562	 -1520.6229248046875
v -63.71392822265625	 31.964981079101562	 -1520.5748291015625
v -68.71365356445312	 31.961090087890625	 -1520.5228271484375
v -73.71328735351562	 31.957199096679688	 -1520.4658203125
v -78.71286010742188	 31.950532913208008	 -1520.4049072265625
v -83.71243286132812	 31.9427547454834	 -1520.3419189453125
v -88.71194458007812	 31.937742233276367	 -1520.27685546875
v -93.71148681640625	 31.929960250854492	 -1520.2099609375
v -98.71099853515625	 31.926069259643555	 -1520.14208984375
v -103.71041870117188	 31.922178268432617	 -1520.0740966796875
v -108.71002197265625	 31.922178268432617	 -1520.0052490234375
v -113.70953369140625	 31.922178268432617	 -1519.9373779296875
v -118.70904541015625	 31.922178268432617	 -1519.8702392578125
v -123.7086181640625	 31.926069259643555	 -1519.8043212890625
v -128.70816040039062	 31.932716369628906	 -1519.7393798828125
v -133.707763671875	 31.937742233276367	 -1519.6756591796875
v -138.70730590820312	 31.945526123046875	 -1519.6134033203125
v -143.70687866210938	 31.95330810546875	 -1519.5526123046875
v -148.70645141601562	 31.961090087890625	 -1519.4937744140625
v -153.70614624023438	 31.97161865234375	 -1519.4368896484375
v -158.70578002929688	 31.980545043945312	 -1519.3817138671875
v -163.70541381835938	 31.988327026367188	 -1519.3280029296875
v -168.70513916015625	 31.996109008789062	 -1519.2769775390625
v -173.70480346679688	 32	 -1519.2279052734375
v -178.70452880859375	 32.00389099121094	 -1519.180419921875
v -183.704345703125	 32.00389099121094	 -1519.135986328125
v -188.70416259765625	 32.00389099121094	 -1519.0936279296875
v -193.70391845703125	 32	 -1519.0545654296875
v -198.7037353515625	 32.00389099121094	 -1519.018798828125
v -203.70358276367188	 32.00389099121094	 -1518.987060546875
v -208.70339965820312	 32.01167297363281	 -1518.959228515625
v -213.70339965820312	 32.02219009399414	 -1518.9365234375
v -218.70330810546875	 32.03775405883789	 -1518.9200439453125
v -223.703125	 32.05720901489258	 -1518.9117431640625
v -228.70309448242188	 32.079402923583984	 -1518.91455078125
v -233.702880859375	 32.10663986206055	 -1518.931396484375
v -238.70260620117188	 32.13776397705078	 -1518.970947265625
v -243.70187377929688	 32.168888092041016	 -1519.045654296875
v -248.69979858398438	 32.201168060302734	 -1519.1796875
v -253.69351196289062	 32.22884750366211	 -1519.4268798828125
v -258.6720886230469	 32.25164031982422	 -1519.880859375
v -263.6209411621094	 32.264591217041016	 -1520.59130859375
v -268.5499572753906	 32.26070022583008	 -1521.4302978515625
v -273.4775695800781	 32.24327850341797	 -1522.2772216796875
v -278.4143981933594	 32.212398529052734	 -1523.067626953125
v -283.3669738769531	 32.17613220214844	 -1523.7523193359375
v -288.3365783691406	 32.137454986572266	 -1524.29931640625
v -293.3189392089844	 32.10382080078125	 -1524.7144775390625
v -298.3092346191406	 32.076622009277344	 -1525.0242919921875
v -303.3036804199219	 32.05329132080078	 -1525.2576904296875
v -308.3002624511719	 32.03773880004883	 -1525.43994140625
v -313.2980041503906	 32.02723693847656	 -1525.5858154296875
v -318.2965393066406	 32.02219009399414	 -1525.7022705078125
v -323.2955627441406	 32.01945495605469	 -1525.7955322265625
v -328.2949523925781	 32.01556396484375	 -1525.8701171875
v -333.2946472167969	 32.01167297363281	 -1525.9288330078125
v -338.2943420410156	 32.007781982421875	 -1525.9752197265625
v -343.2940368652344	 32.00389099121094	 -1526.0103759765625
v -348.2939758300781	 31.998855590820312	 -1526.0362548828125
v -353.2937927246094	 31.992218017578125	 -1526.0528564453125
v -358.2937316894531	 31.9871826171875	 -1526.0606689453125
v -363.2936706542969	 31.980545043945312	 -1526.0594482421875
v -368.2936706542969	 31.972763061523438	 -1526.0489501953125
v -373.2934265136719	 31.967731475830078	 -1526.0284423828125
v -378.2933044433594	 31.961090087890625	 -1525.9971923828125
v -383.2931213378906	 31.956058502197266	 -1525.9542236328125
v -388.2927551269531	 31.949417114257812	 -1525.8975830078125
v -393.2919616699219	 31.94049835205078	 -1525.8248291015625
v -398.2912902832031	 31.929960250854492	 -1525.7357177734375
v -403.2901306152344	 31.917156219482422	 -1525.631591796875
v -408.2887268066406	 31.897706985473633	 -1525.5137939453125
v -413.2868347167969	 31.878259658813477	 -1525.3851318359375
v -418.2847595214844	 31.85770606994629	 -1525.2481689453125
v -423.2826843261719	 31.83547592163086	 -1525.10693359375
v -428.2806701660156	 31.816028594970703	 -1524.9661865234375
v -433.2785949707031	 31.800474166870117	 -1524.830810546875
v -438.2769470214844	 31.78880500793457	 -1524.705078125
v -443.2754821777344	 31.781028747558594	 -1524.592041015625
v -448.2744445800781	 31.77431869506836	 -1524.4920654296875
v -453.2736511230469	 31.77431869506836	 -1524.407958984375
v -458.2731018066406	 31.77431869506836	 -1524.343017578125
v -463.2731018066406	 31.77431869506836	 -1524.3065185546875
v -468.2727966308594	 31.778209686279297	 -1524.3206787109375
v -473.2700500488281	 31.782100677490234	 -1524.4716796875
v -478.2361755371094	 31.78988265991211	 -1525.0220947265625
v -483.0406799316406	 31.79393196105957	 -1526.3778076171875
v -487.4932556152344	 31.801555633544922	 -1528.6370849609375
v -491.5127868652344	 31.80544662475586	 -1531.602294921875
v -495.0243225097656	 31.809337615966797	 -1535.1539306640625
v -497.8982238769531	 31.809337615966797	 -1539.23779296875
v -500.0354919433594	 31.809337615966797	 -1543.75146484375
v -501.4457702636719	 31.809337615966797	 -1548.5438232421875
v -502.2756042480469	 31.803607940673828	 -1553.472412109375
v -502.7275695800781	 31.795909881591797	 -1558.4512939453125
v -502.9847717285156	 31.785991668701172	 -1563.4442138671875
v -503.1636047363281	 31.77431869506836	 -1568.4410400390625
v -503.3177795410156	 31.76093864440918	 -1573.4385986328125
v -503.4621887207031	 31.74538230895996	 -1578.436279296875
v -503.5979919433594	 31.729827880859375	 -1583.4344482421875
v -503.7236633300781	 31.71038055419922	 -1588.4324951171875
v -503.8396301269531	 31.694822311401367	 -1593.430908203125
v -503.9448547363281	 31.67926025390625	 -1598.4298095703125
v -504.0395202636719	 31.6637020111084	 -1603.4287109375
v -504.1255798339844	 31.649805068969727	 -1608.4278564453125
v -504.2060241699219	 31.640361785888672	 -1613.4271240234375
v -504.2846374511719	 31.63035011291504	 -1618.4261474609375
v -504.3650207519531	 31.622570037841797	 -1623.4254150390625
v -504.4493713378906	 31.618677139282227	 -1628.424560546875
v -504.5429382324219	 31.61478614807129	 -1633.4234619140625
v -504.6513977050781	 31.61089515686035	 -1638.4222412109375
v -504.7839660644531	 31.614784240722656	 -1643.4202880859375
v -504.9561462402344	 31.61478614807129	 -1648.4171142578125
v -505.1947937011719	 31.618677139282227	 -1653.411376953125
v -505.5454406738281	 31.6264591217041	 -1658.3988037109375
v -506.0829162597656	 31.631784439086914	 -1663.3690185546875
v -506.9032287597656	 31.639301300048828	 -1668.3004150390625
v -508.0993957519531	 31.646896362304688	 -1673.153076171875
v -509.7780456542969	 31.653696060180664	 -1677.8599853515625
v -512.06591796875	 31.6575870513916	 -1682.300048828125
v -515.0499267578125	 31.6575870513916	 -1686.3045654296875
v -518.6195068359375	 31.653696060180664	 -1689.8004150390625
v -522.568603515625	 31.649805068969727	 -1692.86328125
v -526.7884521484375	 31.644630432128906	 -1695.5416259765625
v -531.2423095703125	 31.638132095336914	 -1697.80908203125
v -535.8944091796875	 31.634653091430664	 -1699.63623046875
v -540.6734619140625	 31.634241104125977	 -1701.1038818359375
v -545.51416015625	 31.634241104125977	 -1702.3538818359375
v -550.38232421875	 31.634241104125977	 -1703.4947509765625
v -555.262451171875	 31.638134002685547	 -1704.5831298828125
v -560.1480712890625	 31.64591407775879	 -1705.6453857421875
v -565.0369873046875	 31.653841018676758	 -1706.6937255859375
v -569.9266357421875	 31.665369033813477	 -1707.7369384765625
v -574.816162109375	 31.680219650268555	 -1708.7822265625
v -579.7037353515625	 31.69534683227539	 -1709.8353271484375
v -584.5882568359375	 31.714351654052734	 -1710.9029541015625
v -589.46923828125	 31.72945213317871	 -1711.9866943359375
v -594.346435546875	 31.748430252075195	 -1713.0885009765625
v -599.2183837890625	 31.76349449157715	 -1714.2119140625
v -604.083740234375	 31.778535842895508	 -1715.3636474609375
v -608.9388427734375	 31.793535232543945	 -1716.5582275390625
v -613.774169921875	 31.804567337036133	 -1717.8302001953125
v -618.5709228515625	 31.813230514526367	 -1719.2403564453125
v -623.3089599609375	 31.821012496948242	 -1720.8365478515625
v -627.9892578125	 31.82490348815918	 -1722.5943603515625
l 1 2
l 2 3
l 3 4
l 4 5
l 5 6
l 6 7
l 7 8
l 8 9
l 9 10
l 10 11
l 11 12
l 12 13
l 13 14
l 14 15
l 15 16
l 16 17
l 17 18
l 18 19
l 19 20
l 20 21
l 21 22
l 22 23
l 23 24
l 24 25
l 25 26
l 26 27
l 27 28
l 28 29
l 29 30
l 30 31
l 31 32
l 32 33
l 33 34
l 34 35
l 35 36
l 36 37
l 37 38
l 38 39
l 39 40
l 40 41
l 41 42
l 42 43
l 43 44
l 44 45
l 45 46
l 46 47
l 47 48
l 48 49
l 49 50
l 50 51
l 51 52
l 52 53
l 53 54
l 54 55
l 55 56
l 56 57
l 57 58
l 58 59
l 59 60
l 60 61
l 61 62
l 62 63
l 63 64
l 64 65
l 65 66
l 66 67
l 67 68
l 68 69
l 69 70
l 70 71
l 71 72
l 72 73
l 73 74
l 74 75
l 75 76
l 76 77
l 77 78
l 78 79
l 79 80
l 80 81
l 81 82
l 82 83
l 83 84
l 84 85
l 85 86
l 86 87
l 87 88
l 88 89
l 89 90
l 90 91
l 91 92
l 92 93
l 93 94
l 94 95
l 95 96
l 96 97
l 97 98
l 98 99
l 99 100
l 100 101
l 101 102
l 102 103
l 103 104
l 104 105
l 105 106
l 106 107
l 107 108
l 108 109
l 109 110
l 110 111
l 111 112
l 112 113
l 113 114
l 114 115
l 115 116
l 116 117
l 117 118
l 118 119
l 119 120
l 120 121
l 121 122
l 122 123
l 123 124
l 124 125
l 125 126
l 126 127
l 127 128
l 128 129
l 129 130
l 130 131
l 131 132
l 132 133
l 133 134
l 134 135
l 135 136
l 136 137
l 137 138
l 138 139
l 139 140
l 140 141
l 141 142
l 142 143
l 143 144
l 144 145
l 145 146
l 146 147
l 147 148
l 148 149
l 149 150
l 150 151
l 151 152
l 152 153
l 153 154
l 154 155
l 155 156
l 156 157
l 157 158
l 158 159
l 159 160
l 160 161
l 161 162
l 162 163
l 163 164
l 164 165
l 165 166
l 166 167
l 167 168
l 168 169
l 169 170
l 170 171
l 171 172
l 172 173
l 173 174
l 174 175
l 175 176
l 176 177
l 177 178
l 178 179
l 179 180
l 180 181
l 181 182
l 182 183
l 183 184
l 184 185
l 185 186
l 186 187
l 187 188
l 188 189
l 189 190
l 190 191
l 191 192
l 192 193
l 193 194
l 194 195
l 195 196
l 196 197
l 197 198
l 198 199
l 199 200
l 200 201
l 201 202
l 202 203
l 203 204
l 204 205
l 205 206
l 206 207
l 207 208
l 208 209
l 209 210
l 210 211
l 211 212
l 212 213
l 213 214
l 214 215
l 215 216
l 216 217
