# GE Spline Export driveWay03
v 436.0744323730469	 31.54863739013672	 1061.3868408203125
v 431.074462890625	 31.54863739013672	 1061.3868408203125
v 426.0768127441406	 31.502687454223633	 1061.387451171875
v 421.07623291015625	 31.387327194213867	 1061.394775390625
v 416.07891845703125	 31.324161529541016	 1061.4058837890625
v 411.0832214355469	 31.26089096069336	 1061.418212890625
v 406.0790710449219	 31.20882225036621	 1061.431396484375
v 401.0788269042969	 31.14959144592285	 1061.445068359375
v 396.080810546875	 31.076555252075195	 1061.4593505859375
v 391.08038330078125	 31.01480484008789	 1061.474365234375
v 386.082763671875	 30.96259117126465	 1061.489990234375
v 381.08221435546875	 30.93362808227539	 1061.50634765625
v 376.081787109375	 30.934064865112305	 1061.5234375
v 371.08172607421875	 30.936960220336914	 1061.541259765625
v 366.0811462402344	 30.949567794799805	 1061.5599365234375
v 361.07891845703125	 30.953182220458984	 1061.579345703125
v 356.07647705078125	 30.932615280151367	 1061.5994873046875
v 351.080078125	 30.91592025756836	 1061.6204833984375
v 346.0794677734375	 30.918317794799805	 1061.642333984375
v 341.0765686035156	 30.9437198638916	 1061.6650390625
v 336.07965087890625	 30.9980525970459	 1061.6885986328125
v 331.0769348144531	 31.047815322875977	 1061.713134765625
v 326.078857421875	 31.068424224853516	 1061.7384033203125
v 321.07763671875	 31.06821060180664	 1061.7647705078125
v 316.07855224609375	 31.048274993896484	 1061.7919921875
v 311.07763671875	 31.02279281616211	 1061.8199462890625
v 306.0785827636719	 30.98162078857422	 1061.8487548828125
v 301.07720947265625	 30.97909927368164	 1061.878173828125
v 296.0787353515625	 31.015296936035156	 1061.908203125
v 291.076416015625	 31.02206802368164	 1061.9388427734375
v 286.0787048339844	 31.02820587158203	 1061.9700927734375
v 281.077880859375	 31.046262741088867	 1062.001708984375
v 276.07830810546875	 31.06348419189453	 1062.0338134765625
v 271.0787048339844	 31.088685989379883	 1062.0662841796875
v 266.0774841308594	 31.106369018554688	 1062.0992431640625
v 261.07891845703125	 31.115966796875	 1062.13232421875
v 256.07855224609375	 31.136913299560547	 1062.1658935546875
v 251.0785369873047	 31.181201934814453	 1062.1995849609375
v 246.07911682128906	 31.237449645996094	 1062.233642578125
v 241.07870483398438	 31.31927490234375	 1062.267822265625
v 236.07911682128906	 31.410375595092773	 1062.3021240234375
v 231.07937622070312	 31.505386352539062	 1062.3365478515625
v 226.07911682128906	 31.622407913208008	 1062.3712158203125
v 221.0795135498047	 31.720272064208984	 1062.4058837890625
v 216.07965087890625	 31.809785842895508	 1062.4405517578125
l 1 2
l 2 3
l 3 4
l 4 5
l 5 6
l 6 7
l 7 8
l 8 9
l 9 10
l 10 11
l 11 12
l 12 13
l 13 14
l 14 15
l 15 16
l 16 17
l 17 18
l 18 19
l 19 20
l 20 21
l 21 22
l 22 23
l 23 24
l 24 25
l 25 26
l 26 27
l 27 28
l 28 29
l 29 30
l 30 31
l 31 32
l 32 33
l 33 34
l 34 35
l 35 36
l 36 37
l 37 38
l 38 39
l 39 40
l 40 41
l 41 42
l 42 43
l 43 44
l 44 45
