# GE Spline Export grassTrack01
v 1898.0640869140625	 31.901979446411133	 -1513.252685546875
v 1893.0633544921875	 31.986032485961914	 -1513.252685546875
v 1888.7938232421875	 31.91936683654785	 -1513.3155517578125
v 1883.8023681640625	 31.856901168823242	 -1513.52880859375
v 1878.7996826171875	 31.847492218017578	 -1513.69140625
v 1873.8038330078125	 31.862667083740234	 -1513.8343505859375
v 1868.805908203125	 31.899744033813477	 -1513.9613037109375
v 1863.80419921875	 31.957107543945312	 -1514.0731201171875
v 1858.8056640625	 31.981285095214844	 -1514.1700439453125
v 1853.807861328125	 31.991069793701172	 -1514.2520751953125
v 1848.8077392578125	 32.02450942993164	 -1514.319091796875
v 1843.806396484375	 32.06099319458008	 -1514.3702392578125
v 1838.807373046875	 32.08720016479492	 -1514.405029296875
v 1833.8065185546875	 32.11927795410156	 -1514.42236328125
v 1828.8072509765625	 32.177490234375	 -1514.421630859375
v 1823.808837890625	 32.24504470825195	 -1514.4031982421875
v 1818.8077392578125	 32.270668029785156	 -1514.368896484375
v 1813.8076171875	 32.284793853759766	 -1514.3201904296875
v 1808.810302734375	 32.31377029418945	 -1514.259033203125
v 1803.8121337890625	 32.33681869506836	 -1514.1868896484375
v 1798.8131103515625	 32.35563659667969	 -1514.1055908203125
v 1793.8128662109375	 32.39451599121094	 -1514.0164794921875
v 1788.810302734375	 32.44023895263672	 -1513.920654296875
v 1783.8175048828125	 32.4818115234375	 -1513.81982421875
v 1778.8209228515625	 32.51668167114258	 -1513.71435546875
v 1773.8148193359375	 32.55171203613281	 -1513.60498046875
v 1768.8243408203125	 32.5687255859375	 -1513.4930419921875
v 1763.819580078125	 32.590423583984375	 -1513.37841796875
v 1758.828369140625	 32.63251495361328	 -1513.26220703125
v 1753.8216552734375	 32.6660270690918	 -1513.1441650390625
v 1748.829833984375	 32.684505462646484	 -1513.0252685546875
v 1743.833740234375	 32.69027328491211	 -1512.905517578125
v 1738.829833984375	 32.68206787109375	 -1512.7847900390625
v 1733.8272705078125	 32.66607666015625	 -1512.66357421875
v 1728.835205078125	 32.65174102783203	 -1512.542236328125
v 1723.8394775390625	 32.64450454711914	 -1512.4202880859375
v 1718.841552734375	 32.64265060424805	 -1512.2978515625
v 1713.84228515625	 32.643672943115234	 -1512.1751708984375
v 1708.8427734375	 32.644081115722656	 -1512.05224609375
v 1703.84326171875	 32.642791748046875	 -1511.9290771484375
v 1698.8441162109375	 32.63801956176758	 -1511.8057861328125
v 1693.845458984375	 32.63387680053711	 -1511.6822509765625
v 1688.8475341796875	 32.632869720458984	 -1511.5587158203125
v 1683.849853515625	 32.633480072021484	 -1511.43505859375
v 1678.8524169921875	 32.63622283935547	 -1511.3114013671875
v 1673.85498046875	 32.64396667480469	 -1511.1876220703125
v 1668.8570556640625	 32.650657653808594	 -1511.0638427734375
v 1663.8582763671875	 32.65074157714844	 -1510.93994140625
v 1658.858154296875	 32.648780822753906	 -1510.8160400390625
v 1653.8563232421875	 32.64531707763672	 -1510.6922607421875
v 1648.852294921875	 32.64821243286133	 -1510.5682373046875
v 1643.857421875	 32.64115524291992	 -1510.444580078125
v 1638.864013671875	 32.64106369018555	 -1510.321044921875
v 1633.867919921875	 32.6483154296875	 -1510.197509765625
v 1628.8682861328125	 32.65500259399414	 -1510.0738525390625
v 1623.8646240234375	 32.658363342285156	 -1509.9501953125
v 1618.862548828125	 32.660282135009766	 -1509.8267822265625
v 1613.87158203125	 32.65830993652344	 -1509.70361328125
v 1608.8756103515625	 32.654075622558594	 -1509.5804443359375
v 1603.8739013671875	 32.65080261230469	 -1509.457275390625
v 1598.86572265625	 32.6497917175293	 -1509.333984375
v 1593.877197265625	 32.65183639526367	 -1509.2113037109375
v 1588.8817138671875	 32.65517807006836	 -1509.0885009765625
v 1583.878662109375	 32.653961181640625	 -1508.9656982421875
v 1578.87548828125	 32.65163803100586	 -1508.843017578125
v 1573.885498046875	 32.654151916503906	 -1508.7208251953125
v 1568.88623046875	 32.65372848510742	 -1508.5985107421875
v 1563.8779296875	 32.65221405029297	 -1508.47607421875
v 1558.887451171875	 32.655025482177734	 -1508.3541259765625
v 1553.8902587890625	 32.656959533691406	 -1508.232177734375
v 1548.8841552734375	 32.65155792236328	 -1508.1099853515625
v 1543.8900146484375	 32.64985275268555	 -1507.9881591796875
v 1538.8935546875	 32.654632568359375	 -1507.8662109375
v 1533.8883056640625	 32.65668487548828	 -1507.744140625
v 1528.8936767578125	 32.65568542480469	 -1507.622314453125
v 1523.896484375	 32.65758514404297	 -1507.500244140625
v 1518.891357421875	 32.651702880859375	 -1507.3780517578125
v 1513.8978271484375	 32.640533447265625	 -1507.2559814453125
v 1508.8992919921875	 32.63942337036133	 -1507.1336669921875
v 1503.8946533203125	 32.64130783081055	 -1507.0111083984375
v 1498.9017333984375	 32.629966735839844	 -1506.8887939453125
v 1493.901611328125	 32.626461029052734	 -1506.76611328125
v 1488.90087890625	 32.631736755371094	 -1506.6431884765625
v 1483.9052734375	 32.63797378540039	 -1506.520263671875
v 1478.904052734375	 32.64127731323242	 -1506.3970947265625
v 1473.90625	 32.63457107543945	 -1506.273681640625
v 1468.9083251953125	 32.6162109375	 -1506.150146484375
v 1463.9066162109375	 32.59077072143555	 -1506.0262451171875
v 1458.91064453125	 32.56973648071289	 -1505.9022216796875
v 1453.911376953125	 32.54397201538086	 -1505.7779541015625
v 1448.911865234375	 32.52598571777344	 -1505.6533203125
v 1443.9140625	 32.51850891113281	 -1505.5284423828125
v 1438.91455078125	 32.529579162597656	 -1505.4031982421875
v 1433.916259765625	 32.530696868896484	 -1505.2777099609375
v 1428.91748046875	 32.51386642456055	 -1505.1519775390625
v 1423.9189453125	 32.50264358520508	 -1505.0257568359375
v 1418.919921875	 32.49869155883789	 -1504.899169921875
v 1413.92138671875	 32.52247619628906	 -1504.7723388671875
v 1408.923095703125	 32.549861907958984	 -1504.64501953125
v 1403.923583984375	 32.56707763671875	 -1504.5172119140625
v 1398.92626953125	 32.580421447753906	 -1504.38916015625
v 1393.926513671875	 32.57502365112305	 -1504.260498046875
v 1388.927490234375	 32.57300567626953	 -1504.13134765625
v 1383.9312744140625	 32.57977294921875	 -1504.0018310546875
v 1378.9296875	 32.57160949707031	 -1503.8717041015625
v 1373.9324951171875	 32.563926696777344	 -1503.7410888671875
v 1368.934326171875	 32.57480239868164	 -1503.60986328125
v 1363.93359375	 32.591190338134766	 -1503.4781494140625
v 1358.938720703125	 32.60484313964844	 -1503.3458251953125
v 1353.9375	 32.60948944091797	 -1503.2127685546875
v 1348.93798828125	 32.61564636230469	 -1503.0791015625
v 1343.946044921875	 32.636844635009766	 -1502.9449462890625
v 1338.94091796875	 32.64610290527344	 -1502.8096923828125
v 1333.9429931640625	 32.64084243774414	 -1502.6739501953125
v 1328.949462890625	 32.628448486328125	 -1502.5374755859375
v 1323.94482421875	 32.60466766357422	 -1502.39990234375
v 1318.948486328125	 32.59653091430664	 -1502.26171875
v 1313.954345703125	 32.58993911743164	 -1502.122802734375
v 1308.95068359375	 32.582847595214844	 -1501.982666015625
v 1303.954833984375	 32.58467102050781	 -1501.8419189453125
v 1298.9608154296875	 32.5891227722168	 -1501.7003173828125
v 1293.9573974609375	 32.59428787231445	 -1501.5574951171875
v 1288.9609375	 32.59375762939453	 -1501.4141845703125
v 1283.968505859375	 32.59428405761719	 -1501.27001953125
v 1278.9647216796875	 32.61845397949219	 -1501.1246337890625
v 1273.9669189453125	 32.641239166259766	 -1500.978759765625
v 1268.974365234375	 32.65114974975586	 -1500.83203125
v 1263.972900390625	 32.64653396606445	 -1500.684326171875
v 1258.973388671875	 32.637264251708984	 -1500.5357666015625
v 1253.978759765625	 32.6482048034668	 -1500.3865966796875
v 1248.982177734375	 32.67506408691406	 -1500.236572265625
v 1243.981201171875	 32.68549346923828	 -1500.085693359375
v 1238.984130859375	 32.69087600708008	 -1499.93408203125
v 1233.990478515625	 32.695335388183594	 -1499.7818603515625
v 1228.990234375	 32.704872131347656	 -1499.628662109375
v 1223.9910888671875	 32.70981979370117	 -1499.4747314453125
v 1218.994873046875	 32.70286178588867	 -1499.3203125
v 1214.001220703125	 32.69325637817383	 -1499.1651611328125
v 1209	 32.70424270629883	 -1499.00927734375
v 1204.0015869140625	 32.70256042480469	 -1498.8526611328125
v 1199.005615234375	 32.69025802612305	 -1498.695556640625
v 1194.0107421875	 32.696754455566406	 -1498.5379638671875
v 1189.010498046875	 32.70964431762695	 -1498.3795166015625
v 1184.012451171875	 32.70903015136719	 -1498.220703125
v 1179.01611328125	 32.696739196777344	 -1498.061279296875
v 1174.0208740234375	 32.683372497558594	 -1497.9014892578125
v 1169.021728515625	 32.68468475341797	 -1497.7410888671875
v 1164.023681640625	 32.68054962158203	 -1497.580322265625
v 1159.0267333984375	 32.68119812011719	 -1497.4190673828125
v 1154.03076171875	 32.69172286987305	 -1497.257568359375
v 1149.0330810546875	 32.69020080566406	 -1497.0955810546875
v 1144.03515625	 32.69843673706055	 -1496.933349609375
v 1139.037841796875	 32.715240478515625	 -1496.7708740234375
v 1134.041259765625	 32.72152328491211	 -1496.6080322265625
v 1129.04443359375	 32.71683120727539	 -1496.445068359375
v 1124.046630859375	 32.712554931640625	 -1496.2818603515625
v 1119.04931640625	 32.713443756103516	 -1496.1185302734375
v 1114.0523681640625	 32.69141387939453	 -1495.955078125
v 1109.055419921875	 32.682228088378906	 -1495.7916259765625
v 1104.05810546875	 32.70170211791992	 -1495.6280517578125
l 1 2
l 2 3
l 3 4
l 4 5
l 5 6
l 6 7
l 7 8
l 8 9
l 9 10
l 10 11
l 11 12
l 12 13
l 13 14
l 14 15
l 15 16
l 16 17
l 17 18
l 18 19
l 19 20
l 20 21
l 21 22
l 22 23
l 23 24
l 24 25
l 25 26
l 26 27
l 27 28
l 28 29
l 29 30
l 30 31
l 31 32
l 32 33
l 33 34
l 34 35
l 35 36
l 36 37
l 37 38
l 38 39
l 39 40
l 40 41
l 41 42
l 42 43
l 43 44
l 44 45
l 45 46
l 46 47
l 47 48
l 48 49
l 49 50
l 50 51
l 51 52
l 52 53
l 53 54
l 54 55
l 55 56
l 56 57
l 57 58
l 58 59
l 59 60
l 60 61
l 61 62
l 62 63
l 63 64
l 64 65
l 65 66
l 66 67
l 67 68
l 68 69
l 69 70
l 70 71
l 71 72
l 72 73
l 73 74
l 74 75
l 75 76
l 76 77
l 77 78
l 78 79
l 79 80
l 80 81
l 81 82
l 82 83
l 83 84
l 84 85
l 85 86
l 86 87
l 87 88
l 88 89
l 89 90
l 90 91
l 91 92
l 92 93
l 93 94
l 94 95
l 95 96
l 96 97
l 97 98
l 98 99
l 99 100
l 100 101
l 101 102
l 102 103
l 103 104
l 104 105
l 105 106
l 106 107
l 107 108
l 108 109
l 109 110
l 110 111
l 111 112
l 112 113
l 113 114
l 114 115
l 115 116
l 116 117
l 117 118
l 118 119
l 119 120
l 120 121
l 121 122
l 122 123
l 123 124
l 124 125
l 125 126
l 126 127
l 127 128
l 128 129
l 129 130
l 130 131
l 131 132
l 132 133
l 133 134
l 134 135
l 135 136
l 136 137
l 137 138
l 138 139
l 139 140
l 140 141
l 141 142
l 142 143
l 143 144
l 144 145
l 145 146
l 146 147
l 147 148
l 148 149
l 149 150
l 150 151
l 151 152
l 152 153
l 153 154
l 154 155
l 155 156
l 156 157
l 157 158
l 158 159
l 159 160
