# GE Spline Export primaryRoad10
v 1908.0689697265625	 31.891050338745117	 -1518.5169677734375
v 1908.0689697265625	 31.891050338745117	 -1513.517333984375
v 1908.069091796875	 31.81559944152832	 -1508.521728515625
v 1908.0772705078125	 31.859907150268555	 -1503.5203857421875
v 1908.10498046875	 31.906850814819336	 -1498.5220947265625
v 1908.1527099609375	 31.93385124206543	 -1493.5240478515625
v 1908.21875	 31.941635131835938	 -1488.521484375
v 1908.301025390625	 31.939775466918945	 -1483.5230712890625
v 1908.397705078125	 31.926069259643555	 -1478.52734375
v 1908.5076904296875	 31.90480613708496	 -1473.5216064453125
v 1908.629150390625	 31.881433486938477	 -1468.528564453125
v 1908.7613525390625	 31.852392196655273	 -1463.5323486328125
v 1908.9033203125	 31.817386627197266	 -1458.5343017578125
v 1909.053466796875	 31.782377243041992	 -1453.535400390625
v 1909.21044921875	 31.743459701538086	 -1448.53466796875
v 1909.372802734375	 31.700672149658203	 -1443.5362548828125
v 1909.539794921875	 31.661815643310547	 -1438.543212890625
v 1909.7109375	 31.6190185546875	 -1433.5439453125
v 1909.8856201171875	 31.576236724853516	 -1428.54638671875
v 1910.0631103515625	 31.537363052368164	 -1423.55126953125
v 1910.2435302734375	 31.497507095336914	 -1418.5513916015625
v 1910.4259033203125	 31.4595890045166	 -1413.5572509765625
v 1910.610595703125	 31.42458152770996	 -1408.5589599609375
v 1910.7969970703125	 31.393482208251953	 -1403.562744140625
v 1910.9849853515625	 31.364072799682617	 -1398.5670166015625
v 1911.1744384765625	 31.339038848876953	 -1393.566650390625
v 1911.364990234375	 31.31740951538086	 -1388.5738525390625
v 1911.556640625	 31.299610137939453	 -1383.57666015625
v 1911.7493896484375	 31.286296844482422	 -1378.5782470703125
v 1911.9427490234375	 31.276264190673828	 -1373.584228515625
v 1912.1368408203125	 31.27237319946289	 -1368.5875244140625
v 1912.3316650390625	 31.27237319946289	 -1363.5887451171875
v 1912.52685546875	 31.279891967773438	 -1358.594482421875
v 1912.722412109375	 31.289499282836914	 -1353.5986328125
v 1912.91845703125	 31.305051803588867	 -1348.6014404296875
v 1913.11474609375	 31.328386306762695	 -1343.6044921875
v 1913.311279296875	 31.353235244750977	 -1338.6092529296875
v 1913.5081787109375	 31.382827758789062	 -1333.613037109375
v 1913.705322265625	 31.415435791015625	 -1328.6163330078125
v 1913.90283203125	 31.450429916381836	 -1323.6197509765625
v 1914.1005859375	 31.485416412353516	 -1318.6240234375
v 1914.298583984375	 31.52040672302246	 -1313.6278076171875
v 1914.496826171875	 31.555397033691406	 -1308.6314697265625
v 1914.6953125	 31.58896827697754	 -1303.6353759765625
v 1914.8941650390625	 31.620080947875977	 -1298.6390380859375
v 1915.0931396484375	 31.648693084716797	 -1293.6427001953125
v 1915.29248046875	 31.679794311523438	 -1288.646728515625
v 1915.491943359375	 31.70952796936035	 -1283.6512451171875
v 1915.6917724609375	 31.740642547607422	 -1278.654541015625
v 1915.8917236328125	 31.771757125854492	 -1273.6578369140625
v 1916.0919189453125	 31.802871704101562	 -1268.662109375
v 1916.2923583984375	 31.8339786529541	 -1263.66748046875
v 1916.4931640625	 31.865097045898438	 -1258.669921875
v 1916.694091796875	 31.896215438842773	 -1253.6732177734375
v 1916.895263671875	 31.927324295043945	 -1248.67822265625
v 1917.0966796875	 31.95842933654785	 -1243.682861328125
v 1917.29833984375	 31.98689079284668	 -1238.684814453125
v 1917.500244140625	 32.017982482910156	 -1233.689453125
v 1917.702392578125	 32.04787826538086	 -1228.695556640625
v 1917.90478515625	 32.07628631591797	 -1223.6971435546875
v 1918.107421875	 32.103485107421875	 -1218.702392578125
v 1918.310302734375	 32.12954330444336	 -1213.70751953125
v 1918.513427734375	 32.15287399291992	 -1208.7105712890625
v 1918.7166748046875	 32.17620086669922	 -1203.7166748046875
v 1918.9202880859375	 32.19175338745117	 -1198.7198486328125
v 1919.1240234375	 32.207298278808594	 -1193.7244873046875
v 1919.327880859375	 32.2217903137207	 -1188.729248046875
v 1919.531982421875	 32.23060989379883	 -1183.7333984375
v 1919.7362060546875	 32.238372802734375	 -1178.7381591796875
v 1919.9405517578125	 32.24513626098633	 -1173.7425537109375
v 1920.14501953125	 32.249027252197266	 -1168.746826171875
v 1920.349609375	 32.2529182434082	 -1163.7515869140625
v 1920.55419921875	 32.25680923461914	 -1158.7559814453125
v 1920.7589111328125	 32.26070022583008	 -1153.760009765625
v 1920.9635009765625	 32.264591217041016	 -1148.765380859375
v 1921.1683349609375	 32.26848220825195	 -1143.76806640625
v 1921.3729248046875	 32.27325439453125	 -1138.774169921875
v 1921.57763671875	 32.280155181884766	 -1133.778564453125
v 1921.7823486328125	 32.2840461730957	 -1128.781005859375
v 1921.98681640625	 32.288761138916016	 -1123.7880859375
v 1922.1912841796875	 32.295719146728516	 -1118.791748046875
v 1922.3958740234375	 32.300411224365234	 -1113.7938232421875
v 1922.5999755859375	 32.30816650390625	 -1108.8011474609375
v 1922.80419921875	 32.3159294128418	 -1103.8052978515625
v 1923.0084228515625	 32.326847076416016	 -1098.806640625
v 1923.212158203125	 32.33462905883789	 -1093.8121337890625
v 1923.4156494140625	 32.342411041259766	 -1088.818115234375
v 1923.6190185546875	 32.35019302368164	 -1083.8221435546875
v 1923.8221435546875	 32.357975006103516	 -1078.8243408203125
v 1924.0250244140625	 32.36575698852539	 -1073.8267822265625
v 1924.2274169921875	 32.36964797973633	 -1068.83349609375
v 1924.429443359375	 32.373538970947266	 -1063.8388671875
v 1924.6312255859375	 32.37743377685547	 -1058.843017578125
v 1924.8326416015625	 32.37743377685547	 -1053.846435546875
v 1925.03369140625	 32.37743377685547	 -1048.848876953125
v 1925.2344970703125	 32.37743377685547	 -1043.8509521484375
v 1925.4345703125	 32.37743377685547	 -1038.855712890625
v 1925.6343994140625	 32.373538970947266	 -1033.861328125
v 1925.8336181640625	 32.36964797973633	 -1028.8663330078125
v 1926.0325927734375	 32.36575698852539	 -1023.8709716796875
v 1926.23095703125	 32.36186599731445	 -1018.875244140625
v 1926.428955078125	 32.357505798339844	 -1013.87939453125
v 1926.62646484375	 32.35019302368164	 -1008.88330078125
v 1926.8236083984375	 32.3463020324707	 -1003.88720703125
v 1927.0201416015625	 32.342411041259766	 -998.8909912109375
v 1927.2161865234375	 32.33852005004883	 -993.894775390625
v 1927.4117431640625	 32.33852005004883	 -988.8985595703125
v 1927.6068115234375	 32.33462905883789	 -983.9024658203125
v 1927.8013916015625	 32.33852005004883	 -978.90625
v 1927.9954833984375	 32.33852005004883	 -973.91015625
v 1928.1890869140625	 32.34274673461914	 -968.9139404296875
v 1928.382080078125	 32.35019302368164	 -963.9177856445312
v 1928.57470703125	 32.357975006103516	 -958.9215698242188
v 1928.766845703125	 32.36575698852539	 -953.9252319335938
v 1928.9586181640625	 32.373817443847656	 -948.9287109375
v 1929.14990234375	 32.38547897338867	 -943.93212890625
v 1929.3409423828125	 32.396888732910156	 -938.9351806640625
v 1929.5316162109375	 32.40856170654297	 -933.9379272460938
v 1929.721923828125	 32.41657257080078	 -928.9403686523438
v 1929.9119873046875	 32.428016662597656	 -923.9423217773438
v 1930.1015625	 32.43600845336914	 -918.9465942382812
v 1930.291015625	 32.44376754760742	 -913.9518432617188
v 1930.4801025390625	 32.45153045654297	 -908.9568481445312
v 1930.6689453125	 32.45929718017578	 -903.961181640625
v 1930.857666015625	 32.467063903808594	 -898.9650268554688
v 1931.046142578125	 32.474830627441406	 -893.9681396484375
v 1931.2344970703125	 32.48260498046875	 -888.9705200195312
v 1931.4227294921875	 32.49038314819336	 -883.9719848632812
v 1931.6107177734375	 32.49815368652344	 -878.9749145507812
v 1931.7984619140625	 32.50591278076172	 -873.9808349609375
v 1931.986083984375	 32.513671875	 -868.98583984375
v 1932.173583984375	 32.521400451660156	 -863.9898071289062
v 1932.361083984375	 32.52918243408203	 -858.9925537109375
v 1932.548583984375	 32.53309631347656	 -853.9940185546875
v 1932.73583984375	 32.540855407714844	 -848.9955444335938
v 1932.9229736328125	 32.54862976074219	 -844.0020141601562
v 1933.1099853515625	 32.552528381347656	 -839.0071411132812
v 1933.297119140625	 32.56026840209961	 -834.0106811523438
v 1933.484130859375	 32.56420135498047	 -829.0126342773438
v 1933.6712646484375	 32.57193374633789	 -824.0128784179688
v 1933.858154296875	 32.57587432861328	 -819.0191650390625
v 1934.045166015625	 32.583560943603516	 -814.0245971679688
v 1934.2320556640625	 32.587547302246094	 -809.028076171875
v 1934.4190673828125	 32.59521484375	 -804.0296630859375
v 1934.6060791015625	 32.599220275878906	 -799.0307006835938
v 1934.7928466796875	 32.60686111450195	 -794.0376586914062
v 1934.979736328125	 32.614620208740234	 -789.0423583984375
v 1935.1668701171875	 32.618675231933594	 -784.0447387695312
v 1935.35400390625	 32.626461029052734	 -779.0447998046875
v 1935.541015625	 32.63424301147461	 -774.0505981445312
v 1935.72802734375	 32.645694732666016	 -769.0557861328125
v 1935.9151611328125	 32.6573600769043	 -764.0585327148438
v 1936.1025390625	 32.66903305053711	 -759.05908203125
v 1936.2896728515625	 32.68093490600586	 -754.064208984375
v 1936.4769287109375	 32.69622802734375	 -749.0691528320312
v 1936.664306640625	 32.7117805480957	 -744.0718994140625
v 1936.851806640625	 32.72734451293945	 -739.0725708007812
v 1937.0391845703125	 32.73929977416992	 -734.0782470703125
v 1937.2266845703125	 32.75454330444336	 -729.0827026367188
v 1937.414306640625	 32.76264572143555	 -724.0851440429688
v 1937.60205078125	 32.77397918701172	 -719.0866088867188
v 1937.789794921875	 32.782100677490234	 -714.0923461914062
v 1937.9775390625	 32.78988265991211	 -709.0961303710938
v 1938.16552734375	 32.79728698730469	 -704.0980834960938
v 1938.353515625	 32.80155563354492	 -699.1015014648438
v 1938.54150390625	 32.80892562866211	 -694.1062622070312
v 1938.729736328125	 32.813228607177734	 -689.1094360351562
v 1938.91796875	 32.81711959838867	 -684.1112670898438
v 1939.1063232421875	 32.82101058959961	 -679.1160278320312
v 1939.294677734375	 32.82490158081055	 -674.1198120117188
v 1939.4832763671875	 32.828792572021484	 -669.12255859375
v 1939.671875	 32.83268356323242	 -664.1258544921875
v 1939.860595703125	 32.8404655456543	 -659.1300659179688
v 1940.0494384765625	 32.84773254394531	 -654.1333618164062
v 1940.2384033203125	 32.85550308227539	 -649.1360473632812
v 1940.4273681640625	 32.86326599121094	 -644.1401977539062
v 1940.6165771484375	 32.8715934753418	 -639.143798828125
v 1940.805908203125	 32.882694244384766	 -634.1469116210938
v 1940.9952392578125	 32.89435577392578	 -629.1505126953125
v 1941.184814453125	 32.9066162109375	 -624.1541137695312
v 1941.3743896484375	 32.921566009521484	 -619.1575317382812
v 1941.564208984375	 32.93385314941406	 -614.1610717773438
v 1941.754150390625	 32.94877624511719	 -609.1644897460938
v 1941.9442138671875	 32.964111328125	 -604.16796875
v 1942.1343994140625	 32.97598648071289	 -599.1717529296875
v 1942.32470703125	 32.98764419555664	 -594.1752319335938
v 1942.5152587890625	 32.99610900878906	 -589.178466796875
v 1942.7059326171875	 33.0031852722168	 -584.18212890625
v 1942.8966064453125	 33.007057189941406	 -579.1864013671875
v 1943.087646484375	 33.007781982421875	 -574.1891479492188
v 1943.27880859375	 33.00389099121094	 -569.1924438476562
v 1943.469970703125	 33	 -564.1970825195312
v 1943.6614990234375	 32.992218017578125	 -559.2003173828125
v 1943.8531494140625	 32.98133850097656	 -554.2039184570312
v 1944.0447998046875	 32.96968460083008	 -549.208251953125
v 1944.2366943359375	 32.95802688598633	 -544.2120971679688
v 1944.4288330078125	 32.94636535644531	 -539.2158813476562
v 1944.6209716796875	 32.937744140625	 -534.2199096679688
v 1944.8133544921875	 32.92607116699219	 -529.2236328125
v 1945.0057373046875	 32.91828918457031	 -524.2275390625
v 1945.1983642578125	 32.90752029418945	 -519.2318725585938
v 1945.3909912109375	 32.90272521972656	 -514.2357177734375
v 1945.583740234375	 32.89494323730469	 -509.23846435546875
v 1945.776611328125	 32.89105224609375	 -504.24383544921875
v 1945.969482421875	 32.88716125488281	 -499.2479248046875
v 1946.16259765625	 32.883270263671875	 -494.2501220703125
v 1946.3555908203125	 32.87937927246094	 -489.255126953125
v 1946.5487060546875	 32.875484466552734	 -484.26025390625
v 1946.741943359375	 32.872615814208984	 -479.2628173828125
v 1946.935302734375	 32.8715934753418	 -474.2657470703125
v 1947.12841796875	 32.86770248413086	 -469.2720947265625
v 1947.32177734375	 32.86770248413086	 -464.2755126953125
v 1947.5152587890625	 32.86381149291992	 -459.2757568359375
v 1947.70849609375	 32.86381149291992	 -454.28369140625
v 1947.90185546875	 32.86381149291992	 -449.2880859375
v 1948.0953369140625	 32.86381149291992	 -444.2879638671875
v 1948.28857421875	 32.86381149291992	 -439.2950439453125
v 1948.48193359375	 32.86770248413086	 -434.30029296875
v 1948.6754150390625	 32.8715934753418	 -429.3001708984375
v 1948.86865234375	 32.875484466552734	 -424.3065185546875
v 1949.0618896484375	 32.87937927246094	 -419.3126220703125
v 1949.2552490234375	 32.883270263671875	 -414.3121337890625
v 1949.4483642578125	 32.885921478271484	 -409.3182373046875
v 1949.6414794921875	 32.88716125488281	 -404.324462890625
v 1949.8348388671875	 32.89105224609375	 -399.322998046875
v 1950.0277099609375	 32.89105224609375	 -394.3306884765625
v 1950.220703125	 32.89105224609375	 -389.3363037109375
v 1950.4139404296875	 32.88716125488281	 -384.3326416015625
v 1950.6065673828125	 32.883270263671875	 -379.3436279296875
v 1950.79931640625	 32.87937927246094	 -374.347412109375
v 1950.9923095703125	 32.8715934753418	 -369.3447265625
v 1951.1846923828125	 32.86520004272461	 -364.3564453125
v 1951.37744140625	 32.857421875	 -359.3568115234375
v 1951.5699462890625	 32.84965133666992	 -354.3603515625
v 1951.76220703125	 32.84190368652344	 -349.3685302734375
v 1951.954833984375	 32.83657455444336	 -344.363525390625
v 1952.146728515625	 32.828792572021484	 -339.3753662109375
v 1952.3388671875	 32.82248306274414	 -334.3778076171875
v 1952.531005859375	 32.81711959838867	 -329.3780517578125
v 1952.7227783203125	 32.813228607177734	 -324.3878173828125
v 1952.9149169921875	 32.80693435668945	 -319.3818359375
v 1953.1064453125	 32.80155563354492	 -314.3934326171875
v 1953.2982177734375	 32.797664642333984	 -309.3941650390625
v 1953.48974609375	 32.79377365112305	 -304.3973388671875
v 1953.68115234375	 32.78988265991211	 -299.4033203125
v 1953.8729248046875	 32.78599166870117	 -294.3995361328125
v 1954.06396484375	 32.78599166870117	 -289.4102783203125
v 1954.2554931640625	 32.782100677490234	 -284.408447265625
v 1954.4466552734375	 32.782100677490234	 -279.415771484375
v 1954.637939453125	 32.782100677490234	 -274.4178466796875
v 1954.8291015625	 32.782100677490234	 -269.4208984375
v 1955.0201416015625	 32.782100677490234	 -264.42578125
v 1955.2113037109375	 32.78599166870117	 -259.425537109375
v 1955.4022216796875	 32.78599166870117	 -254.4324951171875
v 1955.5933837890625	 32.78988265991211	 -249.431640625
v 1955.7841796875	 32.78988265991211	 -244.4388427734375
v 1955.9752197265625	 32.78988265991211	 -239.4403076171875
v 1956.166015625	 32.78988265991211	 -234.4449462890625
v 1956.35693359375	 32.78988265991211	 -229.4478759765625
v 1956.5478515625	 32.78599166870117	 -224.4510498046875
v 1956.7386474609375	 32.782100677490234	 -219.4547119140625
v 1956.9295654296875	 32.7782096862793	 -214.4571533203125
v 1957.1202392578125	 32.77042770385742	 -209.46142578125
v 1957.3111572265625	 32.76264572143555	 -204.4639892578125
v 1957.501953125	 32.75486373901367	 -199.4678955078125
v 1957.6927490234375	 32.74502182006836	 -194.4710693359375
v 1957.883544921875	 32.73336410522461	 -189.474365234375
v 1958.0743408203125	 32.721702575683594	 -184.4776611328125
v 1958.2652587890625	 32.71004104614258	 -179.4810791015625
v 1958.4560546875	 32.69838333129883	 -174.4837646484375
v 1958.6468505859375	 32.68672561645508	 -169.48828125
v 1958.8377685546875	 32.6750602722168	 -164.4901123046875
v 1959.028564453125	 32.66537094116211	 -159.496337890625
v 1959.2196044921875	 32.6556282043457	 -154.4964599609375
v 1959.410400390625	 32.64591598510742	 -149.502685546875
v 1959.6015625	 32.63813400268555	 -144.5032958984375
v 1959.79248046875	 32.63035202026367	 -139.5079345703125
v 1959.9835205078125	 32.626461029052734	 -134.5107421875
v 1960.1746826171875	 32.62067413330078	 -129.5133056640625
v 1960.3656005859375	 32.61680603027344	 -124.5194091796875
v 1960.556884765625	 32.614784240722656	 -119.518798828125
v 1960.7479248046875	 32.61089324951172	 -114.5294189453125
v 1960.939453125	 32.61089324951172	 -109.5252685546875
v 1961.130615234375	 32.61089324951172	 -104.5325927734375
v 1961.322021484375	 32.61089324951172	 -99.5333251953125
v 1961.5135498046875	 32.614784240722656	 -94.5362548828125
v 1961.7049560546875	 32.618675231933594	 -89.54345703125
v 1961.896728515625	 32.62046432495117	 -84.5411376953125
v 1962.0880126953125	 32.62256622314453	 -79.5537109375
v 1962.2801513671875	 32.626461029052734	 -74.5484619140625
v 1962.471923828125	 32.63035202026367	 -69.554443359375
v 1962.663818359375	 32.6320686340332	 -64.55908203125
v 1962.8560791015625	 32.63424301147461	 -59.5576171875
v 1963.0477294921875	 32.63813400268555	 -54.572509765625
v 1963.240478515625	 32.642024993896484	 -49.564697265625
v 1963.4327392578125	 32.64369201660156	 -44.5711669921875
v 1963.6251220703125	 32.647552490234375	 -39.5789794921875
v 1963.8179931640625	 32.64980697631836	 -34.5758056640625
v 1964.010498046875	 32.6536979675293	 -29.587158203125
v 1964.203369140625	 32.657588958740234	 -24.5875244140625
v 1964.396484375	 32.66147994995117	 -19.5888671875
v 1964.589111328125	 32.66147994995117	 -14.6019287109375
v 1964.782470703125	 32.657588958740234	 -9.598388671875
v 1964.9755859375	 32.656036376953125	 -4.6019287109375
v 1965.16845703125	 32.64980697631836	 0.3853759765625
v 1965.362060546875	 32.6443977355957	 5.3895263671875
v 1965.5552978515625	 32.63424301147461	 10.3856201171875
v 1965.748291015625	 32.625	 15.3743896484375
v 1965.9417724609375	 32.614784240722656	 20.3768310546875
v 1966.1351318359375	 32.60700225830078	 25.3734130859375
v 1966.328125	 32.599220275878906	 30.3641357421875
v 1966.5213623046875	 32.59391784667969	 35.3636474609375
v 1966.714599609375	 32.587547302246094	 40.3609619140625
v 1966.907470703125	 32.58228302001953	 45.35400390625
v 1967.1004638671875	 32.57451629638672	 50.3502197265625
v 1967.2933349609375	 32.56285095214844	 55.3482666015625
v 1967.486083984375	 32.54341125488281	 60.3431396484375
v 1967.678466796875	 32.52397537231445	 65.3367919921875
v 1967.8709716796875	 32.50063705444336	 70.33544921875
v 1968.063232421875	 32.46799087524414	 75.3314208984375
v 1968.2552490234375	 32.43326187133789	 80.3258056640625
v 1968.447021484375	 32.40041732788086	 85.3226318359375
v 1968.638671875	 32.3723030090332	 90.31884765625
v 1968.8299560546875	 32.3450813293457	 95.3145751953125
v 1969.0211181640625	 32.3178596496582	 100.310302734375
v 1969.2119140625	 32.285552978515625	 105.3065185546875
v 1969.40234375	 32.246673583984375	 110.30224609375
v 1969.5926513671875	 32.20389938354492	 115.298828125
v 1969.782470703125	 32.1572380065918	 120.2947998046875
v 1969.971923828125	 32.10956573486328	 125.2899169921875
v 1970.1611328125	 32.06391906738281	 130.2864990234375
v 1970.35009765625	 32.025020599365234	 135.2845458984375
v 1970.5384521484375	 31.98795509338379	 140.2784423828125
v 1970.7264404296875	 31.960025787353516	 145.2740478515625
v 1970.914306640625	 31.93667984008789	 150.2728271484375
v 1971.1014404296875	 31.921138763427734	 155.2674560546875
v 1971.2882080078125	 31.909486770629883	 160.2615966796875
v 1971.4747314453125	 31.898832321166992	 165.2601318359375
v 1971.6607666015625	 31.891368865966797	 170.2574462890625
v 1971.84619140625	 31.883268356323242	 175.249755859375
v 1972.0313720703125	 31.875486373901367	 180.2476806640625
v 1972.2161865234375	 31.867704391479492	 185.248046875
v 1972.4002685546875	 31.85603141784668	 190.2392578125
v 1972.584228515625	 31.847326278686523	 195.2374267578125
v 1972.767822265625	 31.835649490356445	 200.2388916015625
v 1972.95068359375	 31.824005126953125	 205.2305908203125
v 1973.1334228515625	 31.812339782714844	 210.2286376953125
v 1973.31591796875	 31.8006649017334	 215.2288818359375
v 1973.497802734375	 31.78988265991211	 220.2220458984375
v 1973.6796875	 31.781246185302734	 225.219970703125
v 1973.8612060546875	 31.773468017578125	 230.2188720703125
v 1974.04248046875	 31.766536712646484	 235.2135009765625
v 1974.2235107421875	 31.762645721435547	 240.2115478515625
v 1974.404296875	 31.762645721435547	 245.208984375
v 1974.5849609375	 31.762645721435547	 250.2049560546875
v 1974.765380859375	 31.762643814086914	 255.202880859375
v 1974.9456787109375	 31.766536712646484	 260.1995849609375
v 1975.1258544921875	 31.770427703857422	 265.1966552734375
v 1975.3057861328125	 31.775074005126953	 270.1939697265625
v 1975.4857177734375	 31.782100677490234	 275.1907958984375
v 1975.66552734375	 31.785991668701172	 280.1885986328125
v 1975.84521484375	 31.79060173034668	 285.1846923828125
v 1976.0247802734375	 31.794483184814453	 290.1822509765625
v 1976.2044677734375	 31.797664642333984	 295.1800537109375
v 1976.3839111328125	 31.801555633544922	 300.1749267578125
v 1976.5634765625	 31.80544662475586	 305.1739501953125
v 1976.742919921875	 31.80544662475586	 310.171630859375
v 1976.92236328125	 31.809337615966797	 315.1650390625
v 1977.10205078125	 31.813230514526367	 320.1656494140625
v 1977.2816162109375	 31.813230514526367	 325.163330078125
v 1977.4610595703125	 31.817121505737305	 330.1552734375
v 1977.6409912109375	 31.813230514526367	 335.1573486328125
v 1977.82080078125	 31.813230514526367	 340.1549072265625
v 1978.00048828125	 31.813230514526367	 345.14599609375
v 1978.1807861328125	 31.813230514526367	 350.1485595703125
v 1978.3609619140625	 31.813230514526367	 355.1470947265625
v 1978.5411376953125	 31.813230514526367	 360.1383056640625
v 1978.721923828125	 31.813230514526367	 365.138916015625
v 1978.9027099609375	 31.809337615966797	 370.138916015625
v 1979.0836181640625	 31.80544662475586	 375.1319580078125
v 1979.264892578125	 31.801555633544922	 380.1268310546875
v 1979.44677734375	 31.793773651123047	 385.1302490234375
v 1979.628662109375	 31.785497665405273	 390.1268310546875
v 1979.8106689453125	 31.77387046813965	 395.1151123046875
v 1979.99365234375	 31.75875473022461	 400.1173095703125
v 1980.177001953125	 31.746618270874023	 405.1195068359375
v 1980.3604736328125	 31.731517791748047	 410.114501953125
v 1980.5443115234375	 31.719844818115234	 415.102783203125
v 1980.729248046875	 31.708171844482422	 420.1033935546875
v 1980.9149169921875	 31.700389862060547	 425.1063232421875
v 1981.1009521484375	 31.696094512939453	 430.103759765625
v 1981.2874755859375	 31.692228317260742	 435.096923828125
v 1981.4747314453125	 31.688716888427734	 440.0865478515625
v 1981.6627197265625	 31.688716888427734	 445.0811767578125
v 1981.851806640625	 31.688716888427734	 450.0833740234375
v 1982.04150390625	 31.68903923034668	 455.0831298828125
v 1982.2318115234375	 31.692607879638672	 460.0810546875
v 1982.4229736328125	 31.69649887084961	 465.0771484375
v 1982.6148681640625	 31.700389862060547	 470.0728759765625
v 1982.8074951171875	 31.700389862060547	 475.0684814453125
v 1983.0009765625	 31.704280853271484	 480.0638427734375
v 1983.1953125	 31.704511642456055	 485.0594482421875
v 1983.3905029296875	 31.708171844482422	 490.0550537109375
v 1983.586669921875	 31.708171844482422	 495.0518798828125
v 1983.78369140625	 31.708171844482422	 500.0487060546875
v 1983.9815673828125	 31.708171844482422	 505.045166015625
v 1984.180419921875	 31.708171844482422	 510.0406494140625
v 1984.380126953125	 31.708171844482422	 515.0352783203125
v 1984.5806884765625	 31.708171844482422	 520.02783203125
v 1984.7821044921875	 31.708171844482422	 525.017333984375
v 1984.9849853515625	 31.71206283569336	 530.0198974609375
v 1985.188720703125	 31.712135314941406	 535.018798828125
v 1985.3931884765625	 31.719844818115234	 540.012451171875
v 1985.598388671875	 31.72374153137207	 545.001220703125
v 1985.80517578125	 31.731536865234375	 550.004638671875
v 1986.0125732421875	 31.74319076538086	 554.998046875
v 1986.2208251953125	 31.758726119995117	 559.992431640625
v 1986.4300537109375	 31.77817153930664	 564.990234375
v 1986.6397705078125	 31.797597885131836	 569.982666015625
v 1986.8505859375	 31.8248233795166	 574.9794921875
v 1987.0621337890625	 31.859737396240234	 579.976318359375
v 1987.274169921875	 31.8985595703125	 584.965087890625
v 1987.4876708984375	 31.941364288330078	 589.96533203125
v 1987.7021484375	 31.991777420043945	 594.96240234375
v 1987.9176025390625	 32.04247283935547	 599.95751953125
v 1988.1343994140625	 32.09690856933594	 604.952392578125
v 1988.3526611328125	 32.15134048461914	 609.947265625
v 1988.5726318359375	 32.2055549621582	 614.9423828125
v 1988.7943115234375	 32.25605010986328	 619.93505859375
v 1989.018310546875	 32.2990608215332	 624.92919921875
v 1989.244873046875	 32.33434295654297	 629.92578125
v 1989.4742431640625	 32.365135192871094	 634.919921875
v 1989.706787109375	 32.38487243652344	 639.912109375
v 1989.943603515625	 32.40041732788086	 644.906982421875
v 1990.1849365234375	 32.408180236816406	 649.90234375
v 1990.4293212890625	 32.40856170654297	 654.892822265625
v 1990.6748046875	 32.40856170654297	 659.88671875
v 1990.9173583984375	 32.400779724121094	 664.881591796875
v 1991.150634765625	 32.38910675048828	 669.87646484375
v 1991.365234375	 32.37015151977539	 674.871337890625
v 1991.5494384765625	 32.34682083129883	 679.86669921875
v 1991.69140625	 32.312339782714844	 684.8642578125
v 1991.788818359375	 32.263126373291016	 689.86279296875
v 1991.8477783203125	 32.20394515991211	 694.86181640625
v 1991.876953125	 32.13056564331055	 699.861083984375
v 1991.8856201171875	 32.04551696777344	 704.8603515625
v 1991.8826904296875	 31.948261260986328	 709.859375
v 1991.8758544921875	 31.847103118896484	 714.85888671875
v 1991.8729248046875	 31.738771438598633	 719.85595703125
v 1991.88037109375	 31.63316535949707	 724.855224609375
v 1991.901611328125	 31.52482032775879	 729.853515625
v 1991.938232421875	 31.423097610473633	 734.852783203125
v 1991.990478515625	 31.32196617126465	 739.85107421875
v 1992.057861328125	 31.228355407714844	 744.850830078125
v 1992.1395263671875	 31.135234832763672	 749.848876953125
v 1992.234375	 31.04909324645996	 754.845703125
v 1992.3414306640625	 30.963464736938477	 759.847412109375
v 1992.45849609375	 30.883935928344727	 764.842529296875
v 1992.5838623046875	 30.807266235351562	 769.84423828125
v 1992.716064453125	 30.73337173461914	 774.841064453125
v 1992.85400390625	 30.663375854492188	 779.83740234375
v 1992.996826171875	 30.597257614135742	 784.8349609375
v 1993.1439208984375	 30.538352966308594	 789.8330078125
v 1993.294677734375	 30.484466552734375	 794.830810546875
v 1993.4486083984375	 30.437131881713867	 799.82861328125
v 1993.6053466796875	 30.40145492553711	 804.826416015625
v 1993.7645263671875	 30.374225616455078	 809.82421875
v 1993.92578125	 30.354774475097656	 814.822509765625
v 1994.0888671875	 30.343107223510742	 819.8212890625
v 1994.2535400390625	 30.3424129486084	 824.817138671875
v 1994.4195556640625	 30.3424129486084	 829.813720703125
v 1994.5869140625	 30.3424129486084	 834.81103515625
v 1994.7552490234375	 30.346303939819336	 839.8095703125
v 1994.924560546875	 30.350194931030273	 844.806396484375
v 1995.0948486328125	 30.35797691345215	 849.802978515625
v 1995.26611328125	 30.368873596191406	 854.80029296875
v 1995.438232421875	 30.381322860717773	 859.798095703125
v 1995.611328125	 30.398468017578125	 864.794921875
v 1995.78515625	 30.4155330657959	 869.7919921875
v 1995.9599609375	 30.434978485107422	 874.78955078125
v 1996.1356201171875	 30.45831298828125	 879.78662109375
v 1996.3121337890625	 30.481651306152344	 884.7841796875
v 1996.4896240234375	 30.511911392211914	 889.780517578125
v 1996.6678466796875	 30.54690170288086	 894.776611328125
v 1996.84716796875	 30.585796356201172	 899.77490234375
v 1997.02734375	 30.632471084594727	 904.7724609375
v 1997.20849609375	 30.686017990112305	 909.768798828125
v 1997.3907470703125	 30.74432945251465	 914.76416015625
v 1997.573974609375	 30.805606842041016	 919.76025390625
v 1997.758544921875	 30.868764877319336	 924.757568359375
v 1997.9442138671875	 30.93099594116211	 929.75537109375
v 1998.1312255859375	 30.993213653564453	 934.751953125
v 1998.3194580078125	 31.051532745361328	 939.748046875
v 1998.509033203125	 31.103055953979492	 944.74267578125
v 1998.699951171875	 31.149728775024414	 949.740234375
v 1998.892333984375	 31.188629150390625	 954.73876953125
v 1999.0859375	 31.216867446899414	 959.73486328125
v 1999.281005859375	 31.237354278564453	 964.7294921875
v 1999.4776611328125	 31.245136260986328	 969.72705078125
v 1999.67578125	 31.238426208496094	 974.724365234375
v 1999.8756103515625	 31.216182708740234	 979.720458984375
v 2000.0771484375	 31.166738510131836	 984.716064453125
v 2000.2806396484375	 31.094072341918945	 989.70849609375
v 2000.4871826171875	 30.990612030029297	 994.70361328125
v 2000.7027587890625	 30.84979248046875	 999.700439453125
v 2000.93896484375	 30.67620277404785	 1004.690673828125
v 2001.21923828125	 30.4719181060791	 1009.681640625
v 2001.5753173828125	 30.245258331298828	 1014.6640625
v 2002.02685546875	 30.010391235351562	 1019.638671875
v 2002.5693359375	 29.77886390686035	 1024.605224609375
v 2003.2015380859375	 29.558074951171875	 1029.56103515625
v 2003.9288330078125	 29.35032081604004	 1034.50390625
v 2004.76171875	 29.161869049072266	 1039.4306640625
v 2005.717041015625	 28.994548797607422	 1044.33544921875
v 2006.8037109375	 28.843978881835938	 1049.212890625
v 2008.0157470703125	 28.710554122924805	 1054.06201171875
v 2009.3409423828125	 28.595441818237305	 1058.881591796875
v 2010.7623291015625	 28.494586944580078	 1063.67333984375
v 2012.260986328125	 28.408437728881836	 1068.442626953125
v 2013.815673828125	 28.33697509765625	 1073.194091796875
v 2015.40869140625	 28.279081344604492	 1077.93359375
v 2017.023681640625	 28.22828483581543	 1082.665283203125
v 2018.645751953125	 28.18912696838379	 1087.394287109375
v 2020.2593994140625	 28.158029556274414	 1092.126953125
v 2021.851318359375	 28.132816314697266	 1096.8662109375
v 2023.4073486328125	 28.108850479125977	 1101.6181640625
v 2024.9073486328125	 28.088348388671875	 1106.38720703125
v 2026.3226318359375	 28.070039749145508	 1111.182861328125
v 2027.5992431640625	 28.05440902709961	 1116.01708984375
v 2028.660888671875	 28.039291381835938	 1120.902099609375
v 2029.44384765625	 28.027236938476562	 1125.83935546875
v 2029.931396484375	 28.019454956054688	 1130.813720703125
v 2030.2032470703125	 28.01556396484375	 1135.80517578125
v 2030.373291015625	 28.022571563720703	 1140.80078125
v 2030.5059814453125	 28.0311279296875	 1145.798095703125
v 2030.629150390625	 28.0458984375	 1150.7958984375
v 2030.7540283203125	 28.065345764160156	 1155.7939453125
v 2030.8824462890625	 28.080904006958008	 1160.792724609375
v 2031.011962890625	 28.100353240966797	 1165.79150390625
v 2031.1405029296875	 28.120349884033203	 1170.7890625
v 2031.2672119140625	 28.143150329589844	 1175.78955078125
v 2031.39111328125	 28.15870475769043	 1180.787109375
v 2031.51171875	 28.17816162109375	 1185.78759765625
v 2031.6282958984375	 28.19920539855957	 1190.78369140625
v 2031.7408447265625	 28.220945358276367	 1195.783203125
v 2031.8487548828125	 28.243452072143555	 1200.783935546875
v 2031.951904296875	 28.267642974853516	 1205.783935546875
v 2032.0499267578125	 28.290979385375977	 1210.781982421875
v 2032.142578125	 28.31821060180664	 1215.780517578125
v 2032.2296142578125	 28.348480224609375	 1220.77978515625
v 2032.3114013671875	 28.380464553833008	 1225.779296875
v 2032.38818359375	 28.418514251708984	 1230.779052734375
v 2032.46044921875	 28.457414627075195	 1235.77783203125
v 2032.528564453125	 28.50020980834961	 1240.77685546875
v 2032.5927734375	 28.54991340637207	 1245.77587890625
v 2032.6533203125	 28.600494384765625	 1250.775634765625
v 2032.7103271484375	 28.654966354370117	 1255.775390625
v 2032.7642822265625	 28.709444046020508	 1260.775634765625
v 2032.8150634765625	 28.7639102935791	 1265.77490234375
v 2032.8629150390625	 28.81838035583496	 1270.774658203125
v 2032.9080810546875	 28.87373161315918	 1275.774658203125
v 2032.950439453125	 28.931215286254883	 1280.774169921875
v 2032.9903564453125	 28.985689163208008	 1285.774169921875
v 2033.0277099609375	 29.041038513183594	 1290.7734375
v 2033.0626220703125	 29.094619750976562	 1295.7724609375
v 2033.0953369140625	 29.141677856445312	 1300.77197265625
v 2033.1256103515625	 29.181106567382812	 1305.772216796875
v 2033.15380859375	 29.209228515625	 1310.771728515625
v 2033.1800537109375	 29.228683471679688	 1315.771484375
v 2033.2044677734375	 29.24124526977539	 1320.770751953125
v 2033.2274169921875	 29.248130798339844	 1325.769775390625
v 2033.2491455078125	 29.249027252197266	 1330.769287109375
v 2033.27001953125	 29.249027252197266	 1335.76806640625
v 2033.2901611328125	 29.249027252197266	 1340.767578125
v 2033.31005859375	 29.252918243408203	 1345.76708984375
v 2033.3299560546875	 29.264591217041016	 1350.766357421875
v 2033.35009765625	 29.351579666137695	 1355.76513671875
v 2033.370849609375	 29.500808715820312	 1360.764892578125
v 2033.392333984375	 29.80872344970703	 1365.7646484375
v 2033.4150390625	 29.9851016998291	 1370.764404296875
v 2033.43896484375	 30.09839630126953	 1375.7626953125
v 2033.4644775390625	 30.258073806762695	 1380.7607421875
v 2033.4915771484375	 30.357328414916992	 1385.75927734375
v 2033.5206298828125	 30.47312355041504	 1390.75927734375
v 2033.5511474609375	 30.597352981567383	 1395.759765625
v 2033.58251953125	 30.736600875854492	 1400.758056640625
v 2033.6141357421875	 30.855255126953125	 1405.755615234375
v 2033.6456298828125	 30.969053268432617	 1410.755859375
v 2033.676513671875	 31.091581344604492	 1415.756103515625
v 2033.706298828125	 31.21601104736328	 1420.75244140625
v 2033.73486328125	 31.34060287475586	 1425.755859375
v 2033.7618408203125	 31.457256317138672	 1430.75146484375
v 2033.786865234375	 31.57400894165039	 1435.75341796875
v 2033.809814453125	 31.69552230834961	 1440.749755859375
v 2033.83056640625	 31.81914520263672	 1445.75341796875
v 2033.848876953125	 31.928979873657227	 1450.748046875
v 2033.8648681640625	 31.929960250854492	 1455.751953125
v 2033.8780517578125	 31.929960250854492	 1460.748779296875
v 2033.8887939453125	 31.929960250854492	 1465.74658203125
v 2033.896728515625	 31.928987503051758	 1470.75048828125
v 2033.9019775390625	 31.929960250854492	 1475.74951171875
v 2033.904541015625	 31.924705505371094	 1480.7451171875
v 2033.9044189453125	 31.92896842956543	 1485.745361328125
v 2033.9014892578125	 31.929960250854492	 1490.74853515625
v 2033.8958740234375	 31.929960250854492	 1495.752197265625
v 2033.8875732421875	 31.913442611694336	 1500.748291015625
v 2033.8768310546875	 31.915380477905273	 1505.7470703125
v 2033.86376953125	 31.91927146911621	 1510.7470703125
v 2033.8486328125	 31.929960250854492	 1515.747802734375
v 2033.8314208984375	 31.929960250854492	 1520.74853515625
v 2033.812255859375	 31.929960250854492	 1525.75
v 2033.791259765625	 31.929960250854492	 1530.7509765625
v 2033.7684326171875	 31.929960250854492	 1535.75146484375
v 2033.743896484375	 31.929960250854492	 1540.751953125
v 2033.7176513671875	 31.929960250854492	 1545.75244140625
v 2033.689697265625	 31.929960250854492	 1550.752685546875
v 2033.6600341796875	 31.929960250854492	 1555.75390625
v 2033.6287841796875	 31.929960250854492	 1560.7548828125
v 2033.595703125	 31.929960250854492	 1565.75634765625
v 2033.5609130859375	 31.929960250854492	 1570.75732421875
v 2033.5244140625	 31.929960250854492	 1575.75830078125
v 2033.486083984375	 31.929960250854492	 1580.75732421875
v 2033.44580078125	 31.929960250854492	 1585.7548828125
v 2033.4034423828125	 31.928041458129883	 1590.75341796875
v 2033.35888671875	 31.929960250854492	 1595.759765625
v 2033.31201171875	 31.929960250854492	 1600.762939453125
v 2033.2626953125	 31.929960250854492	 1605.759521484375
v 2033.2103271484375	 31.929960250854492	 1610.755859375
v 2033.1546630859375	 31.941635131835938	 1615.765869140625
v 2033.09521484375	 31.941635131835938	 1620.751953125
v 2033.0308837890625	 31.941635131835938	 1625.767333984375
v 2032.960693359375	 31.941635131835938	 1630.761474609375
v 2032.882568359375	 31.941635131835938	 1635.751953125
v 2032.79345703125	 31.941635131835938	 1640.756591796875
v 2032.688720703125	 31.941635131835938	 1645.76171875
v 2032.56005859375	 31.941635131835938	 1650.758544921875
v 2032.3890380859375	 31.932893753051758	 1655.74853515625
v 2032.1195068359375	 31.929960250854492	 1660.7421875
v 2031.369873046875	 31.929960250854492	 1665.66552734375
v 2028.80615234375	 31.941635131835938	 1669.890380859375
v 2024.358642578125	 31.941635131835938	 1672.02587890625
v 2019.4034423828125	 31.95330810546875	 1672.65234375
v 2014.4122314453125	 31.949417114257812	 1672.89501953125
v 2009.412109375	 31.9432373046875	 1673.05126953125
v 2004.4166259765625	 31.935470581054688	 1673.1904296875
v 1999.42431640625	 31.929960250854492	 1673.328125
v 1994.42529296875	 31.922178268432617	 1673.4697265625
v 1989.4271240234375	 31.91828727722168	 1673.615966796875
v 1984.4215087890625	 31.91828727722168	 1673.767333984375
v 1979.423828125	 31.920530319213867	 1673.924072265625
v 1974.4332275390625	 31.926069259643555	 1674.084228515625
v 1969.4404296875	 31.93385124206543	 1674.247802734375
v 1964.43701171875	 31.943822860717773	 1674.41455078125
v 1959.442626953125	 31.955476760864258	 1674.58349609375
v 1954.4429931640625	 31.96714973449707	 1674.753662109375
v 1949.4483642578125	 31.972763061523438	 1674.92529296875
v 1944.4432373046875	 31.976654052734375	 1675.0986328125
v 1939.453125	 31.972763061523438	 1675.272216796875
v 1934.454833984375	 31.964981079101562	 1675.44677734375
v 1929.451416015625	 31.958953857421875	 1675.6220703125
v 1924.45947265625	 31.95330810546875	 1675.7978515625
v 1919.4635009765625	 31.949417114257812	 1675.9736328125
v 1914.4647216796875	 31.949417114257812	 1676.150390625
v 1909.4644775390625	 31.95330810546875	 1676.327392578125
v 1904.46923828125	 31.957199096679688	 1676.50439453125
v 1899.4732666015625	 31.9631404876709	 1676.68115234375
v 1894.47607421875	 31.970909118652344	 1676.858154296875
v 1889.478271484375	 31.980545043945312	 1677.03564453125
v 1884.480224609375	 31.99034881591797	 1677.21240234375
v 1879.48291015625	 32	 1677.38916015625
v 1874.486083984375	 32.00978088378906	 1677.566162109375
v 1869.4888916015625	 32.01845169067383	 1677.74267578125
v 1864.491455078125	 32.02532196044922	 1677.91845703125
v 1859.4942626953125	 32.03309631347656	 1678.094482421875
v 1854.4976806640625	 32.038909912109375	 1678.270263671875
v 1849.5010986328125	 32.04280090332031	 1678.445068359375
v 1844.503173828125	 32.04669189453125	 1678.6201171875
v 1839.50537109375	 32.04669189453125	 1678.794189453125
v 1834.5081787109375	 32.05058288574219	 1678.9677734375
v 1829.51171875	 32.04669189453125	 1679.14111328125
v 1824.51611328125	 32.04669189453125	 1679.314208984375
v 1819.517822265625	 32.04669189453125	 1679.486328125
v 1814.5194091796875	 32.04280090332031	 1679.65869140625
v 1809.5220947265625	 32.04093933105469	 1679.82958984375
v 1804.5262451171875	 32.038909912109375	 1680.0009765625
v 1799.530029296875	 32.03501892089844	 1680.17138671875
v 1794.5303955078125	 32.0311279296875	 1680.341796875
v 1789.53271484375	 32.025245666503906	 1680.510986328125
v 1784.5379638671875	 32.01765823364258	 1680.6796875
v 1779.53955078125	 32.01167297363281	 1680.84814453125
v 1774.5404052734375	 32.002105712890625	 1681.015869140625
v 1769.54541015625	 31.994338989257812	 1681.18310546875
v 1764.54736328125	 31.98443603515625	 1681.34912109375
v 1759.548095703125	 31.976654052734375	 1681.514892578125
v 1754.55615234375	 31.9688720703125	 1681.6796875
v 1749.552978515625	 31.959348678588867	 1681.843994140625
v 1744.5592041015625	 31.95159339904785	 1682.007080078125
v 1739.557861328125	 31.943803787231445	 1682.16943359375
v 1734.5650634765625	 31.93604850769043	 1682.330078125
v 1729.5623779296875	 31.928258895874023	 1682.490478515625
v 1724.5687255859375	 31.91828727722168	 1682.6494140625
v 1719.5704345703125	 31.910505294799805	 1682.80712890625
v 1714.570068359375	 31.901052474975586	 1682.96435546875
v 1709.5728759765625	 31.893278121948242	 1683.120849609375
v 1704.5767822265625	 31.885509490966797	 1683.2763671875
v 1699.5799560546875	 31.879377365112305	 1683.43115234375
v 1694.58154296875	 31.879377365112305	 1683.5859375
v 1689.5823974609375	 31.881004333496094	 1683.74072265625
v 1684.585205078125	 31.88715934753418	 1683.895751953125
v 1679.5916748046875	 31.898832321166992	 1684.052001953125
v 1674.5904541015625	 31.91210174560547	 1684.2099609375
v 1669.592041015625	 31.926069259643555	 1684.37109375
v 1664.5955810546875	 31.939315795898438	 1684.537841796875
v 1659.6005859375	 31.950969696044922	 1684.712158203125
v 1654.60302734375	 31.961090087890625	 1684.902099609375
v 1649.6082763671875	 31.9688720703125	 1685.1171875
v 1644.61865234375	 31.972763061523438	 1685.384765625
v 1639.635009765625	 31.976654052734375	 1685.77685546875
v 1634.6829833984375	 31.980545043945312	 1686.455078125
v 1629.8446044921875	 31.980545043945312	 1687.691650390625
v 1625.41455078125	 31.980545043945312	 1689.9736328125
v 1621.85888671875	 31.976654052734375	 1693.459228515625
v 1619.764404296875	 31.968992233276367	 1697.968505859375
v 1619.0806884765625	 31.96143913269043	 1702.910400390625
v 1618.868408203125	 31.953657150268555	 1707.909912109375
v 1618.7960205078125	 31.945905685424805	 1712.902587890625
v 1618.7886962890625	 31.941635131835938	 1717.900390625
v 1618.818603515625	 31.937742233276367	 1722.901123046875
v 1618.8712158203125	 31.937742233276367	 1727.90283203125
v 1618.938720703125	 31.937742233276367	 1732.90478515625
v 1619.016845703125	 31.941635131835938	 1737.90478515625
v 1619.1026611328125	 31.945526123046875	 1742.9013671875
v 1619.194580078125	 31.952919006347656	 1747.900390625
v 1619.291259765625	 31.961090087890625	 1752.89990234375
v 1619.3916015625	 31.972375869750977	 1757.89990234375
v 1619.494873046875	 31.987939834594727	 1762.90087890625
v 1619.6005859375	 32.003509521484375	 1767.90234375
v 1619.7078857421875	 32.025306701660156	 1772.89794921875
v 1619.816650390625	 32.049774169921875	 1777.89599609375
v 1619.926513671875	 32.0770149230957	 1782.896728515625
v 1620.0369873046875	 32.104652404785156	 1787.8955078125
v 1620.14794921875	 32.135772705078125	 1792.8935546875
v 1620.2591552734375	 32.16649627685547	 1797.89453125
v 1620.3702392578125	 32.19412612915039	 1802.890869140625
v 1620.48193359375	 32.22093963623047	 1807.890625
v 1620.5947265625	 32.24081039428711	 1812.888916015625
v 1620.708740234375	 32.26026153564453	 1817.887451171875
v 1620.8245849609375	 32.27582550048828	 1822.88671875
v 1620.942626953125	 32.28793716430664	 1827.884033203125
v 1621.063232421875	 32.299156188964844	 1832.88330078125
v 1621.1865234375	 32.30739212036133	 1837.8818359375
v 1621.3131103515625	 32.31906509399414	 1842.87939453125
v 1621.443115234375	 32.33073806762695	 1847.87939453125
v 1621.5765380859375	 32.34581756591797	 1852.87548828125
v 1621.714111328125	 32.36527633666992	 1857.876220703125
v 1621.8555908203125	 32.38471603393555	 1862.8720703125
v 1622.00146484375	 32.408050537109375	 1867.869384765625
v 1622.15185546875	 32.43537902832031	 1872.87060546875
v 1622.306640625	 32.46639633178711	 1877.8642578125
v 1622.4661865234375	 32.49751663208008	 1882.86181640625
v 1622.630859375	 32.53199768066406	 1887.86181640625
v 1622.80029296875	 32.56697463989258	 1892.856689453125
v 1622.9747314453125	 32.60196304321289	 1897.852294921875
v 1623.154541015625	 32.63365936279297	 1902.850341796875
v 1623.3397216796875	 32.6641960144043	 1907.849365234375
v 1623.5299072265625	 32.688106536865234	 1912.843505859375
v 1623.7255859375	 32.70753860473633	 1917.83837890625
v 1623.9261474609375	 32.72373580932617	 1922.8349609375
v 1624.1314697265625	 32.738651275634766	 1927.832763671875
v 1624.341064453125	 32.7470817565918	 1932.828369140625
v 1624.554443359375	 32.75486373901367	 1937.822265625
v 1624.7718505859375	 32.76264572143555	 1942.81689453125
v 1624.99267578125	 32.77042770385742	 1947.8125
v 1625.216796875	 32.7774658203125	 1952.808349609375
v 1625.444091796875	 32.782100677490234	 1957.804443359375
v 1625.674072265625	 32.78988265991211	 1962.7998046875
v 1625.90673828125	 32.79377365112305	 1967.79296875
v 1626.1417236328125	 32.80072784423828	 1972.787109375
v 1626.3792724609375	 32.804595947265625	 1977.78125
v 1626.6187744140625	 32.80544662475586	 1982.77587890625
v 1626.8602294921875	 32.8093376159668	 1987.7705078125
v 1627.1033935546875	 32.8093376159668	 1992.7646484375
v 1627.34814453125	 32.8093376159668	 1997.75927734375
v 1627.594482421875	 32.8093376159668	 2002.75390625
v 1627.842041015625	 32.8093376159668	 2007.747314453125
v 1628.0908203125	 32.8093376159668	 2012.74072265625
v 1628.340576171875	 32.81219482421875	 2017.734375
v 1628.59130859375	 32.813228607177734	 2022.728515625
v 1628.8428955078125	 32.81711959838867	 2027.721923828125
v 1629.094970703125	 32.81711959838867	 2032.7158203125
v 1629.34765625	 32.814361572265625	 2037.708984375
v 1629.6007080078125	 32.8093376159668	 2042.70263671875
v 1629.85400390625	 32.79884338378906	 2047.697265625
v 1630.107421875	 32.797664642333984	 2052.69091796875
l 1 2
l 2 3
l 3 4
l 4 5
l 5 6
l 6 7
l 7 8
l 8 9
l 9 10
l 10 11
l 11 12
l 12 13
l 13 14
l 14 15
l 15 16
l 16 17
l 17 18
l 18 19
l 19 20
l 20 21
l 21 22
l 22 23
l 23 24
l 24 25
l 25 26
l 26 27
l 27 28
l 28 29
l 29 30
l 30 31
l 31 32
l 32 33
l 33 34
l 34 35
l 35 36
l 36 37
l 37 38
l 38 39
l 39 40
l 40 41
l 41 42
l 42 43
l 43 44
l 44 45
l 45 46
l 46 47
l 47 48
l 48 49
l 49 50
l 50 51
l 51 52
l 52 53
l 53 54
l 54 55
l 55 56
l 56 57
l 57 58
l 58 59
l 59 60
l 60 61
l 61 62
l 62 63
l 63 64
l 64 65
l 65 66
l 66 67
l 67 68
l 68 69
l 69 70
l 70 71
l 71 72
l 72 73
l 73 74
l 74 75
l 75 76
l 76 77
l 77 78
l 78 79
l 79 80
l 80 81
l 81 82
l 82 83
l 83 84
l 84 85
l 85 86
l 86 87
l 87 88
l 88 89
l 89 90
l 90 91
l 91 92
l 92 93
l 93 94
l 94 95
l 95 96
l 96 97
l 97 98
l 98 99
l 99 100
l 100 101
l 101 102
l 102 103
l 103 104
l 104 105
l 105 106
l 106 107
l 107 108
l 108 109
l 109 110
l 110 111
l 111 112
l 112 113
l 113 114
l 114 115
l 115 116
l 116 117
l 117 118
l 118 119
l 119 120
l 120 121
l 121 122
l 122 123
l 123 124
l 124 125
l 125 126
l 126 127
l 127 128
l 128 129
l 129 130
l 130 131
l 131 132
l 132 133
l 133 134
l 134 135
l 135 136
l 136 137
l 137 138
l 138 139
l 139 140
l 140 141
l 141 142
l 142 143
l 143 144
l 144 145
l 145 146
l 146 147
l 147 148
l 148 149
l 149 150
l 150 151
l 151 152
l 152 153
l 153 154
l 154 155
l 155 156
l 156 157
l 157 158
l 158 159
l 159 160
l 160 161
l 161 162
l 162 163
l 163 164
l 164 165
l 165 166
l 166 167
l 167 168
l 168 169
l 169 170
l 170 171
l 171 172
l 172 173
l 173 174
l 174 175
l 175 176
l 176 177
l 177 178
l 178 179
l 179 180
l 180 181
l 181 182
l 182 183
l 183 184
l 184 185
l 185 186
l 186 187
l 187 188
l 188 189
l 189 190
l 190 191
l 191 192
l 192 193
l 193 194
l 194 195
l 195 196
l 196 197
l 197 198
l 198 199
l 199 200
l 200 201
l 201 202
l 202 203
l 203 204
l 204 205
l 205 206
l 206 207
l 207 208
l 208 209
l 209 210
l 210 211
l 211 212
l 212 213
l 213 214
l 214 215
l 215 216
l 216 217
l 217 218
l 218 219
l 219 220
l 220 221
l 221 222
l 222 223
l 223 224
l 224 225
l 225 226
l 226 227
l 227 228
l 228 229
l 229 230
l 230 231
l 231 232
l 232 233
l 233 234
l 234 235
l 235 236
l 236 237
l 237 238
l 238 239
l 239 240
l 240 241
l 241 242
l 242 243
l 243 244
l 244 245
l 245 246
l 246 247
l 247 248
l 248 249
l 249 250
l 250 251
l 251 252
l 252 253
l 253 254
l 254 255
l 255 256
l 256 257
l 257 258
l 258 259
l 259 260
l 260 261
l 261 262
l 262 263
l 263 264
l 264 265
l 265 266
l 266 267
l 267 268
l 268 269
l 269 270
l 270 271
l 271 272
l 272 273
l 273 274
l 274 275
l 275 276
l 276 277
l 277 278
l 278 279
l 279 280
l 280 281
l 281 282
l 282 283
l 283 284
l 284 285
l 285 286
l 286 287
l 287 288
l 288 289
l 289 290
l 290 291
l 291 292
l 292 293
l 293 294
l 294 295
l 295 296
l 296 297
l 297 298
l 298 299
l 299 300
l 300 301
l 301 302
l 302 303
l 303 304
l 304 305
l 305 306
l 306 307
l 307 308
l 308 309
l 309 310
l 310 311
l 311 312
l 312 313
l 313 314
l 314 315
l 315 316
l 316 317
l 317 318
l 318 319
l 319 320
l 320 321
l 321 322
l 322 323
l 323 324
l 324 325
l 325 326
l 326 327
l 327 328
l 328 329
l 329 330
l 330 331
l 331 332
l 332 333
l 333 334
l 334 335
l 335 336
l 336 337
l 337 338
l 338 339
l 339 340
l 340 341
l 341 342
l 342 343
l 343 344
l 344 345
l 345 346
l 346 347
l 347 348
l 348 349
l 349 350
l 350 351
l 351 352
l 352 353
l 353 354
l 354 355
l 355 356
l 356 357
l 357 358
l 358 359
l 359 360
l 360 361
l 361 362
l 362 363
l 363 364
l 364 365
l 365 366
l 366 367
l 367 368
l 368 369
l 369 370
l 370 371
l 371 372
l 372 373
l 373 374
l 374 375
l 375 376
l 376 377
l 377 378
l 378 379
l 379 380
l 380 381
l 381 382
l 382 383
l 383 384
l 384 385
l 385 386
l 386 387
l 387 388
l 388 389
l 389 390
l 390 391
l 391 392
l 392 393
l 393 394
l 394 395
l 395 396
l 396 397
l 397 398
l 398 399
l 399 400
l 400 401
l 401 402
l 402 403
l 403 404
l 404 405
l 405 406
l 406 407
l 407 408
l 408 409
l 409 410
l 410 411
l 411 412
l 412 413
l 413 414
l 414 415
l 415 416
l 416 417
l 417 418
l 418 419
l 419 420
l 420 421
l 421 422
l 422 423
l 423 424
l 424 425
l 425 426
l 426 427
l 427 428
l 428 429
l 429 430
l 430 431
l 431 432
l 432 433
l 433 434
l 434 435
l 435 436
l 436 437
l 437 438
l 438 439
l 439 440
l 440 441
l 441 442
l 442 443
l 443 444
l 444 445
l 445 446
l 446 447
l 447 448
l 448 449
l 449 450
l 450 451
l 451 452
l 452 453
l 453 454
l 454 455
l 455 456
l 456 457
l 457 458
l 458 459
l 459 460
l 460 461
l 461 462
l 462 463
l 463 464
l 464 465
l 465 466
l 466 467
l 467 468
l 468 469
l 469 470
l 470 471
l 471 472
l 472 473
l 473 474
l 474 475
l 475 476
l 476 477
l 477 478
l 478 479
l 479 480
l 480 481
l 481 482
l 482 483
l 483 484
l 484 485
l 485 486
l 486 487
l 487 488
l 488 489
l 489 490
l 490 491
l 491 492
l 492 493
l 493 494
l 494 495
l 495 496
l 496 497
l 497 498
l 498 499
l 499 500
l 500 501
l 501 502
l 502 503
l 503 504
l 504 505
l 505 506
l 506 507
l 507 508
l 508 509
l 509 510
l 510 511
l 511 512
l 512 513
l 513 514
l 514 515
l 515 516
l 516 517
l 517 518
l 518 519
l 519 520
l 520 521
l 521 522
l 522 523
l 523 524
l 524 525
l 525 526
l 526 527
l 527 528
l 528 529
l 529 530
l 530 531
l 531 532
l 532 533
l 533 534
l 534 535
l 535 536
l 536 537
l 537 538
l 538 539
l 539 540
l 540 541
l 541 542
l 542 543
l 543 544
l 544 545
l 545 546
l 546 547
l 547 548
l 548 549
l 549 550
l 550 551
l 551 552
l 552 553
l 553 554
l 554 555
l 555 556
l 556 557
l 557 558
l 558 559
l 559 560
l 560 561
l 561 562
l 562 563
l 563 564
l 564 565
l 565 566
l 566 567
l 567 568
l 568 569
l 569 570
l 570 571
l 571 572
l 572 573
l 573 574
l 574 575
l 575 576
l 576 577
l 577 578
l 578 579
l 579 580
l 580 581
l 581 582
l 582 583
l 583 584
l 584 585
l 585 586
l 586 587
l 587 588
l 588 589
l 589 590
l 590 591
l 591 592
l 592 593
l 593 594
l 594 595
l 595 596
l 596 597
l 597 598
l 598 599
l 599 600
l 600 601
l 601 602
l 602 603
l 603 604
l 604 605
l 605 606
l 606 607
l 607 608
l 608 609
l 609 610
l 610 611
l 611 612
l 612 613
l 613 614
l 614 615
l 615 616
l 616 617
l 617 618
l 618 619
l 619 620
l 620 621
l 621 622
l 622 623
l 623 624
l 624 625
l 625 626
l 626 627
l 627 628
l 628 629
l 629 630
l 630 631
l 631 632
l 632 633
l 633 634
l 634 635
l 635 636
l 636 637
l 637 638
l 638 639
l 639 640
l 640 641
l 641 642
l 642 643
l 643 644
l 644 645
l 645 646
l 646 647
l 647 648
l 648 649
l 649 650
l 650 651
l 651 652
l 652 653
l 653 654
l 654 655
l 655 656
l 656 657
l 657 658
l 658 659
l 659 660
l 660 661
l 661 662
l 662 663
l 663 664
l 664 665
l 665 666
l 666 667
l 667 668
l 668 669
l 669 670
l 670 671
l 671 672
l 672 673
l 673 674
l 674 675
l 675 676
l 676 677
l 677 678
l 678 679
l 679 680
l 680 681
l 681 682
l 682 683
l 683 684
l 684 685
l 685 686
l 686 687
l 687 688
l 688 689
l 689 690
l 690 691
l 691 692
l 692 693
l 693 694
l 694 695
l 695 696
l 696 697
l 697 698
l 698 699
l 699 700
l 700 701
l 701 702
l 702 703
l 703 704
l 704 705
l 705 706
l 706 707
l 707 708
l 708 709
l 709 710
l 710 711
l 711 712
l 712 713
l 713 714
l 714 715
l 715 716
l 716 717
l 717 718
l 718 719
l 719 720
l 720 721
l 721 722
l 722 723
l 723 724
l 724 725
l 725 726
l 726 727
l 727 728
l 728 729
l 729 730
l 730 731
l 731 732
l 732 733
l 733 734
l 734 735
l 735 736
l 736 737
l 737 738
l 738 739
l 739 740
l 740 741
l 741 742
l 742 743
l 743 744
l 744 745
l 745 746
l 746 747
l 747 748
l 748 749
l 749 750
l 750 751
l 751 752
l 752 753
l 753 754
l 754 755
l 755 756
l 756 757
l 757 758
l 758 759
l 759 760
l 760 761
l 761 762
l 762 763
l 763 764
l 764 765
l 765 766
l 766 767
l 767 768
l 768 769
l 769 770
l 770 771
l 771 772
l 772 773
l 773 774
l 774 775
l 775 776
l 776 777
l 777 778
l 778 779
l 779 780
l 780 781
l 781 782
l 782 783
l 783 784
l 784 785
l 785 786
l 786 787
l 787 788
l 788 789
l 789 790
l 790 791
l 791 792
l 792 793
l 793 794
