# GE Spline Export primaryRoad02
v -2048.38720703125	 32.17185592651367	 1902.1671142578125
v -2043.3868408203125	 32.16277313232422	 1902.1671142578125
v -2038.3868408203125	 32.155845642089844	 1902.1668701171875
v -2033.3865966796875	 32.149845123291016	 1902.1634521484375
v -2028.3865966796875	 32.144927978515625	 1902.1510009765625
v -2023.3865966796875	 32.14387130737305	 1902.1280517578125
v -2018.3863525390625	 32.14884948730469	 1902.0933837890625
v -2013.3861083984375	 32.157691955566406	 1902.0474853515625
v -2008.3863525390625	 32.17123794555664	 1901.9925537109375
v -2003.3865966796875	 32.17203903198242	 1901.9288330078125
v -1998.3868408203125	 32.179710388183594	 1901.8568115234375
v -1993.3873291015625	 32.189796447753906	 1901.7777099609375
v -1988.3883056640625	 32.19875717163086	 1901.6917724609375
v -1983.3887939453125	 32.21327209472656	 1901.5999755859375
v -1978.3897705078125	 32.22945022583008	 1901.5040283203125
v -1973.3905029296875	 32.240333557128906	 1901.4044189453125
v -1968.3912353515625	 32.25755310058594	 1901.3021240234375
v -1963.3922119140625	 32.29117202758789	 1901.1976318359375
v -1958.3931884765625	 32.33202362060547	 1901.0921630859375
v -1953.3941650390625	 32.35622024536133	 1900.9859619140625
v -1948.3951416015625	 32.3560905456543	 1900.8790283203125
v -1943.3961181640625	 32.3599967956543	 1900.7711181640625
v -1938.3973388671875	 32.37854766845703	 1900.6629638671875
v -1933.3983154296875	 32.39970016479492	 1900.5540771484375
v -1928.3995361328125	 32.42210006713867	 1900.4456787109375
v -1923.4005126953125	 32.4393310546875	 1900.3365478515625
v -1918.4017333984375	 32.442508697509766	 1900.2276611328125
v -1913.4024658203125	 32.44626235961914	 1900.1190185546875
v -1908.4034423828125	 32.450904846191406	 1900.0098876953125
v -1903.4046630859375	 32.455230712890625	 1899.9005126953125
v -1898.4053955078125	 32.47018051147461	 1899.7911376953125
v -1893.4068603515625	 32.47947311401367	 1899.6820068359375
v -1888.4075927734375	 32.49412536621094	 1899.5728759765625
v -1883.4085693359375	 32.50697708129883	 1899.4635009765625
v -1878.4093017578125	 32.51540756225586	 1899.3541259765625
v -1873.4102783203125	 32.53361511230469	 1899.2449951171875
v -1868.4112548828125	 32.55290222167969	 1899.1358642578125
v -1863.4122314453125	 32.56912612915039	 1899.0269775390625
v -1858.4134521484375	 32.59078598022461	 1898.9178466796875
v -1853.4144287109375	 32.60911560058594	 1898.8087158203125
v -1848.4156494140625	 32.62405776977539	 1898.7000732421875
v -1843.4163818359375	 32.639862060546875	 1898.5914306640625
v -1838.4171142578125	 32.65262222290039	 1898.4822998046875
v -1833.4183349609375	 32.66785430908203	 1898.3734130859375
v -1828.4195556640625	 32.67452621459961	 1898.2647705078125
v -1823.4205322265625	 32.67466354370117	 1898.1563720703125
v -1818.4212646484375	 32.6670036315918	 1898.0482177734375
v -1813.4219970703125	 32.658531188964844	 1897.9393310546875
v -1808.4227294921875	 32.6569938659668	 1897.8306884765625
v -1803.4237060546875	 32.654048919677734	 1897.7222900390625
v -1798.4246826171875	 32.64790344238281	 1897.6141357421875
v -1793.4259033203125	 32.64376449584961	 1897.5057373046875
v -1788.4268798828125	 32.647579193115234	 1897.3970947265625
v -1783.4278564453125	 32.646881103515625	 1897.2889404296875
v -1778.4288330078125	 32.65137481689453	 1897.1805419921875
v -1773.4298095703125	 32.68975830078125	 1897.0726318359375
v -1768.4307861328125	 32.704833984375	 1896.9644775390625
v -1763.4317626953125	 32.69929122924805	 1896.8565673828125
v -1758.4324951171875	 32.69847869873047	 1896.7484130859375
v -1753.4334716796875	 32.70240783691406	 1896.6402587890625
v -1748.4345703125	 32.7149658203125	 1896.5318603515625
v -1743.4356689453125	 32.72054672241211	 1896.4244384765625
v -1738.4366455078125	 32.72309875488281	 1896.3165283203125
v -1733.437744140625	 32.73035430908203	 1896.2088623046875
v -1728.4385986328125	 32.727745056152344	 1896.1007080078125
v -1723.4398193359375	 32.73555374145508	 1895.9927978515625
v -1718.4407958984375	 32.74589157104492	 1895.8843994140625
v -1713.4417724609375	 32.749271392822266	 1895.7769775390625
v -1708.4427490234375	 32.74961853027344	 1895.6685791015625
v -1703.4439697265625	 32.74907302856445	 1895.5611572265625
v -1698.44482421875	 32.748905181884766	 1895.4532470703125
v -1693.4456787109375	 32.75308609008789	 1895.3458251953125
v -1688.4466552734375	 32.752357482910156	 1895.2379150390625
v -1683.44775390625	 32.75556945800781	 1895.1297607421875
v -1678.44873046875	 32.767486572265625	 1895.0218505859375
v -1673.449951171875	 32.77666091918945	 1894.9141845703125
v -1668.4508056640625	 32.78812026977539	 1894.8065185546875
v -1663.45166015625	 32.79924774169922	 1894.6990966796875
v -1658.45263671875	 32.808101654052734	 1894.5909423828125
v -1653.4537353515625	 32.82378387451172	 1894.4832763671875
v -1648.45458984375	 32.83363723754883	 1894.3756103515625
v -1643.455810546875	 32.8289909362793	 1894.2681884765625
v -1638.4566650390625	 32.829097747802734	 1894.1602783203125
v -1633.4576416015625	 32.829811096191406	 1894.0526123046875
v -1628.458740234375	 32.83009338378906	 1893.9444580078125
v -1623.4595947265625	 32.83259963989258	 1893.8370361328125
v -1618.4605712890625	 32.83333969116211	 1893.7291259765625
v -1613.4615478515625	 32.838172912597656	 1893.6209716796875
v -1608.4625244140625	 32.84384536743164	 1893.5133056640625
v -1603.4635009765625	 32.85244369506836	 1893.4051513671875
v -1598.4644775390625	 32.86822509765625	 1893.2974853515625
v -1593.4652099609375	 32.87681198120117	 1893.1900634765625
v -1588.4661865234375	 32.88205337524414	 1893.0821533203125
v -1583.4671630859375	 32.89175796508789	 1892.9742431640625
v -1578.4683837890625	 32.893131256103516	 1892.8665771484375
v -1573.4691162109375	 32.8917350769043	 1892.7584228515625
v -1568.470458984375	 32.88563537597656	 1892.6514892578125
v -1563.47119140625	 32.87167739868164	 1892.5435791015625
v -1558.4720458984375	 32.87071228027344	 1892.4354248046875
v -1553.4730224609375	 32.879642486572266	 1892.3275146484375
v -1548.4739990234375	 32.8975715637207	 1892.2193603515625
v -1543.4749755859375	 32.9336051940918	 1892.1114501953125
v -1538.4761962890625	 32.963035583496094	 1892.0037841796875
v -1533.477294921875	 32.95086669921875	 1891.8956298828125
v -1528.4783935546875	 32.919189453125	 1891.7877197265625
v -1523.4794921875	 32.892425537109375	 1891.6805419921875
v -1518.4801025390625	 32.88010025024414	 1891.5723876953125
v -1513.4813232421875	 32.87513732910156	 1891.4644775390625
v -1508.482421875	 32.8691291809082	 1891.3565673828125
v -1503.4832763671875	 32.86583709716797	 1891.2486572265625
v -1498.484130859375	 32.86472702026367	 1891.1407470703125
v -1493.4852294921875	 32.85575866699219	 1891.0328369140625
v -1488.4862060546875	 32.8544807434082	 1890.9246826171875
v -1483.4871826171875	 32.854679107666016	 1890.8165283203125
v -1478.4884033203125	 32.847938537597656	 1890.7078857421875
v -1473.4893798828125	 32.849822998046875	 1890.5997314453125
v -1468.4903564453125	 32.85251998901367	 1890.4918212890625
v -1463.491455078125	 32.85068893432617	 1890.3839111328125
v -1458.4923095703125	 32.8565673828125	 1890.2760009765625
v -1453.4931640625	 32.85724639892578	 1890.1678466796875
v -1448.494140625	 32.855751037597656	 1890.0596923828125
v -1443.4951171875	 32.855777740478516	 1889.9510498046875
v -1438.4962158203125	 32.84134292602539	 1889.8428955078125
v -1433.4971923828125	 32.8411750793457	 1889.7347412109375
v -1428.4981689453125	 32.847713470458984	 1889.6260986328125
v -1423.499267578125	 32.847267150878906	 1889.5179443359375
v -1418.500244140625	 32.857086181640625	 1889.4093017578125
v -1413.5010986328125	 32.854007720947266	 1889.3013916015625
v -1408.5023193359375	 32.847164154052734	 1889.1929931640625
v -1403.5030517578125	 32.84817886352539	 1889.0843505859375
v -1398.504150390625	 32.835594177246094	 1888.9757080078125
v -1393.505126953125	 32.826717376708984	 1888.8668212890625
v -1388.506103515625	 32.821651458740234	 1888.7581787109375
v -1383.5072021484375	 32.809566497802734	 1888.6500244140625
v -1378.5081787109375	 32.805294036865234	 1888.5416259765625
v -1373.5093994140625	 32.795562744140625	 1888.4322509765625
v -1368.5103759765625	 32.778236389160156	 1888.3236083984375
v -1363.5111083984375	 32.775672912597656	 1888.2149658203125
v -1358.5123291015625	 32.772335052490234	 1888.1063232421875
v -1353.51318359375	 32.77054214477539	 1887.9971923828125
v -1348.5140380859375	 32.771324157714844	 1887.8883056640625
v -1343.5150146484375	 32.77381134033203	 1887.7794189453125
v -1338.5162353515625	 32.786373138427734	 1887.6705322265625
v -1333.5172119140625	 32.79414367675781	 1887.5616455078125
v -1328.518310546875	 32.79499435424805	 1887.4522705078125
v -1323.51953125	 32.806121826171875	 1887.3426513671875
v -1318.5205078125	 32.80669021606445	 1887.2335205078125
v -1313.5213623046875	 32.80406188964844	 1887.1239013671875
v -1308.5225830078125	 32.81208801269531	 1887.0145263671875
v -1303.523681640625	 32.81193161010742	 1886.9049072265625
v -1298.5247802734375	 32.815773010253906	 1886.7957763671875
v -1293.5257568359375	 32.82646942138672	 1886.6856689453125
v -1288.5269775390625	 32.83799362182617	 1886.5758056640625
v -1283.5281982421875	 32.848289489746094	 1886.4661865234375
v -1278.5291748046875	 32.85580062866211	 1886.3565673828125
v -1273.5303955078125	 32.85729217529297	 1886.2462158203125
v -1268.5311279296875	 32.872703552246094	 1886.1358642578125
v -1263.5321044921875	 32.88518524169922	 1886.0255126953125
v -1258.5330810546875	 32.88723373413086	 1885.9151611328125
v -1253.5341796875	 32.891334533691406	 1885.8045654296875
v -1248.535400390625	 32.89332580566406	 1885.6942138671875
v -1243.53662109375	 32.897708892822266	 1885.5833740234375
v -1238.53759765625	 32.900604248046875	 1885.4722900390625
v -1233.5386962890625	 32.88484191894531	 1885.3607177734375
v -1228.5399169921875	 32.88914108276367	 1885.2493896484375
v -1223.541015625	 32.90525436401367	 1885.1380615234375
v -1218.5419921875	 32.904563903808594	 1885.0262451171875
v -1213.5440673828125	 32.8198127746582	 1884.9146728515625
v -1208.5462646484375	 32.70177459716797	 1884.8026123046875
v -1203.548583984375	 32.581172943115234	 1884.6903076171875
v -1198.5504150390625	 32.50593948364258	 1884.5780029296875
v -1193.5518798828125	 32.458465576171875	 1884.4656982421875
v -1188.5531005859375	 32.44815444946289	 1884.3531494140625
v -1183.5540771484375	 32.463226318359375	 1884.2398681640625
v -1178.55517578125	 32.487064361572266	 1884.1268310546875
v -1173.5565185546875	 32.52050018310547	 1884.0130615234375
v -1168.5579833984375	 32.57964324951172	 1883.8995361328125
v -1163.5594482421875	 32.63072204589844	 1883.7855224609375
v -1158.560546875	 32.66788864135742	 1883.6710205078125
v -1153.562744140625	 32.748592376708984	 1883.5570068359375
v -1148.5645751953125	 32.83945083618164	 1883.4425048828125
v -1143.5667724609375	 32.944644927978516	 1883.3275146484375
v -1138.5684814453125	 33.030086517333984	 1883.2122802734375
v -1133.5699462890625	 33.04703140258789	 1883.0968017578125
v -1128.5714111328125	 33.01315689086914	 1882.9808349609375
v -1123.5731201171875	 32.93245315551758	 1882.8653564453125
v -1118.5748291015625	 32.87709045410156	 1882.7489013671875
v -1113.576171875	 32.85246658325195	 1882.6326904296875
v -1108.5775146484375	 32.83782196044922	 1882.5162353515625
v -1103.5787353515625	 32.844390869140625	 1882.3992919921875
v -1098.5799560546875	 32.857913970947266	 1882.2823486328125
v -1093.5814208984375	 32.877872467041016	 1882.1651611328125
v -1088.5828857421875	 32.91278839111328	 1882.0489501953125
v -1083.583984375	 32.941490173339844	 1881.9317626953125
v -1078.58544921875	 32.96846008300781	 1881.8150634765625
v -1073.5865478515625	 32.99930191040039	 1881.6990966796875
v -1068.587890625	 33.02172088623047	 1881.5831298828125
v -1063.5892333984375	 33.049072265625	 1881.4678955078125
v -1058.59033203125	 33.07731246948242	 1881.3541259765625
v -1053.5914306640625	 33.10314178466797	 1881.2418212890625
v -1048.5927734375	 33.122825622558594	 1881.1302490234375
v -1043.59375	 33.13520812988281	 1881.0208740234375
v -1038.5948486328125	 33.14498519897461	 1880.9132080078125
v -1033.595947265625	 33.15557098388672	 1880.8077392578125
v -1028.5968017578125	 33.16569900512695	 1880.7044677734375
v -1023.597900390625	 33.17892837524414	 1880.6029052734375
v -1018.5987548828125	 33.192169189453125	 1880.5035400390625
v -1013.5994873046875	 33.20220184326172	 1880.4058837890625
v -1008.6004638671875	 33.21610641479492	 1880.3101806640625
v -1003.6011962890625	 33.22913360595703	 1880.2159423828125
v -998.6019287109375	 33.23302459716797	 1880.1236572265625
v -993.6026611328125	 33.236209869384766	 1880.0328369140625
v -988.603271484375	 33.23757553100586	 1879.9429931640625
v -983.603759765625	 33.243350982666016	 1879.8548583984375
v -978.6043701171875	 33.24992752075195	 1879.7686767578125
v -973.6051025390625	 33.25271987915039	 1879.6837158203125
v -968.605712890625	 33.26145553588867	 1879.5999755859375
v -963.606201171875	 33.27376937866211	 1879.5177001953125
v -958.6068115234375	 33.28113555908203	 1879.4368896484375
v -953.6072998046875	 33.29404067993164	 1879.3577880859375
v -948.6077880859375	 33.3045654296875	 1879.2796630859375
v -943.6082763671875	 33.31043243408203	 1879.2030029296875
v -938.608642578125	 33.31218719482422	 1879.1280517578125
v -933.6090087890625	 33.3080940246582	 1879.0538330078125
v -928.6094970703125	 33.29794692993164	 1878.9810791015625
v -923.6097412109375	 33.286067962646484	 1878.9097900390625
v -918.610107421875	 33.27626419067383	 1878.8406982421875
v -913.610595703125	 33.26848220825195	 1878.7723388671875
v -908.611083984375	 33.26848220825195	 1878.7059326171875
v -903.611328125	 33.26988220214844	 1878.6407470703125
v -898.611572265625	 33.279422760009766	 1878.5770263671875
v -893.61181640625	 33.28982162475586	 1878.5152587890625
v -888.612060546875	 33.292179107666016	 1878.4549560546875
v -883.6123046875	 33.291099548339844	 1878.3961181640625
v -878.612548828125	 33.29177474975586	 1878.3380126953125
v -873.61279296875	 33.29522705078125	 1878.2818603515625
v -868.613037109375	 33.299983978271484	 1878.2261962890625
v -863.6134033203125	 33.30405044555664	 1878.1719970703125
v -858.613525390625	 33.30897903442383	 1878.1187744140625
v -853.6136474609375	 33.319026947021484	 1878.0660400390625
v -848.61376953125	 33.33036804199219	 1878.0137939453125
v -843.6138916015625	 33.342262268066406	 1877.9615478515625
v -838.6141357421875	 33.34984588623047	 1877.9097900390625
v -833.6143798828125	 33.35503387451172	 1877.8585205078125
v -828.6146240234375	 33.36186599731445	 1877.8074951171875
v -823.61474609375	 33.370601654052734	 1877.7554931640625
v -818.6148681640625	 33.37974166870117	 1877.7032470703125
v -813.614990234375	 33.390464782714844	 1877.6505126953125
v -808.615234375	 33.393741607666016	 1877.5972900390625
v -803.615478515625	 33.396217346191406	 1877.5428466796875
v -798.6158447265625	 33.40287399291992	 1877.4866943359375
v -793.6162109375	 33.40576934814453	 1877.4293212890625
v -788.616455078125	 33.406700134277344	 1877.3697509765625
v -783.61669921875	 33.40375900268555	 1877.3087158203125
v -778.616943359375	 33.398921966552734	 1877.2462158203125
v -773.6173095703125	 33.39583206176758	 1877.1817626953125
v -768.61767578125	 33.39283752441406	 1877.1156005859375
v -763.6177978515625	 33.39133834838867	 1877.0474853515625
v -758.6181640625	 33.39299774169922	 1876.9783935546875
v -753.6185302734375	 33.39335250854492	 1876.9078369140625
v -748.6190185546875	 33.40827178955078	 1876.8365478515625
v -743.61962890625	 33.453189849853516	 1876.7635498046875
v -738.6199951171875	 33.49028015136719	 1876.6888427734375
v -733.6204833984375	 33.4893913269043	 1876.6134033203125
v -728.6209716796875	 33.46876525878906	 1876.5372314453125
v -723.6214599609375	 33.45975875854492	 1876.4605712890625
v -718.6219482421875	 33.462432861328125	 1876.3834228515625
v -713.6224365234375	 33.468772888183594	 1876.3052978515625
v -708.6229248046875	 33.470298767089844	 1876.2266845703125
v -703.62353515625	 33.475730895996094	 1876.1475830078125
v -698.6241455078125	 33.47701644897461	 1876.0677490234375
v -693.624755859375	 33.47700500488281	 1875.9884033203125
v -688.625244140625	 33.46975326538086	 1875.9088134765625
v -683.625732421875	 33.46236801147461	 1875.8284912109375
v -678.6263427734375	 33.45816421508789	 1875.7484130859375
v -673.626953125	 33.45136260986328	 1875.6685791015625
v -668.6275634765625	 33.447471618652344	 1875.5894775390625
v -663.6280517578125	 33.440147399902344	 1875.5096435546875
v -658.628662109375	 33.43244934082031	 1875.4302978515625
v -653.629150390625	 33.420021057128906	 1875.3516845703125
v -648.6297607421875	 33.41986846923828	 1875.2735595703125
v -643.6300048828125	 33.41642761230469	 1875.1956787109375
v -638.6307373046875	 33.41792297363281	 1875.1187744140625
v -633.63134765625	 33.42298126220703	 1875.0418701171875
v -628.6318359375	 33.419700622558594	 1874.9656982421875
v -623.6322021484375	 33.41462326049805	 1874.8897705078125
v -618.632568359375	 33.41807556152344	 1874.8148193359375
v -613.6331787109375	 33.41863250732422	 1874.7406005859375
v -608.633544921875	 33.42802047729492	 1874.6668701171875
v -603.6341552734375	 33.437950134277344	 1874.5938720703125
v -598.6346435546875	 33.44517135620117	 1874.5218505859375
v -593.6348876953125	 33.45629119873047	 1874.4508056640625
v -588.6356201171875	 33.472232818603516	 1874.3804931640625
v -583.635986328125	 33.48779296875	 1874.3109130859375
v -578.636474609375	 33.50394821166992	 1874.2425537109375
v -573.6368408203125	 33.520774841308594	 1874.1746826171875
v -568.63720703125	 33.53711700439453	 1874.1077880859375
v -563.6376953125	 33.55328369140625	 1874.0418701171875
v -558.637939453125	 33.56886291503906	 1873.9766845703125
v -553.6383056640625	 33.58657455444336	 1873.9124755859375
v -548.638671875	 33.60405731201172	 1873.8487548828125
v -543.6390380859375	 33.61201858520508	 1873.7857666015625
v -538.639404296875	 33.61967086791992	 1873.7237548828125
v -533.6395263671875	 33.6316032409668	 1873.6617431640625
v -528.6400146484375	 33.637359619140625	 1873.6007080078125
v -523.6402587890625	 33.642337799072266	 1873.5406494140625
v -518.6405029296875	 33.642024993896484	 1873.4805908203125
v -513.6407470703125	 33.6397705078125	 1873.4205322265625
v -508.6412048339844	 33.63533020019531	 1873.3609619140625
v -503.6413879394531	 33.62778091430664	 1873.3018798828125
v -498.6417541503906	 33.62690353393555	 1873.2435302734375
v -493.6419372558594	 33.628910064697266	 1873.1849365234375
v -488.6422424316406	 33.629364013671875	 1873.1268310546875
v -483.6426086425781	 33.62788772583008	 1873.0687255859375
v -478.6427307128906	 33.620967864990234	 1873.0108642578125
v -473.6430969238281	 33.6138801574707	 1872.9537353515625
v -468.6433410644531	 33.609275817871094	 1872.8958740234375
v -463.6435852050781	 33.60511779785156	 1872.8385009765625
v -458.6440734863281	 33.60444259643555	 1872.7808837890625
v -453.6441955566406	 33.60065460205078	 1872.7235107421875
v -448.6445617675781	 33.59014129638672	 1872.6658935546875
v -443.6446228027344	 33.587547302246094	 1872.6085205078125
v -438.6449279785156	 33.58540725708008	 1872.5506591796875
v -433.6452941894531	 33.58563232421875	 1872.4927978515625
v -428.6454772949219	 33.58416748046875	 1872.4346923828125
v -423.6457824707031	 33.58420181274414	 1872.3765869140625
v -418.6459655761719	 33.583831787109375	 1872.3184814453125
v -413.6462707519531	 33.58488082885742	 1872.2598876953125
v -408.6463928222656	 33.59141540527344	 1872.2012939453125
v -403.6468200683594	 33.60560607910156	 1872.1427001953125
v -398.6470031738281	 33.616390228271484	 1872.0838623046875
v -393.6473693847656	 33.62327575683594	 1872.0245361328125
v -388.6475524902344	 33.62604904174805	 1871.9647216796875
v -383.6476745605469	 33.621829986572266	 1871.9053955078125
v -378.6480407714844	 33.61687469482422	 1871.8458251953125
v -373.6482849121094	 33.61006164550781	 1871.7862548828125
v -368.6485900878906	 33.603111267089844	 1871.7266845703125
v -363.6489562988281	 33.603111267089844	 1871.6668701171875
v -358.6489562988281	 33.60616683959961	 1871.6075439453125
v -353.6495056152344	 33.608394622802734	 1871.5474853515625
v -348.6498107910156	 33.60773849487305	 1871.4874267578125
v -343.6501159667969	 33.6042366027832	 1871.4278564453125
v -338.6502990722656	 33.59991455078125	 1871.3682861328125
v -333.6504821777344	 33.594417572021484	 1871.3087158203125
v -328.6507873535156	 33.59049606323242	 1871.2486572265625
v -323.6510314941406	 33.58775329589844	 1871.1895751953125
v -318.6513977050781	 33.58840560913086	 1871.1297607421875
v -313.6516418457031	 33.58952331542969	 1871.0704345703125
v -308.6518859863281	 33.600284576416016	 1871.0108642578125
v -303.6523132324219	 33.61848831176758	 1870.9517822265625
v -298.6526184082031	 33.62993240356445	 1870.8927001953125
v -293.6529235839844	 33.63948059082031	 1870.8336181640625
v -288.6531677246094	 33.649017333984375	 1870.7745361328125
v -283.6534729003906	 33.65979766845703	 1870.7156982421875
v -278.6537170410156	 33.660255432128906	 1870.6573486328125
v -273.6540832519531	 33.65449142456055	 1870.5987548828125
v -268.6542663574219	 33.64604187011719	 1870.5406494140625
v -263.6545104980469	 33.63317108154297	 1870.4825439453125
v -258.6548156738281	 33.625404357910156	 1870.4237060546875
v -253.65505981445312	 33.622188568115234	 1870.3658447265625
v -248.65542602539062	 33.62165451049805	 1870.3087158203125
v -243.65560913085938	 33.62255859375	 1870.2506103515625
v -238.65597534179688	 33.6265983581543	 1870.1927490234375
v -233.65618896484375	 33.623291015625	 1870.1356201171875
v -228.65652465820312	 33.62431716918945	 1870.0787353515625
v -223.65695190429688	 33.62198257446289	 1870.0216064453125
v -218.6571044921875	 33.618404388427734	 1869.964599609375
v -213.65728759765625	 33.610172271728516	 1869.907470703125
v -208.65762329101562	 33.60177993774414	 1869.8507080078125
v -203.65792846679688	 33.58931350708008	 1869.794677734375
v -198.65823364257812	 33.574546813964844	 1869.7384033203125
v -193.65841674804688	 33.56155014038086	 1869.6817626953125
v -188.65866088867188	 33.556549072265625	 1869.625732421875
v -183.65896606445312	 33.55552673339844	 1869.5704345703125
v -178.65921020507812	 33.55819320678711	 1869.5146484375
v -173.65957641601562	 33.564842224121094	 1869.4588623046875
v -168.65972900390625	 33.57323455810547	 1869.4036865234375
v -163.6600341796875	 33.57805252075195	 1869.3487548828125
v -158.66021728515625	 33.58731460571289	 1869.29443359375
v -153.66049194335938	 33.59378433227539	 1869.2398681640625
v -148.66067504882812	 33.59440231323242	 1869.1864013671875
v -143.66107177734375	 33.58443832397461	 1869.1328125
v -138.66131591796875	 33.575042724609375	 1869.0797119140625
v -133.66159057617188	 33.5709114074707	 1869.027587890625
v -128.66177368164062	 33.56818771362305	 1868.9757080078125
v -123.66189575195312	 33.56838607788086	 1868.9248046875
v -118.6622314453125	 33.56517791748047	 1868.8746337890625
v -113.66250610351562	 33.55846405029297	 1868.8248291015625
v -108.6627197265625	 33.55903625488281	 1868.77587890625
v -103.66287231445312	 33.564552307128906	 1868.727783203125
v -98.66299438476562	 33.5665168762207	 1868.6810302734375
v -93.66323852539062	 33.57130813598633	 1868.634765625
v -88.66339111328125	 33.572181701660156	 1868.5897216796875
v -83.66351318359375	 33.56489944458008	 1868.5457763671875
v -78.66363525390625	 33.55889892578125	 1868.5032958984375
v -73.6636962890625	 33.552406311035156	 1868.4619140625
v -68.66397094726562	 33.54328918457031	 1868.421875
v -63.664154052734375	 33.536705017089844	 1868.3831787109375
v -58.66424560546875	 33.52873611450195	 1868.3460693359375
v -53.664337158203125	 33.52234649658203	 1868.3109130859375
v -48.6644287109375	 33.51103591918945	 1868.2772216796875
v -43.664459228515625	 33.49308395385742	 1868.2451171875
v -38.664581298828125	 33.47893524169922	 1868.21484375
v -33.66461181640625	 33.468650817871094	 1868.1851806640625
v -28.664642333984375	 33.453800201416016	 1868.15673828125
v -23.664703369140625	 33.44353485107422	 1868.1290283203125
v -18.664764404296875	 33.42930603027344	 1868.1026611328125
v -13.664886474609375	 33.41609573364258	 1868.075927734375
v -8.664825439453125	 33.40435028076172	 1868.0499267578125
v -3.664947509765625	 33.38631057739258	 1868.02392578125
v 1.334869384765625	 33.37619400024414	 1867.9976806640625
v 6.334869384765625	 33.357479095458984	 1867.970458984375
v 11.334716796875	 33.33144760131836	 1867.942626953125
v 16.3345947265625	 33.311710357666016	 1867.9136962890625
v 21.33453369140625	 33.28339385986328	 1867.8834228515625
v 26.33428955078125	 33.25278091430664	 1867.8514404296875
v 31.333953857421875	 33.21851348876953	 1867.8173828125
v 36.33345031738281	 33.159366607666016	 1867.7813720703125
v 41.332794189453125	 33.0793342590332	 1867.7430419921875
v 46.33238220214844	 33.05783462524414	 1867.701171875
v 51.331787109375	 32.971580505371094	 1867.6561279296875
v 56.33154296875	 32.94163513183594	 1867.607177734375
v 61.331268310546875	 32.94292449951172	 1867.5548095703125
v 66.33091735839844	 32.9500617980957	 1867.4991455078125
v 71.33045959472656	 32.99981689453125	 1867.4398193359375
v 76.32997131347656	 33.02025604248047	 1867.3773193359375
v 81.32958984375	 33.022342681884766	 1867.31201171875
v 86.32919311523438	 32.997894287109375	 1867.244140625
v 91.32868957519531	 32.95987319946289	 1867.174072265625
v 96.32809448242188	 32.9341926574707	 1867.1024169921875
v 101.32754516601562	 32.90546798706055	 1867.029052734375
v 106.32688903808594	 32.871421813964844	 1866.9532470703125
v 111.32620239257812	 32.844932556152344	 1866.877197265625
v 116.3255615234375	 32.813026428222656	 1866.800048828125
v 121.32478332519531	 32.779144287109375	 1866.7220458984375
v 126.32406616210938	 32.748313903808594	 1866.64306640625
v 131.3232421875	 32.713375091552734	 1866.5633544921875
v 136.32244873046875	 32.683441162109375	 1866.4840087890625
v 141.3216552734375	 32.63954162597656	 1866.4039306640625
v 146.320556640625	 32.56657409667969	 1866.3233642578125
v 151.3194580078125	 32.49551010131836	 1866.2431640625
v 156.318359375	 32.423946380615234	 1866.1629638671875
v 161.31710815429688	 32.347259521484375	 1866.0823974609375
v 166.31605529785156	 32.278987884521484	 1866.001953125
v 171.3148193359375	 32.202850341796875	 1865.9212646484375
v 176.31365966796875	 32.125205993652344	 1865.8409423828125
v 181.31259155273438	 32.054100036621094	 1865.7606201171875
v 186.3115234375	 31.980350494384766	 1865.680419921875
v 191.31039428710938	 31.909563064575195	 1865.6002197265625
v 196.30917358398438	 31.827760696411133	 1865.5201416015625
v 201.3079071044922	 31.743886947631836	 1865.440185546875
v 206.306640625	 31.66710662841797	 1865.360595703125
v 211.3053436279297	 31.59072494506836	 1865.2811279296875
v 216.30429077148438	 31.518550872802734	 1865.201416015625
v 221.30335998535156	 31.46454429626465	 1865.1214599609375
v 226.30242919921875	 31.406618118286133	 1865.042236328125
v 231.3013458251953	 31.347410202026367	 1864.96240234375
v 236.3004608154297	 31.286699295043945	 1864.8831787109375
v 241.29957580566406	 31.231822967529297	 1864.8035888671875
v 246.29873657226562	 31.1907958984375	 1864.7242431640625
v 251.2978515625	 31.146268844604492	 1864.64501953125
v 256.2969970703125	 31.100711822509766	 1864.5655517578125
v 261.2962341308594	 31.066268920898438	 1864.4864501953125
v 266.2954406738281	 31.039064407348633	 1864.4073486328125
v 271.2947692871094	 31.017213821411133	 1864.3282470703125
v 276.294189453125	 30.99791717529297	 1864.2491455078125
v 281.29351806640625	 30.971649169921875	 1864.1697998046875
v 286.2928466796875	 30.931947708129883	 1864.0902099609375
v 291.2920837402344	 30.913915634155273	 1864.01123046875
v 296.2914733886719	 30.907405853271484	 1863.932373046875
v 301.29071044921875	 30.903871536254883	 1863.853515625
v 306.2900390625	 30.906234741210938	 1863.7745361328125
v 311.28948974609375	 30.917560577392578	 1863.6954345703125
v 316.2889099121094	 30.942432403564453	 1863.6165771484375
v 321.2880859375	 30.96523094177246	 1863.537353515625
v 326.28729248046875	 30.99073600769043	 1863.4583740234375
v 331.2866516113281	 31.02043342590332	 1863.3795166015625
v 336.285888671875	 31.043893814086914	 1863.300537109375
v 341.2852783203125	 31.073333740234375	 1863.2218017578125
v 346.2845764160156	 31.10502052307129	 1863.1434326171875
v 351.2837219238281	 31.13902473449707	 1863.0645751953125
v 356.28302001953125	 31.181411743164062	 1862.985595703125
v 361.28228759765625	 31.221546173095703	 1862.9066162109375
v 366.2815246582031	 31.25846290588379	 1862.8275146484375
v 371.2808532714844	 31.29490089416504	 1862.74853515625
v 376.28021240234375	 31.32245635986328	 1862.6697998046875
v 381.279541015625	 31.353418350219727	 1862.59130859375
v 386.27886962890625	 31.39666748046875	 1862.5125732421875
v 391.27789306640625	 31.43665313720703	 1862.43359375
v 396.27703857421875	 31.482526779174805	 1862.3546142578125
v 401.27618408203125	 31.523414611816406	 1862.2757568359375
v 406.2752990722656	 31.56101417541504	 1862.197509765625
v 411.2745361328125	 31.612449645996094	 1862.1187744140625
v 416.27374267578125	 31.646738052368164	 1862.0394287109375
v 421.27301025390625	 31.661235809326172	 1861.9603271484375
v 426.27166748046875	 31.738182067871094	 1861.8817138671875
v 431.269775390625	 31.859426498413086	 1861.8033447265625
v 436.2682189941406	 31.96917152404785	 1861.7296142578125
v 441.267822265625	 31.972763061523438	 1861.670166015625
l 1 2
l 2 3
l 3 4
l 4 5
l 5 6
l 6 7
l 7 8
l 8 9
l 9 10
l 10 11
l 11 12
l 12 13
l 13 14
l 14 15
l 15 16
l 16 17
l 17 18
l 18 19
l 19 20
l 20 21
l 21 22
l 22 23
l 23 24
l 24 25
l 25 26
l 26 27
l 27 28
l 28 29
l 29 30
l 30 31
l 31 32
l 32 33
l 33 34
l 34 35
l 35 36
l 36 37
l 37 38
l 38 39
l 39 40
l 40 41
l 41 42
l 42 43
l 43 44
l 44 45
l 45 46
l 46 47
l 47 48
l 48 49
l 49 50
l 50 51
l 51 52
l 52 53
l 53 54
l 54 55
l 55 56
l 56 57
l 57 58
l 58 59
l 59 60
l 60 61
l 61 62
l 62 63
l 63 64
l 64 65
l 65 66
l 66 67
l 67 68
l 68 69
l 69 70
l 70 71
l 71 72
l 72 73
l 73 74
l 74 75
l 75 76
l 76 77
l 77 78
l 78 79
l 79 80
l 80 81
l 81 82
l 82 83
l 83 84
l 84 85
l 85 86
l 86 87
l 87 88
l 88 89
l 89 90
l 90 91
l 91 92
l 92 93
l 93 94
l 94 95
l 95 96
l 96 97
l 97 98
l 98 99
l 99 100
l 100 101
l 101 102
l 102 103
l 103 104
l 104 105
l 105 106
l 106 107
l 107 108
l 108 109
l 109 110
l 110 111
l 111 112
l 112 113
l 113 114
l 114 115
l 115 116
l 116 117
l 117 118
l 118 119
l 119 120
l 120 121
l 121 122
l 122 123
l 123 124
l 124 125
l 125 126
l 126 127
l 127 128
l 128 129
l 129 130
l 130 131
l 131 132
l 132 133
l 133 134
l 134 135
l 135 136
l 136 137
l 137 138
l 138 139
l 139 140
l 140 141
l 141 142
l 142 143
l 143 144
l 144 145
l 145 146
l 146 147
l 147 148
l 148 149
l 149 150
l 150 151
l 151 152
l 152 153
l 153 154
l 154 155
l 155 156
l 156 157
l 157 158
l 158 159
l 159 160
l 160 161
l 161 162
l 162 163
l 163 164
l 164 165
l 165 166
l 166 167
l 167 168
l 168 169
l 169 170
l 170 171
l 171 172
l 172 173
l 173 174
l 174 175
l 175 176
l 176 177
l 177 178
l 178 179
l 179 180
l 180 181
l 181 182
l 182 183
l 183 184
l 184 185
l 185 186
l 186 187
l 187 188
l 188 189
l 189 190
l 190 191
l 191 192
l 192 193
l 193 194
l 194 195
l 195 196
l 196 197
l 197 198
l 198 199
l 199 200
l 200 201
l 201 202
l 202 203
l 203 204
l 204 205
l 205 206
l 206 207
l 207 208
l 208 209
l 209 210
l 210 211
l 211 212
l 212 213
l 213 214
l 214 215
l 215 216
l 216 217
l 217 218
l 218 219
l 219 220
l 220 221
l 221 222
l 222 223
l 223 224
l 224 225
l 225 226
l 226 227
l 227 228
l 228 229
l 229 230
l 230 231
l 231 232
l 232 233
l 233 234
l 234 235
l 235 236
l 236 237
l 237 238
l 238 239
l 239 240
l 240 241
l 241 242
l 242 243
l 243 244
l 244 245
l 245 246
l 246 247
l 247 248
l 248 249
l 249 250
l 250 251
l 251 252
l 252 253
l 253 254
l 254 255
l 255 256
l 256 257
l 257 258
l 258 259
l 259 260
l 260 261
l 261 262
l 262 263
l 263 264
l 264 265
l 265 266
l 266 267
l 267 268
l 268 269
l 269 270
l 270 271
l 271 272
l 272 273
l 273 274
l 274 275
l 275 276
l 276 277
l 277 278
l 278 279
l 279 280
l 280 281
l 281 282
l 282 283
l 283 284
l 284 285
l 285 286
l 286 287
l 287 288
l 288 289
l 289 290
l 290 291
l 291 292
l 292 293
l 293 294
l 294 295
l 295 296
l 296 297
l 297 298
l 298 299
l 299 300
l 300 301
l 301 302
l 302 303
l 303 304
l 304 305
l 305 306
l 306 307
l 307 308
l 308 309
l 309 310
l 310 311
l 311 312
l 312 313
l 313 314
l 314 315
l 315 316
l 316 317
l 317 318
l 318 319
l 319 320
l 320 321
l 321 322
l 322 323
l 323 324
l 324 325
l 325 326
l 326 327
l 327 328
l 328 329
l 329 330
l 330 331
l 331 332
l 332 333
l 333 334
l 334 335
l 335 336
l 336 337
l 337 338
l 338 339
l 339 340
l 340 341
l 341 342
l 342 343
l 343 344
l 344 345
l 345 346
l 346 347
l 347 348
l 348 349
l 349 350
l 350 351
l 351 352
l 352 353
l 353 354
l 354 355
l 355 356
l 356 357
l 357 358
l 358 359
l 359 360
l 360 361
l 361 362
l 362 363
l 363 364
l 364 365
l 365 366
l 366 367
l 367 368
l 368 369
l 369 370
l 370 371
l 371 372
l 372 373
l 373 374
l 374 375
l 375 376
l 376 377
l 377 378
l 378 379
l 379 380
l 380 381
l 381 382
l 382 383
l 383 384
l 384 385
l 385 386
l 386 387
l 387 388
l 388 389
l 389 390
l 390 391
l 391 392
l 392 393
l 393 394
l 394 395
l 395 396
l 396 397
l 397 398
l 398 399
l 399 400
l 400 401
l 401 402
l 402 403
l 403 404
l 404 405
l 405 406
l 406 407
l 407 408
l 408 409
l 409 410
l 410 411
l 411 412
l 412 413
l 413 414
l 414 415
l 415 416
l 416 417
l 417 418
l 418 419
l 419 420
l 420 421
l 421 422
l 422 423
l 423 424
l 424 425
l 425 426
l 426 427
l 427 428
l 428 429
l 429 430
l 430 431
l 431 432
l 432 433
l 433 434
l 434 435
l 435 436
l 436 437
l 437 438
l 438 439
l 439 440
l 440 441
l 441 442
l 442 443
l 443 444
l 444 445
l 445 446
l 446 447
l 447 448
l 448 449
l 449 450
l 450 451
l 451 452
l 452 453
l 453 454
l 454 455
l 455 456
l 456 457
l 457 458
l 458 459
l 459 460
l 460 461
l 461 462
l 462 463
l 463 464
l 464 465
l 465 466
l 466 467
l 467 468
l 468 469
l 469 470
l 470 471
l 471 472
l 472 473
l 473 474
l 474 475
l 475 476
l 476 477
l 477 478
l 478 479
l 479 480
l 480 481
l 481 482
l 482 483
l 483 484
l 484 485
l 485 486
l 486 487
l 487 488
l 488 489
l 489 490
l 490 491
l 491 492
l 492 493
l 493 494
l 494 495
l 495 496
l 496 497
l 497 498
l 498 499
