# GE Spline Export primaryRoad08
v 2049.459716796875	 32.7782096862793	 -1568.9930419921875
v 2044.4649658203125	 32.76445388793945	 -1568.9600830078125
v 2039.469482421875	 32.74112319946289	 -1568.9052734375
v 2034.468505859375	 32.7216682434082	 -1568.845947265625
v 2029.4637451171875	 32.69830322265625	 -1568.784423828125
v 2024.4693603515625	 32.67886734008789	 -1568.721923828125
v 2019.46923828125	 32.6594123840332	 -1568.6585693359375
v 2014.47216796875	 32.63997268676758	 -1568.5947265625
v 2009.4718017578125	 32.62440490722656	 -1568.5303955078125
v 2004.469970703125	 32.61272430419922	 -1568.4656982421875
v 1999.4656982421875	 32.603111267089844	 -1568.400634765625
v 1994.46826171875	 32.599220275878906	 -1568.33544921875
v 1989.470703125	 32.599220275878906	 -1568.27001953125
v 1984.4666748046875	 32.599220275878906	 -1568.204345703125
v 1979.4693603515625	 32.601287841796875	 -1568.138427734375
v 1974.468505859375	 32.60700225830078	 -1568.0723876953125
v 1969.4683837890625	 32.61089324951172	 -1568.006103515625
v 1964.4686279296875	 32.618675231933594	 -1567.939697265625
v 1959.46826171875	 32.6246337890625	 -1567.873046875
v 1954.46826171875	 32.63424301147461	 -1567.8062744140625
v 1949.46826171875	 32.64408874511719	 -1567.7392578125
v 1944.468017578125	 32.6578369140625	 -1567.672119140625
v 1939.468017578125	 32.688716888427734	 -1567.604736328125
v 1934.46826171875	 32.688716888427734	 -1567.537109375
v 1929.4678955078125	 32.674468994140625	 -1567.4693603515625
v 1924.46923828125	 32.590721130371094	 -1567.4013671875
v 1919.468994140625	 32.501461029052734	 -1567.3330078125
v 1914.47021484375	 32.41770935058594	 -1567.2645263671875
v 1909.47021484375	 32.305545806884766	 -1567.1956787109375
v 1904.47119140625	 32.236549377441406	 -1567.1265869140625
v 1899.471435546875	 32.1792106628418	 -1567.0572509765625
v 1894.47216796875	 32.23988723754883	 -1566.987548828125
v 1889.4727783203125	 32.34672927856445	 -1566.91748046875
v 1884.4732666015625	 32.446048736572266	 -1566.8470458984375
v 1879.4739990234375	 32.54924392700195	 -1566.7763671875
v 1874.4744873046875	 32.648353576660156	 -1566.7052001953125
v 1869.475341796875	 32.78097915649414	 -1566.6337890625
v 1864.475830078125	 32.85213851928711	 -1566.5618896484375
v 1859.4764404296875	 32.84824752807617	 -1566.4896240234375
v 1854.47705078125	 32.84824752807617	 -1566.4168701171875
v 1849.4776611328125	 32.84824752807617	 -1566.34375
v 1844.4783935546875	 32.85416793823242	 -1566.270263671875
v 1839.47900390625	 32.8619499206543	 -1566.1962890625
v 1834.479736328125	 32.875484466552734	 -1566.1219482421875
v 1829.48046875	 32.893070220947266	 -1566.0469970703125
v 1824.48095703125	 32.91252899169922	 -1565.9716796875
v 1819.482421875	 32.93975830078125	 -1565.89599609375
v 1814.482177734375	 32.96900939941406	 -1565.820068359375
v 1809.484375	 33.0001220703125	 -1565.743896484375
v 1804.483642578125	 33.0351448059082	 -1565.6676025390625
v 1799.4864501953125	 33.068145751953125	 -1565.59130859375
v 1794.485595703125	 33.105167388916016	 -1565.51513671875
v 1789.4881591796875	 33.140167236328125	 -1565.439208984375
v 1784.4881591796875	 33.17518997192383	 -1565.363525390625
v 1779.4888916015625	 33.21210861206055	 -1565.2880859375
v 1774.4912109375	 33.24909591674805	 -1565.213134765625
v 1769.487548828125	 33.28414535522461	 -1565.1385498046875
v 1764.4927978515625	 33.319122314453125	 -1565.0645751953125
v 1759.493408203125	 33.35605239868164	 -1564.9910888671875
v 1754.4892578125	 33.38918685913086	 -1564.9180908203125
v 1749.4949951171875	 33.42219924926758	 -1564.845947265625
v 1744.49658203125	 33.449432373046875	 -1564.7742919921875
v 1739.4945068359375	 33.47667694091797	 -1564.703369140625
v 1734.4931640625	 33.49613571166992	 -1564.633056640625
v 1729.4979248046875	 33.51557159423828	 -1564.5635986328125
v 1724.5	 33.52918243408203	 -1564.4947509765625
v 1719.5001220703125	 33.54280090332031	 -1564.4266357421875
v 1714.49853515625	 33.552528381347656	 -1564.359130859375
v 1709.495849609375	 33.56031036376953	 -1564.29248046875
v 1704.49560546875	 33.568092346191406	 -1564.2264404296875
v 1699.4990234375	 33.571983337402344	 -1564.1611328125
v 1694.5015869140625	 33.57781219482422	 -1564.0965576171875
v 1689.50341796875	 33.583656311035156	 -1564.032470703125
v 1684.5048828125	 33.587547302246094	 -1563.9688720703125
v 1679.505859375	 33.59143829345703	 -1563.9058837890625
v 1674.506591796875	 33.59532928466797	 -1563.8433837890625
v 1669.5068359375	 33.59724807739258	 -1563.7813720703125
v 1664.5068359375	 33.599220275878906	 -1563.7197265625
v 1659.5059814453125	 33.603111267089844	 -1563.658447265625
v 1654.504150390625	 33.603111267089844	 -1563.59765625
v 1649.5008544921875	 33.603111267089844	 -1563.537109375
v 1644.5018310546875	 33.60700225830078	 -1563.4769287109375
v 1639.50732421875	 33.60700225830078	 -1563.4171142578125
v 1634.5118408203125	 33.60700225830078	 -1563.3575439453125
v 1629.5145263671875	 33.61089324951172	 -1563.2982177734375
v 1624.5145263671875	 33.61278533935547	 -1563.2391357421875
v 1619.5107421875	 33.614784240722656	 -1563.1802978515625
v 1614.502197265625	 33.618675231933594	 -1563.12158203125
v 1609.5108642578125	 33.62256622314453	 -1563.063232421875
v 1604.5172119140625	 33.62256622314453	 -1563.0050048828125
v 1599.517578125	 33.62256622314453	 -1562.9468994140625
v 1594.5103759765625	 33.618675231933594	 -1562.888916015625
v 1589.509521484375	 33.618675231933594	 -1562.8311767578125
v 1584.519287109375	 33.614784240722656	 -1562.773681640625
v 1579.51953125	 33.60902404785156	 -1562.7161865234375
v 1574.5084228515625	 33.603111267089844	 -1562.6585693359375
v 1569.5167236328125	 33.599220275878906	 -1562.6014404296875
v 1564.5228271484375	 33.59347152709961	 -1562.5443115234375
v 1559.5147705078125	 33.587547302246094	 -1562.4871826171875
v 1554.515380859375	 33.58177185058594	 -1562.43017578125
v 1549.524658203125	 33.57587432861328	 -1562.3734130859375
v 1544.516357421875	 33.571983337402344	 -1562.3165283203125
v 1539.51806640625	 33.571983337402344	 -1562.259765625
v 1534.5262451171875	 33.568092346191406	 -1562.2032470703125
v 1529.51318359375	 33.571983337402344	 -1562.146484375
v 1524.5238037109375	 33.571983337402344	 -1562.0899658203125
v 1519.525634765625	 33.577720642089844	 -1562.033447265625
v 1514.5123291015625	 33.583656311035156	 -1561.9769287109375
v 1509.5291748046875	 33.59326934814453	 -1561.920654296875
v 1504.5185546875	 33.603111267089844	 -1561.8641357421875
v 1499.5263671875	 33.61663055419922	 -1561.807861328125
v 1494.528076171875	 33.6282958984375	 -1561.75146484375
v 1489.51904296875	 33.642024993896484	 -1561.695068359375
v 1484.5325927734375	 33.655513763427734	 -1561.6387939453125
v 1479.5103759765625	 33.66727828979492	 -1561.58203125
v 1474.533935546875	 33.67704391479492	 -1561.52587890625
v 1469.519775390625	 33.6848258972168	 -1561.46923828125
v 1464.533447265625	 33.688716888427734	 -1561.4127197265625
v 1459.5260009765625	 33.69260787963867	 -1561.35595703125
v 1454.532470703125	 33.69260787963867	 -1561.29931640625
v 1449.5302734375	 33.688716888427734	 -1561.2425537109375
v 1444.53173828125	 33.6848258972168	 -1561.1856689453125
v 1439.5328369140625	 33.67522430419922	 -1561.128662109375
v 1434.531982421875	 33.66354751586914	 -1561.0716552734375
v 1429.5343017578125	 33.64980697631836	 -1561.014404296875
v 1424.533447265625	 33.636314392089844	 -1560.9571533203125
v 1419.53466796875	 33.618289947509766	 -1560.8997802734375
v 1414.535888671875	 33.6013069152832	 -1560.84228515625
v 1409.53369140625	 33.587547302246094	 -1560.78466796875
v 1404.539306640625	 33.57587432861328	 -1560.7269287109375
v 1399.5306396484375	 33.56680679321289	 -1560.6690673828125
v 1394.5428466796875	 33.56031036376953	 -1560.6112060546875
v 1389.5250244140625	 33.5603141784668	 -1560.5528564453125
v 1384.5457763671875	 33.556419372558594	 -1560.494873046875
v 1379.5172119140625	 33.56031036376953	 -1560.4361572265625
v 1374.5467529296875	 33.56207275390625	 -1560.3779296875
v 1369.5299072265625	 33.56603240966797	 -1560.319091796875
v 1364.54443359375	 33.568092346191406	 -1560.260498046875
v 1359.541015625	 33.571983337402344	 -1560.2015380859375
v 1354.537353515625	 33.57587432861328	 -1560.1424560546875
v 1349.548828125	 33.57587432861328	 -1560.0833740234375
v 1344.523193359375	 33.57976531982422	 -1560.0238037109375
v 1339.5513916015625	 33.57976531982422	 -1559.964599609375
v 1334.534423828125	 33.57976531982422	 -1559.90478515625
v 1329.5465087890625	 33.57587432861328	 -1559.84521484375
v 1324.5489501953125	 33.57587432861328	 -1559.785400390625
v 1319.5318603515625	 33.57405090332031	 -1559.72509765625
v 1314.5548095703125	 33.571983337402344	 -1559.6651611328125
v 1309.5347900390625	 33.568092346191406	 -1559.6046142578125
v 1304.549560546875	 33.568092346191406	 -1559.5443115234375
v 1299.552490234375	 33.56420135498047	 -1559.4837646484375
v 1294.530517578125	 33.56420135498047	 -1559.4227294921875
v 1289.5574951171875	 33.56248092651367	 -1559.3621826171875
v 1284.543701171875	 33.56031036376953	 -1559.301025390625
v 1279.546630859375	 33.56420135498047	 -1559.2398681640625
v 1274.5589599609375	 33.56420135498047	 -1559.1787109375
v 1269.53125	 33.568092346191406	 -1559.116943359375
v 1264.5562744140625	 33.568092346191406	 -1559.0556640625
v 1259.5567626953125	 33.571983337402344	 -1558.993896484375
v 1254.5322265625	 33.57587432861328	 -1558.9317626953125
v 1249.5616455078125	 33.57976531982422	 -1558.8701171875
v 1244.5531005859375	 33.583656311035156	 -1558.807861328125
v 1239.5426025390625	 33.587547302246094	 -1558.745361328125
v 1234.564697265625	 33.59143829345703	 -1558.6832275390625
v 1229.549560546875	 33.59532928466797	 -1558.6204833984375
v 1224.54931640625	 33.599220275878906	 -1558.557861328125
v 1219.566650390625	 33.60700225830078	 -1558.4952392578125
v 1214.547607421875	 33.614784240722656	 -1558.4320068359375
v 1209.5535888671875	 33.62256622314453	 -1558.3690185546875
v 1204.568359375	 33.63035202026367	 -1558.305908203125
v 1199.5477294921875	 33.63813400268555	 -1558.2423095703125
v 1194.5555419921875	 33.64591598510742	 -1558.178955078125
v 1189.5701904296875	 33.6536979675293	 -1558.115478515625
v 1184.55029296875	 33.657588958740234	 -1558.0513916015625
v 1179.5556640625	 33.66147994995117	 -1557.9876708984375
v 1174.5721435546875	 33.66537094116211	 -1557.923828125
v 1169.55517578125	 33.66537094116211	 -1557.8594970703125
v 1164.5535888671875	 33.66537094116211	 -1557.795166015625
v 1159.573974609375	 33.66371154785156	 -1557.7310791015625
v 1154.561767578125	 33.657588958740234	 -1557.6663818359375
v 1149.548095703125	 33.64980697631836	 -1557.6015625
v 1144.574462890625	 33.64036560058594	 -1557.537109375
v 1139.56884765625	 33.62866973876953	 -1557.47216796875
v 1134.538818359375	 33.61688232421875	 -1557.40673828125
v 1129.571044921875	 33.601444244384766	 -1557.342041015625
v 1124.573486328125	 33.58978271484375	 -1557.2767333984375
v 1119.54638671875	 33.57587432861328	 -1557.2110595703125
v 1114.5633544921875	 33.56420135498047	 -1557.145751953125
v 1109.5740966796875	 33.556419372558594	 -1557.080322265625
v 1104.558837890625	 33.54863739013672	 -1557.014404296875
v 1099.5528564453125	 33.54474639892578	 -1556.9486083984375
v 1094.5714111328125	 33.540855407714844	 -1556.8829345703125
v 1089.5665283203125	 33.540855407714844	 -1556.81689453125
v 1084.5396728515625	 33.540855407714844	 -1556.75048828125
v 1079.56494140625	 33.54474639892578	 -1556.6846923828125
v 1074.56982421875	 33.54474639892578	 -1556.6185302734375
v 1069.5545654296875	 33.54863739013672	 -1556.552001953125
v 1064.55517578125	 33.54863739013672	 -1556.485595703125
v 1059.568115234375	 33.54863739013672	 -1556.4193115234375
v 1054.5634765625	 33.54863739013672	 -1556.3526611328125
v 1049.543212890625	 33.54863739013672	 -1556.2857666015625
v 1044.5625	 33.54863739013672	 -1556.2193603515625
v 1039.56640625	 33.54863739013672	 -1556.1527099609375
v 1034.5555419921875	 33.55036544799805	 -1556.085693359375
v 1029.5537109375	 33.552528381347656	 -1556.018798828125
v 1024.564453125	 33.556419372558594	 -1555.9520263671875
v 1019.5623779296875	 33.56031036376953	 -1555.885009765625
v 1014.5482177734375	 33.56420135498047	 -1555.8177490234375
v 1009.558837890625	 33.568092346191406	 -1555.750732421875
v 1004.5633544921875	 33.57368469238281	 -1555.6837158203125
v 999.5577392578125	 33.57976531982422	 -1555.6163330078125
v 994.55126953125	 33.58366012573242	 -1555.5489501953125
v 989.560302734375	 33.587547302246094	 -1555.4818115234375
v 984.5609130859375	 33.59143829345703	 -1555.4144287109375
v 979.5537109375	 33.59532928466797	 -1555.346923828125
v 974.5552978515625	 33.599220275878906	 -1555.279541015625
v 969.5599365234375	 33.603111267089844	 -1555.2120361328125
v 964.558349609375	 33.60700225830078	 -1555.14453125
v 959.5511474609375	 33.614784240722656	 -1555.0767822265625
v 954.5567626953125	 33.62256622314453	 -1555.00927734375
v 949.5584716796875	 33.6320686340332	 -1554.941650390625
v 944.5560302734375	 33.642024993896484	 -1554.8739013671875
v 939.5537109375	 33.6536979675293	 -1554.80615234375
v 934.556396484375	 33.66537094116211	 -1554.7384033203125
v 929.5565185546875	 33.67704391479492	 -1554.6705322265625
v 924.5550537109375	 33.688716888427734	 -1554.602783203125
v 919.5546875	 33.6982307434082	 -1554.534912109375
v 914.55517578125	 33.70600891113281	 -1554.4669189453125
v 909.5552978515625	 33.71206283569336	 -1554.3990478515625
v 904.5557861328125	 33.71206283569336	 -1554.3311767578125
v 899.5540771484375	 33.71206283569336	 -1554.26318359375
v 894.5535888671875	 33.704280853271484	 -1554.195068359375
v 889.5548095703125	 33.69649887084961	 -1554.1270751953125
v 884.5562744140625	 33.68699264526367	 -1554.05908203125
v 879.5523681640625	 33.673152923583984	 -1553.990966796875
v 874.5521240234375	 33.65973663330078	 -1553.9228515625
v 869.5560302734375	 33.64418411254883	 -1553.8548583984375
v 864.5543212890625	 33.62861251831055	 -1553.7867431640625
v 859.55029296875	 33.613037109375	 -1553.718505859375
v 854.5518798828125	 33.60136795043945	 -1553.650390625
v 849.559814453125	 33.587547302246094	 -1553.5823974609375
v 844.551513671875	 33.57801818847656	 -1553.5140380859375
v 839.548583984375	 33.568092346191406	 -1553.44580078125
v 834.5535888671875	 33.55857467651367	 -1553.377685546875
v 829.5584716796875	 33.54692077636719	 -1553.3095703125
v 824.54833984375	 33.53520965576172	 -1553.2412109375
v 819.5479736328125	 33.52353286743164	 -1553.1729736328125
v 814.5582275390625	 33.50801086425781	 -1553.1048583984375
v 809.5528564453125	 33.49242401123047	 -1553.03662109375
v 804.5452880859375	 33.476829528808594	 -1552.96826171875
v 799.5499267578125	 33.462646484375	 -1552.9000244140625
v 794.5645751953125	 33.449668884277344	 -1552.83203125
v 789.5472412109375	 33.43403625488281	 -1552.7635498046875
v 784.5443115234375	 33.4223518371582	 -1552.6951904296875
v 779.5560302734375	 33.412452697753906	 -1552.627197265625
v 774.554931640625	 33.40293502807617	 -1552.558837890625
v 769.5423583984375	 33.39299774169922	 -1552.490478515625
v 764.5467529296875	 33.385215759277344	 -1552.42236328125
v 759.5689697265625	 33.37743377685547	 -1552.3543701171875
v 754.5455322265625	 33.36964797973633	 -1552.285888671875
v 749.5408935546875	 33.36186599731445	 -1552.2176513671875
v 744.5562744140625	 33.352359771728516	 -1552.149658203125
v 739.55419921875	 33.342411041259766	 -1552.0814208984375
v 734.5386962890625	 33.33283615112305	 -1552.0130615234375
v 729.546142578125	 33.32119369506836	 -1551.945068359375
v 724.5682373046875	 33.311283111572266	 -1551.877197265625
v 719.5408935546875	 33.30350112915039	 -1551.8087158203125
v 714.5390625	 33.29961013793945	 -1551.7406005859375
v 709.5633544921875	 33.295719146728516	 -1551.6729736328125
v 704.546875	 33.295719146728516	 -1551.6046142578125
v 699.534912109375	 33.295719146728516	 -1551.5364990234375
v 694.552490234375	 33.29961013793945	 -1551.46875
v 689.5557861328125	 33.29961013793945	 -1551.40087890625
v 684.533447265625	 33.30350112915039	 -1551.3326416015625
v 679.5443115234375	 33.30350112915039	 -1551.2650146484375
v 674.5660400390625	 33.30739212036133	 -1551.1973876953125
v 669.5338134765625	 33.311283111572266	 -1551.129150390625
v 664.53857421875	 33.31307601928711	 -1551.0615234375
v 659.5758056640625	 33.3151969909668	 -1550.994384765625
v 654.5343017578125	 33.32087707519531	 -1550.9261474609375
v 649.5345458984375	 33.326847076416016	 -1550.8585205078125
v 644.5772705078125	 33.3323860168457	 -1550.7916259765625
v 639.5341796875	 33.33852005004883	 -1550.7236328125
v 634.5322265625	 33.3463020324707	 -1550.6561279296875
v 629.5780029296875	 33.35408401489258	 -1550.5894775390625
v 624.5321044921875	 33.359798431396484	 -1550.5216064453125
v 619.5321044921875	 33.36575698852539	 -1550.454345703125
v 614.5794677734375	 33.373538970947266	 -1550.387939453125
v 609.5274658203125	 33.37743377685547	 -1550.3201904296875
v 604.5355224609375	 33.38313293457031	 -1550.25341796875
v 599.5654296875	 33.38910675048828	 -1550.18701171875
v 594.521728515625	 33.390968322753906	 -1550.1197509765625
v 589.546630859375	 33.39299774169922	 -1550.053466796875
v 584.5457763671875	 33.396888732910156	 -1549.987060546875
v 579.52294921875	 33.396888732910156	 -1549.92041015625
v 574.5750732421875	 33.39854049682617	 -1549.85498046875
v 569.5296630859375	 33.400779724121094	 -1549.788330078125
v 564.53955078125	 33.400779724121094	 -1549.7225341796875
v 559.5565185546875	 33.400779724121094	 -1549.6571044921875
v 554.52783203125	 33.400779724121094	 -1549.5911865234375
v 549.5828857421875	 33.400779724121094	 -1549.526611328125
v 544.5311279296875	 33.396888732910156	 -1549.4608154296875
v 539.5567626953125	 33.39516067504883	 -1549.396240234375
v 534.5426025390625	 33.39299774169922	 -1549.331298828125
v 529.5440673828125	 33.38910675048828	 -1549.266845703125
v 524.5560302734375	 33.38910675048828	 -1549.202880859375
v 519.5396728515625	 33.38910675048828	 -1549.1387939453125
v 514.566650390625	 33.38910675048828	 -1549.075439453125
v 509.5394287109375	 33.39299774169922	 -1549.0118408203125
v 504.570556640625	 33.396888732910156	 -1548.9493408203125
v 499.5419921875	 33.400779724121094	 -1548.8863525390625
v 494.5675048828125	 33.40467071533203	 -1548.8245849609375
v 489.54736328125	 33.40856170654297	 -1548.7625732421875
v 484.558837890625	 33.412452697753906	 -1548.701416015625
v 479.55908203125	 33.412452697753906	 -1548.640625
v 474.549072265625	 33.412452697753906	 -1548.580322265625
v 469.5838623046875	 33.40856170654297	 -1548.5211181640625
v 464.5477294921875	 33.40679931640625	 -1548.461669921875
v 459.56884765625	 33.400779724121094	 -1548.4036865234375
v 454.568115234375	 33.396888732910156	 -1548.34619140625
v 449.551025390625	 33.3912467956543	 -1548.289306640625
v 444.5721435546875	 33.385215759277344	 -1548.23388671875
v 439.5782470703125	 33.37968063354492	 -1548.1793212890625
v 434.557373046875	 33.373538970947266	 -1548.1256103515625
v 429.558837890625	 33.36575698852539	 -1548.073486328125
v 424.57470703125	 33.36021041870117	 -1548.02294921875
v 419.5972900390625	 33.35408401489258	 -1547.97412109375
v 414.581787109375	 33.35019302368164	 -1547.9268798828125
v 409.5743408203125	 33.35019302368164	 -1547.8818359375
v 404.5723876953125	 33.3463020324707	 -1547.8392333984375
v 399.5743408203125	 33.3463020324707	 -1547.799560546875
v 394.5806884765625	 33.35019302368164	 -1547.76318359375
v 389.593994140625	 33.35019302368164	 -1547.7308349609375
v 384.5831298828125	 33.35408401489258	 -1547.7030029296875
v 379.5731201171875	 33.357975006103516	 -1547.6807861328125
v 374.5887451171875	 33.357975006103516	 -1547.6654052734375
v 369.5784912109375	 33.36186599731445	 -1547.658203125
v 364.594482421875	 33.36186599731445	 -1547.661376953125
v 359.593017578125	 33.36345291137695	 -1547.6773681640625
v 354.594970703125	 33.36575698852539	 -1547.70947265625
v 349.5894775390625	 33.36964797973633	 -1547.7630615234375
v 344.59375	 33.373538970947266	 -1547.8463134765625
v 339.60107421875	 33.37743377685547	 -1547.9736328125
v 334.6043701171875	 33.381324768066406	 -1548.174560546875
v 329.6131591796875	 33.381324768066406	 -1548.5205078125
v 324.6678466796875	 33.36966323852539	 -1549.2095947265625
v 319.7838134765625	 33.35408401489258	 -1550.2755126953125
v 314.9703369140625	 33.342411041259766	 -1551.6234130859375
v 310.278564453125	 33.342411041259766	 -1553.347900390625
v 305.7686767578125	 33.342411041259766	 -1555.50244140625
v 301.5628662109375	 33.342411041259766	 -1558.1968994140625
v 297.9361572265625	 33.342411041259766	 -1561.6246337890625
v 295.1767578125	 33.342411041259766	 -1565.7803955078125
v 293.3665771484375	 33.342411041259766	 -1570.4337158203125
v 292.1026611328125	 33.342411041259766	 -1575.2706298828125
v 291.101806640625	 33.3403205871582	 -1580.1676025390625
v 290.3111572265625	 33.236000061035156	 -1585.1036376953125
v 289.6807861328125	 33.11503601074219	 -1590.0621337890625
v 289.1744384765625	 33.0013427734375	 -1595.0340576171875
v 288.764404296875	 32.87886047363281	 -1600.0166015625
v 288.4232177734375	 32.75481033325195	 -1605.0032958984375
v 288.129150390625	 32.64595031738281	 -1609.9976806640625
v 287.8690185546875	 32.52164840698242	 -1614.984130859375
v 287.6331787109375	 32.38218307495117	 -1619.9779052734375
v 287.4151611328125	 32.276981353759766	 -1624.9794921875
v 287.2120361328125	 32.1869010925293	 -1629.9664306640625
v 287.0194091796875	 32.18288040161133	 -1634.9638671875
v 286.8359375	 32.18288040161133	 -1639.962158203125
v 286.659912109375	 32.186771392822266	 -1644.957275390625
v 286.4898681640625	 32.1906623840332	 -1649.9500732421875
v 286.3245849609375	 32.19455337524414	 -1654.9468994140625
v 286.163330078125	 32.19844436645508	 -1659.9544677734375
v 286.0059814453125	 32.19844436645508	 -1664.9388427734375
v 285.8505859375	 32.202335357666016	 -1669.9476318359375
v 285.6986083984375	 32.20597457885742	 -1674.93505859375
v 285.5482177734375	 32.20622634887695	 -1679.9306640625
v 285.3992919921875	 32.209869384765625	 -1684.9365234375
v 285.2520751953125	 32.21011734008789	 -1689.9381103515625
v 285.1063232421875	 32.21011734008789	 -1694.927490234375
v 284.9619140625	 32.21400833129883	 -1699.9212646484375
v 284.8182373046875	 32.21400833129883	 -1704.9171142578125
v 284.6754150390625	 32.217899322509766	 -1709.9140625
v 284.5333251953125	 32.217899322509766	 -1714.91162109375
v 284.391845703125	 32.2217903137207	 -1719.909912109375
v 284.2510986328125	 32.2253303527832	 -1724.9095458984375
v 284.110595703125	 32.22568130493164	 -1729.91162109375
v 283.970458984375	 32.2331428527832	 -1734.917236328125
v 283.8309326171875	 32.23735427856445	 -1739.9168701171875
v 283.692138671875	 32.24124526977539	 -1744.9033203125
v 283.553466796875	 32.24861526489258	 -1749.8946533203125
v 283.4151611328125	 32.2529182434082	 -1754.8934326171875
v 283.2764892578125	 32.25680923461914	 -1759.9027099609375
v 283.1385498046875	 32.263671875	 -1764.90283203125
v 283.0009765625	 32.264591217041016	 -1769.88720703125
v 282.8634033203125	 32.26848220825195	 -1774.886962890625
v 282.7254638671875	 32.27199172973633	 -1779.9024658203125
v 282.588623046875	 32.27237319946289	 -1784.88720703125
v 282.451416015625	 32.27237319946289	 -1789.8809814453125
v 282.3140869140625	 32.27237319946289	 -1794.89404296875
v 282.1773681640625	 32.27237319946289	 -1799.8831787109375
v 282.040771484375	 32.27237319946289	 -1804.877197265625
v 281.903564453125	 32.27237319946289	 -1809.892578125
v 281.7674560546875	 32.27626419067383	 -1814.8760986328125
v 281.6309814453125	 32.27626419067383	 -1819.875732421875
v 281.494384765625	 32.280155181884766	 -1824.884033203125
v 281.3583984375	 32.2840461730957	 -1829.86962890625
v 281.2220458984375	 32.28746795654297	 -1834.8790283203125
v 281.0858154296875	 32.28793716430664	 -1839.8701171875
v 280.9498291015625	 32.29182815551758	 -1844.8681640625
v 280.8135986328125	 32.295719146728516	 -1849.874267578125
v 280.6778564453125	 32.295719146728516	 -1854.86279296875
v 280.5416259765625	 32.29961013793945	 -1859.8748779296875
v 280.40625	 32.29961013793945	 -1864.860595703125
v 280.2703857421875	 32.29961013793945	 -1869.8651123046875
v 280.1346435546875	 32.295719146728516	 -1874.8602294921875
v 279.9991455078125	 32.295719146728516	 -1879.8583984375
v 279.86328125	 32.295719146728516	 -1884.860595703125
v 279.727783203125	 32.29182815551758	 -1889.853759765625
v 279.5919189453125	 32.29182815551758	 -1894.8612060546875
v 279.456787109375	 32.29182815551758	 -1899.8502197265625
v 279.3211669921875	 32.2951774597168	 -1904.8602294921875
v 279.1859130859375	 32.29901885986328	 -1909.847412109375
v 279.0501708984375	 32.30350112915039	 -1914.85400390625
v 278.9150390625	 32.314571380615234	 -1919.844970703125
v 278.7796630859375	 32.326847076416016	 -1924.8487548828125
v 278.6446533203125	 32.341800689697266	 -1929.8426513671875
v 278.509033203125	 32.35348129272461	 -1934.84423828125
v 278.3739013671875	 32.36575698852539	 -1939.84033203125
v 278.2386474609375	 32.373538970947266	 -1944.84033203125
v 278.1033935546875	 32.37743377685547	 -1949.837890625
v 277.9683837890625	 32.37743377685547	 -1954.836669921875
v 277.8331298828125	 32.374183654785156	 -1959.835205078125
v 277.6981201171875	 32.373538970947266	 -1964.8333740234375
v 277.5628662109375	 32.36964797973633	 -1969.8323974609375
v 277.4276123046875	 32.36575698852539	 -1974.830078125
v 277.2926025390625	 32.36186599731445	 -1979.82958984375
v 277.1575927734375	 32.36186599731445	 -1984.8271484375
v 277.0223388671875	 32.36186599731445	 -1989.82666015625
v 276.887451171875	 32.36186599731445	 -1994.8240966796875
v 276.7523193359375	 32.36575698852539	 -1999.823486328125
v 276.6173095703125	 32.36964797973633	 -2004.821044921875
v 276.4822998046875	 32.373538970947266	 -2009.8203125
v 276.3472900390625	 32.380615234375	 -2014.818115234375
v 276.2122802734375	 32.385215759277344	 -2019.8170166015625
v 276.0772705078125	 32.39299774169922	 -2024.815185546875
v 275.9422607421875	 32.396888732910156	 -2029.81396484375
v 275.8072509765625	 32.40393829345703	 -2034.8121337890625
v 275.6722412109375	 32.40856170654297	 -2039.8106689453125
v 275.5372314453125	 32.412452697753906	 -2044.8092041015625
v 275.40234375	 32.412452697753906	 -2049.8076171875
l 1 2
l 2 3
l 3 4
l 4 5
l 5 6
l 6 7
l 7 8
l 8 9
l 9 10
l 10 11
l 11 12
l 12 13
l 13 14
l 14 15
l 15 16
l 16 17
l 17 18
l 18 19
l 19 20
l 20 21
l 21 22
l 22 23
l 23 24
l 24 25
l 25 26
l 26 27
l 27 28
l 28 29
l 29 30
l 30 31
l 31 32
l 32 33
l 33 34
l 34 35
l 35 36
l 36 37
l 37 38
l 38 39
l 39 40
l 40 41
l 41 42
l 42 43
l 43 44
l 44 45
l 45 46
l 46 47
l 47 48
l 48 49
l 49 50
l 50 51
l 51 52
l 52 53
l 53 54
l 54 55
l 55 56
l 56 57
l 57 58
l 58 59
l 59 60
l 60 61
l 61 62
l 62 63
l 63 64
l 64 65
l 65 66
l 66 67
l 67 68
l 68 69
l 69 70
l 70 71
l 71 72
l 72 73
l 73 74
l 74 75
l 75 76
l 76 77
l 77 78
l 78 79
l 79 80
l 80 81
l 81 82
l 82 83
l 83 84
l 84 85
l 85 86
l 86 87
l 87 88
l 88 89
l 89 90
l 90 91
l 91 92
l 92 93
l 93 94
l 94 95
l 95 96
l 96 97
l 97 98
l 98 99
l 99 100
l 100 101
l 101 102
l 102 103
l 103 104
l 104 105
l 105 106
l 106 107
l 107 108
l 108 109
l 109 110
l 110 111
l 111 112
l 112 113
l 113 114
l 114 115
l 115 116
l 116 117
l 117 118
l 118 119
l 119 120
l 120 121
l 121 122
l 122 123
l 123 124
l 124 125
l 125 126
l 126 127
l 127 128
l 128 129
l 129 130
l 130 131
l 131 132
l 132 133
l 133 134
l 134 135
l 135 136
l 136 137
l 137 138
l 138 139
l 139 140
l 140 141
l 141 142
l 142 143
l 143 144
l 144 145
l 145 146
l 146 147
l 147 148
l 148 149
l 149 150
l 150 151
l 151 152
l 152 153
l 153 154
l 154 155
l 155 156
l 156 157
l 157 158
l 158 159
l 159 160
l 160 161
l 161 162
l 162 163
l 163 164
l 164 165
l 165 166
l 166 167
l 167 168
l 168 169
l 169 170
l 170 171
l 171 172
l 172 173
l 173 174
l 174 175
l 175 176
l 176 177
l 177 178
l 178 179
l 179 180
l 180 181
l 181 182
l 182 183
l 183 184
l 184 185
l 185 186
l 186 187
l 187 188
l 188 189
l 189 190
l 190 191
l 191 192
l 192 193
l 193 194
l 194 195
l 195 196
l 196 197
l 197 198
l 198 199
l 199 200
l 200 201
l 201 202
l 202 203
l 203 204
l 204 205
l 205 206
l 206 207
l 207 208
l 208 209
l 209 210
l 210 211
l 211 212
l 212 213
l 213 214
l 214 215
l 215 216
l 216 217
l 217 218
l 218 219
l 219 220
l 220 221
l 221 222
l 222 223
l 223 224
l 224 225
l 225 226
l 226 227
l 227 228
l 228 229
l 229 230
l 230 231
l 231 232
l 232 233
l 233 234
l 234 235
l 235 236
l 236 237
l 237 238
l 238 239
l 239 240
l 240 241
l 241 242
l 242 243
l 243 244
l 244 245
l 245 246
l 246 247
l 247 248
l 248 249
l 249 250
l 250 251
l 251 252
l 252 253
l 253 254
l 254 255
l 255 256
l 256 257
l 257 258
l 258 259
l 259 260
l 260 261
l 261 262
l 262 263
l 263 264
l 264 265
l 265 266
l 266 267
l 267 268
l 268 269
l 269 270
l 270 271
l 271 272
l 272 273
l 273 274
l 274 275
l 275 276
l 276 277
l 277 278
l 278 279
l 279 280
l 280 281
l 281 282
l 282 283
l 283 284
l 284 285
l 285 286
l 286 287
l 287 288
l 288 289
l 289 290
l 290 291
l 291 292
l 292 293
l 293 294
l 294 295
l 295 296
l 296 297
l 297 298
l 298 299
l 299 300
l 300 301
l 301 302
l 302 303
l 303 304
l 304 305
l 305 306
l 306 307
l 307 308
l 308 309
l 309 310
l 310 311
l 311 312
l 312 313
l 313 314
l 314 315
l 315 316
l 316 317
l 317 318
l 318 319
l 319 320
l 320 321
l 321 322
l 322 323
l 323 324
l 324 325
l 325 326
l 326 327
l 327 328
l 328 329
l 329 330
l 330 331
l 331 332
l 332 333
l 333 334
l 334 335
l 335 336
l 336 337
l 337 338
l 338 339
l 339 340
l 340 341
l 341 342
l 342 343
l 343 344
l 344 345
l 345 346
l 346 347
l 347 348
l 348 349
l 349 350
l 350 351
l 351 352
l 352 353
l 353 354
l 354 355
l 355 356
l 356 357
l 357 358
l 358 359
l 359 360
l 360 361
l 361 362
l 362 363
l 363 364
l 364 365
l 365 366
l 366 367
l 367 368
l 368 369
l 369 370
l 370 371
l 371 372
l 372 373
l 373 374
l 374 375
l 375 376
l 376 377
l 377 378
l 378 379
l 379 380
l 380 381
l 381 382
l 382 383
l 383 384
l 384 385
l 385 386
l 386 387
l 387 388
l 388 389
l 389 390
l 390 391
l 391 392
l 392 393
l 393 394
l 394 395
l 395 396
l 396 397
l 397 398
l 398 399
l 399 400
l 400 401
l 401 402
l 402 403
l 403 404
l 404 405
l 405 406
l 406 407
l 407 408
l 408 409
l 409 410
l 410 411
l 411 412
l 412 413
l 413 414
l 414 415
l 415 416
l 416 417
l 417 418
l 418 419
l 419 420
l 420 421
l 421 422
l 422 423
l 423 424
l 424 425
l 425 426
l 426 427
l 427 428
l 428 429
l 429 430
l 430 431
l 431 432
l 432 433
l 433 434
l 434 435
l 435 436
l 436 437
l 437 438
l 438 439
l 439 440
l 440 441
l 441 442
l 442 443
l 443 444
l 444 445
l 445 446
l 446 447
l 447 448
l 448 449
l 449 450
