# GE Spline Export primaryRoad07
v 1039.9239501953125	 31.649805068969727	 90.4530029296875
v 1044.9222412109375	 31.649805068969727	 90.32485961914062
v 1049.920654296875	 31.649805068969727	 90.1961669921875
v 1054.918701171875	 31.649805068969727	 90.06781005859375
v 1059.9171142578125	 31.642345428466797	 89.93899536132812
v 1064.9154052734375	 31.630678176879883	 89.80999755859375
v 1069.9136962890625	 31.615123748779297	 89.68084716796875
v 1074.911865234375	 31.595672607421875	 89.55084228515625
v 1079.9100341796875	 31.57622528076172	 89.4197998046875
v 1084.908203125	 31.556777954101562	 89.28802490234375
v 1089.9063720703125	 31.533803939819336	 89.1558837890625
v 1094.904296875	 31.51399040222168	 89.02285766601562
v 1099.90234375	 31.490652084350586	 88.88873291015625
v 1104.900390625	 31.467313766479492	 88.7530517578125
v 1109.8985595703125	 31.44437026977539	 88.61672973632812
v 1114.8963623046875	 31.421039581298828	 88.4788818359375
v 1119.894287109375	 31.3977108001709	 88.3397216796875
v 1124.89208984375	 31.374380111694336	 88.19891357421875
v 1129.8900146484375	 31.350622177124023	 88.0567626953125
v 1134.8878173828125	 31.32694435119629	 87.9127197265625
v 1139.8856201171875	 31.3000545501709	 87.76690673828125
v 1144.8831787109375	 31.27328109741211	 87.61972045898438
v 1149.880859375	 31.24949073791504	 87.470703125
v 1154.87841796875	 31.222736358642578	 87.3197021484375
v 1159.8760986328125	 31.19892692565918	 87.16693115234375
v 1164.87353515625	 31.175588607788086	 87.01275634765625
v 1169.870849609375	 31.148862838745117	 86.85693359375
v 1174.8682861328125	 31.12502670288086	 86.699951171875
v 1179.86572265625	 31.101688385009766	 86.541748046875
v 1184.863037109375	 31.078353881835938	 86.382080078125
v 1189.860107421875	 31.05501937866211	 86.22186279296875
v 1194.8575439453125	 31.032238006591797	 86.06109619140625
v 1199.854736328125	 31.016128540039062	 85.89990234375
v 1204.8521728515625	 31.000577926635742	 85.73809814453125
v 1209.8494873046875	 30.988327026367188	 85.57595825195312
v 1214.8468017578125	 30.977251052856445	 85.41326904296875
v 1219.8441162109375	 30.972763061523438	 85.25091552734375
v 1224.8411865234375	 30.972763061523438	 85.08819580078125
v 1229.838623046875	 30.972763061523438	 84.92596435546875
v 1234.8358154296875	 30.97990608215332	 84.763427734375
v 1239.8330078125	 30.98443603515625	 84.60186767578125
v 1244.8304443359375	 30.992218017578125	 84.4403076171875
v 1249.827880859375	 31	 84.279296875
v 1254.8250732421875	 31.007781982421875	 84.11907958984375
v 1259.8223876953125	 31.01876449584961	 83.95944213867188
v 1264.8197021484375	 31.02653694152832	 83.80108642578125
v 1269.8172607421875	 31.035018920898438	 83.64312744140625
v 1274.8145751953125	 31.045970916748047	 83.48544311523438
v 1279.81201171875	 31.053743362426758	 83.32916259765625
v 1284.8094482421875	 31.06151580810547	 83.1734619140625
v 1289.806884765625	 31.06614875793457	 83.0191650390625
v 1294.804443359375	 31.073930740356445	 82.8653564453125
v 1299.802001953125	 31.077821731567383	 82.71234130859375
v 1304.799560546875	 31.08171272277832	 82.56036376953125
v 1309.797119140625	 31.08481216430664	 82.4091796875
v 1314.7947998046875	 31.085603713989258	 82.25851440429688
v 1319.7923583984375	 31.089494705200195	 82.10919189453125
v 1324.7900390625	 31.093385696411133	 81.96051025390625
v 1329.787841796875	 31.09727668762207	 81.8133544921875
v 1334.7855224609375	 31.104225158691406	 81.66720581054688
v 1339.783203125	 31.111997604370117	 81.52154541015625
v 1344.7811279296875	 31.116731643676758	 81.37722778320312
v 1349.7789306640625	 31.124513626098633	 81.23355102539062
v 1354.7767333984375	 31.132295608520508	 81.09136962890625
v 1359.7747802734375	 31.139202117919922	 80.9505615234375
v 1364.772705078125	 31.14396858215332	 80.81124877929688
v 1369.7706298828125	 31.15085792541504	 80.67254638671875
v 1374.768798828125	 31.155641555786133	 80.535400390625
v 1379.7667236328125	 31.15953254699707	 80.39956665039062
v 1384.7647705078125	 31.167314529418945	 80.265380859375
v 1389.7628173828125	 31.171205520629883	 80.13238525390625
v 1394.760986328125	 31.178987503051758	 80.00042724609375
v 1399.759033203125	 31.18583106994629	 79.86956787109375
v 1404.7574462890625	 31.190662384033203	 79.74029541015625
v 1409.7557373046875	 31.198444366455078	 79.61138916015625
v 1414.7540283203125	 31.20526885986328	 79.48342895507812
v 1419.7523193359375	 31.21011734008789	 79.35638427734375
v 1424.7508544921875	 31.217899322509766	 79.23007202148438
v 1429.7491455078125	 31.22470474243164	 79.1033935546875
v 1434.747314453125	 31.229572296142578	 78.97723388671875
v 1439.7454833984375	 31.236364364624023	 78.85125732421875
v 1444.743896484375	 31.24124526977539	 78.72525024414062
v 1449.7420654296875	 31.245136260986328	 78.59912109375
v 1454.7403564453125	 31.251907348632812	 78.4720458984375
v 1459.7386474609375	 31.25680923461914	 78.34429931640625
v 1464.73681640625	 31.260700225830078	 78.2159423828125
v 1469.7349853515625	 31.264591217041016	 78.08612060546875
v 1474.7330322265625	 31.268482208251953	 77.95513916015625
v 1479.7313232421875	 31.27237319946289	 77.82278442382812
v 1484.7293701171875	 31.276264190673828	 77.68814086914062
v 1489.7275390625	 31.280155181884766	 77.55178833007812
v 1494.7252197265625	 31.284046173095703	 77.41299438476562
v 1499.7230224609375	 31.28793716430664	 77.27198791503906
v 1504.720947265625	 31.291828155517578	 77.12881469726562
v 1509.7186279296875	 31.295719146728516	 76.9830322265625
v 1514.7161865234375	 31.299610137939453	 76.83502197265625
v 1519.7137451171875	 31.299610137939453	 76.68502807617188
v 1524.7113037109375	 31.299610137939453	 76.53291320800781
v 1529.7086181640625	 31.299610137939453	 76.37828063964844
v 1534.7061767578125	 31.295719146728516	 76.22195434570312
v 1539.7034912109375	 31.28793716430664	 76.06295776367188
v 1544.7008056640625	 31.280155181884766	 75.90107727050781
v 1549.6981201171875	 31.269657135009766	 75.73710632324219
v 1554.6949462890625	 31.25799560546875	 75.57110595703125
v 1559.6920166015625	 31.246335983276367	 75.40280151367188
v 1564.68896484375	 31.23077964782715	 75.23110961914062
v 1569.685546875	 31.2191219329834	 75.05703735351562
v 1574.682373046875	 31.206226348876953	 74.88009643554688
v 1579.6788330078125	 31.191911697387695	 74.69990539550781
v 1584.675537109375	 31.18025016784668	 74.5157470703125
v 1589.671630859375	 31.16859245300293	 74.32637023925781
v 1594.6678466796875	 31.15953254699707	 74.13043212890625
v 1599.6634521484375	 31.151750564575195	 73.92697143554688
v 1604.658935546875	 31.14396858215332	 73.71400451660156
v 1609.6539306640625	 31.14396858215332	 73.49049377441406
v 1614.6483154296875	 31.14396858215332	 73.25466918945312
v 1619.641845703125	 31.147859573364258	 73.00634765625
v 1624.6348876953125	 31.15953254699707	 72.74470520019531
v 1629.6273193359375	 31.173646926879883	 72.47090148925781
v 1634.618896484375	 31.196962356567383	 72.18592834472656
v 1639.6099853515625	 31.224163055419922	 71.89044189453125
v 1644.6004638671875	 31.257591247558594	 71.58680725097656
v 1649.59033203125	 31.29871940612793	 71.27682495117188
v 1654.580078125	 31.34318733215332	 70.9610595703125
v 1659.5693359375	 31.395750045776367	 70.64054870605469
v 1664.5587158203125	 31.453990936279297	 70.31729125976562
v 1669.5474853515625	 31.518247604370117	 69.990966796875
v 1674.5362548828125	 31.591224670410156	 69.66366577148438
v 1679.5245361328125	 31.669641494750977	 69.33534240722656
v 1684.5130615234375	 31.755037307739258	 69.0081787109375
v 1689.50146484375	 31.846332550048828	 68.6827392578125
v 1694.4898681640625	 31.939491271972656	 68.36114501953125
v 1699.4791259765625	 32.036556243896484	 68.04559326171875
v 1704.4686279296875	 32.13465118408203	 67.73855590820312
v 1709.458740234375	 32.23289108276367	 67.44120788574219
v 1714.4495849609375	 32.32545852661133	 67.15631103515625
v 1719.4415283203125	 32.41543197631836	 66.88540649414062
v 1724.43408203125	 32.49702835083008	 66.62919616699219
v 1729.427490234375	 32.57085418701172	 66.38734436035156
v 1734.4217529296875	 32.639163970947266	 66.15975952148438
v 1739.4166259765625	 32.697471618652344	 65.9447021484375
v 1744.4119873046875	 32.75028991699219	 65.74166870117188
v 1749.4080810546875	 32.79695129394531	 65.55032348632812
v 1754.4044189453125	 32.8397216796875	 65.36929321289062
v 1759.4012451171875	 32.87860870361328	 65.19808959960938
v 1764.3983154296875	 32.913604736328125	 65.03622436523438
v 1769.39599609375	 32.94706726074219	 64.88404846191406
v 1774.3934326171875	 32.97818374633789	 64.74101257324219
v 1779.391357421875	 33.00693893432617	 64.6068115234375
v 1784.3896484375	 33.03416061401367	 64.48095703125
v 1789.3880615234375	 33.059879302978516	 64.36376953125
v 1794.3868408203125	 33.08082962036133	 64.25473022460938
v 1799.3856201171875	 33.098777770996094	 64.15353393554688
v 1804.384521484375	 33.11433792114258	 64.0596923828125
v 1809.3836669921875	 33.126007080078125	 63.9735107421875
v 1814.3826904296875	 33.13229751586914	 63.89463806152344
v 1819.382080078125	 33.137672424316406	 63.823272705078125
v 1824.3814697265625	 33.140079498291016	 63.758270263671875
v 1829.3807373046875	 33.140079498291016	 63.699554443359375
v 1834.3804931640625	 33.13618850708008	 63.648040771484375
v 1839.380126953125	 33.13229751586914	 63.60235595703125
v 1844.3797607421875	 33.1230354309082	 63.56317138671875
v 1849.3795166015625	 33.111366271972656	 63.52996826171875
v 1854.3790283203125	 33.095802307128906	 63.50212097167969
v 1859.3790283203125	 33.07245635986328	 63.47991943359375
v 1864.378662109375	 33.04521942138672	 63.46270751953125
v 1869.3782958984375	 33.01261901855469	 63.44970703125
v 1874.3779296875	 32.977603912353516	 63.440521240234375
v 1879.377685546875	 32.9348030090332	 63.4346923828125
v 1884.3775634765625	 32.89442443847656	 63.43232727050781
v 1889.3770751953125	 32.849205017089844	 63.4324951171875
v 1894.3768310546875	 32.80493927001953	 63.43531799316406
v 1899.376220703125	 32.75971984863281	 63.44012451171875
v 1904.3760986328125	 32.7169189453125	 63.44630432128906
v 1909.3756103515625	 32.67801284790039	 63.453948974609375
v 1914.37548828125	 32.640560150146484	 63.46211242675781
v 1919.375244140625	 32.60943603515625	 63.470794677734375
v 1924.3753662109375	 32.58219909667969	 63.47880554199219
v 1929.375	 32.56420135498047	 63.48565673828125
v 1934.3746337890625	 32.552528381347656	 63.490478515625
v 1939.37451171875	 32.54863739013672	 63.492340087890625
v 1944.3743896484375	 32.54863739013672	 63.49003601074219
v 1949.3741455078125	 32.553985595703125	 63.48155212402344
v 1954.374267578125	 32.56031036376953	 63.46430969238281
v 1959.3740234375	 32.55739974975586	 63.435546875
v 1964.3734130859375	 32.53544616699219	 63.39093017578125
v 1969.3731689453125	 32.531803131103516	 63.3265380859375
v 1974.3721923828125	 32.53213882446289	 63.239990234375
v 1979.37060546875	 32.54474639892578	 63.13236999511719
v 1984.3690185546875	 32.536964416503906	 63.00596618652344
v 1989.3670654296875	 32.52775573730469	 62.863555908203125
v 1994.364501953125	 32.51750946044922	 62.7078857421875
v 1999.36181640625	 32.509727478027344	 62.541748046875
v 2004.3587646484375	 32.505836486816406	 62.36875915527344
v 2009.3555908203125	 32.505836486816406	 62.19001770019531
v 2014.3521728515625	 32.505836486816406	 62.00640869140625
v 2019.348388671875	 32.509727478027344	 61.819427490234375
v 2024.3448486328125	 32.51361846923828	 61.62965393066406
v 2029.3409423828125	 32.51750946044922	 61.43766784667969
v 2034.337158203125	 32.525291442871094	 61.243865966796875
v 2039.3331298828125	 32.530479431152344	 61.04884338378906
v 2044.329345703125	 32.538246154785156	 60.853057861328125
v 2049.325439453125	 32.54474639892578	 60.65704345703125
l 1 2
l 2 3
l 3 4
l 4 5
l 5 6
l 6 7
l 7 8
l 8 9
l 9 10
l 10 11
l 11 12
l 12 13
l 13 14
l 14 15
l 15 16
l 16 17
l 17 18
l 18 19
l 19 20
l 20 21
l 21 22
l 22 23
l 23 24
l 24 25
l 25 26
l 26 27
l 27 28
l 28 29
l 29 30
l 30 31
l 31 32
l 32 33
l 33 34
l 34 35
l 35 36
l 36 37
l 37 38
l 38 39
l 39 40
l 40 41
l 41 42
l 42 43
l 43 44
l 44 45
l 45 46
l 46 47
l 47 48
l 48 49
l 49 50
l 50 51
l 51 52
l 52 53
l 53 54
l 54 55
l 55 56
l 56 57
l 57 58
l 58 59
l 59 60
l 60 61
l 61 62
l 62 63
l 63 64
l 64 65
l 65 66
l 66 67
l 67 68
l 68 69
l 69 70
l 70 71
l 71 72
l 72 73
l 73 74
l 74 75
l 75 76
l 76 77
l 77 78
l 78 79
l 79 80
l 80 81
l 81 82
l 82 83
l 83 84
l 84 85
l 85 86
l 86 87
l 87 88
l 88 89
l 89 90
l 90 91
l 91 92
l 92 93
l 93 94
l 94 95
l 95 96
l 96 97
l 97 98
l 98 99
l 99 100
l 100 101
l 101 102
l 102 103
l 103 104
l 104 105
l 105 106
l 106 107
l 107 108
l 108 109
l 109 110
l 110 111
l 111 112
l 112 113
l 113 114
l 114 115
l 115 116
l 116 117
l 117 118
l 118 119
l 119 120
l 120 121
l 121 122
l 122 123
l 123 124
l 124 125
l 125 126
l 126 127
l 127 128
l 128 129
l 129 130
l 130 131
l 131 132
l 132 133
l 133 134
l 134 135
l 135 136
l 136 137
l 137 138
l 138 139
l 139 140
l 140 141
l 141 142
l 142 143
l 143 144
l 144 145
l 145 146
l 146 147
l 147 148
l 148 149
l 149 150
l 150 151
l 151 152
l 152 153
l 153 154
l 154 155
l 155 156
l 156 157
l 157 158
l 158 159
l 159 160
l 160 161
l 161 162
l 162 163
l 163 164
l 164 165
l 165 166
l 166 167
l 167 168
l 168 169
l 169 170
l 170 171
l 171 172
l 172 173
l 173 174
l 174 175
l 175 176
l 176 177
l 177 178
l 178 179
l 179 180
l 180 181
l 181 182
l 182 183
l 183 184
l 184 185
l 185 186
l 186 187
l 187 188
l 188 189
l 189 190
l 190 191
l 191 192
l 192 193
l 193 194
l 194 195
l 195 196
l 196 197
l 197 198
l 198 199
l 199 200
l 200 201
l 201 202
l 202 203
