# GE Spline Export primaryRoad06
v 634.2754516601562	 31.7888126373291	 454.4770202636719
v 637.0038452148438	 31.763763427734375	 450.287109375
v 639.7423706054688	 31.74419403076172	 446.1039733886719
v 642.919677734375	 31.709444046020508	 442.2463073730469
v 646.2827758789062	 31.67594337463379	 438.546875
v 649.8564453125	 31.65036392211914	 435.051025390625
v 653.6940307617188	 31.619277954101562	 431.8485412597656
v 657.7408447265625	 31.59210968017578	 428.9131164550781
v 661.910888671875	 31.56957244873047	 426.15625
v 666.1510009765625	 31.544849395751953	 423.50665283203125
v 670.4409790039062	 31.507530212402344	 420.9381103515625
v 674.770751953125	 31.467329025268555	 418.43731689453125
v 679.1333618164062	 31.424074172973633	 415.9958801269531
v 683.5259399414062	 31.395675659179688	 413.6071472167969
v 687.94580078125	 31.37396240234375	 411.2694396972656
v 692.3929443359375	 31.327049255371094	 408.9830627441406
v 696.8665161132812	 31.2520751953125	 406.7503967285156
v 701.3680419921875	 31.222644805908203	 404.573974609375
v 705.8978881835938	 31.27532196044922	 402.4586181640625
v 710.4561157226562	 31.44919776916504	 400.4066162109375
v 715.0379638671875	 31.737388610839844	 398.4091796875
v 719.6380004882812	 31.972824096679688	 396.4544372558594
v 724.25048828125	 32.129032135009766	 394.53076171875
v 728.871337890625	 32.281009674072266	 392.6265563964844
v 733.49560546875	 32.4329719543457	 390.7320861816406
v 738.12158203125	 32.57717514038086	 388.8390808105469
v 742.7498168945312	 32.71070098876953	 386.9493103027344
v 747.3817138671875	 32.824012756347656	 385.069091796875
v 752.0202026367188	 32.91312026977539	 383.20440673828125
v 756.6681518554688	 32.9830436706543	 381.3619079589844
v 761.3274536132812	 33.03931427001953	 379.5506591796875
v 766.00390625	 33.08174133300781	 377.78143310546875
v 770.701171875	 33.11167907714844	 376.0706787109375
v 775.4254760742188	 33.13395309448242	 374.430908203125
v 780.1760864257812	 33.14854431152344	 372.87408447265625
v 784.9568481445312	 33.155643463134766	 371.40997314453125
v 789.7673950195312	 33.1595344543457	 370.04718017578125
v 794.6062622070312	 33.1595344543457	 368.7898254394531
v 799.47216796875	 33.155643463134766	 367.640625
v 804.3631591796875	 33.15033721923828	 366.60382080078125
v 809.2759399414062	 33.14397048950195	 365.6761474609375
v 814.2066650390625	 33.13618850708008	 364.84716796875
v 819.1511840820312	 33.12781524658203	 364.1021728515625
v 824.1060180664062	 33.12021255493164	 363.43218994140625
v 829.0706787109375	 33.11256790161133	 362.8387145996094
v 834.044921875	 33.10505676269531	 362.32867431640625
v 839.028076171875	 33.101165771484375	 361.9154052734375
v 844.0194091796875	 33.101165771484375	 361.62176513671875
v 849.01708984375	 33.10505676269531	 361.47821044921875
v 854.0167846679688	 33.10894775390625	 361.5068054199219
v 859.010498046875	 33.116729736328125	 361.7339172363281
v 863.9891967773438	 33.12135314941406	 362.1983642578125
v 868.9287719726562	 33.1284065246582	 362.9627685546875
v 873.790771484375	 33.13229751586914	 364.1207275390625
v 878.5203857421875	 33.1284065246582	 365.7365417480469
v 883.0790405273438	 33.12062072753906	 367.78570556640625
v 887.4448852539062	 33.110252380371094	 370.22027587890625
v 891.6434936523438	 33.09477233886719	 372.93304443359375
v 895.7233276367188	 33.07569122314453	 375.8233642578125
v 899.7015991210938	 33.05836486816406	 378.85223388671875
v 903.57470703125	 33.04051208496094	 382.0142822265625
v 907.3265991210938	 33.023345947265625	 385.3192138671875
v 910.928955078125	 33.007781982421875	 388.78570556640625
v 914.359619140625	 32.99610900878906	 392.4224548339844
v 917.6024780273438	 32.98832702636719	 396.22735595703125
v 920.646484375	 32.98443603515625	 400.1932067871094
v 923.4890747070312	 32.98054504394531	 404.3060302734375
v 926.152099609375	 32.976654052734375	 408.5376281738281
v 928.6644287109375	 32.97276306152344	 412.86053466796875
v 931.05126953125	 32.96379470825195	 417.2540283203125
v 933.3357543945312	 32.94927215576172	 421.7012939453125
v 935.5336303710938	 32.92638397216797	 426.1925354003906
v 937.65380859375	 32.89737319946289	 430.7210693359375
v 939.7049560546875	 32.858882904052734	 435.28076171875
v 941.6990966796875	 32.803016662597656	 439.86480712890625
v 943.7119140625	 32.699466705322266	 444.44073486328125
v 945.9601440429688	 32.60855484008789	 448.9044189453125
v 948.7816772460938	 32.58091354370117	 453.02490234375
v 952.14501953125	 32.566375732421875	 456.720703125
v 956.1603393554688	 32.491031646728516	 459.6676330566406
v 960.8887939453125	 32.386444091796875	 461.2398681640625
v 965.8497314453125	 32.2863883972168	 461.82391357421875
v 970.84619140625	 32.19694519042969	 461.9674072265625
v 975.8455810546875	 32.11913299560547	 461.91937255859375
v 980.837646484375	 32.05636978149414	 461.6549377441406
v 985.7859497070312	 32.00151824951172	 460.96258544921875
v 990.5498657226562	 31.956809997558594	 459.4725646972656
v 994.952392578125	 31.915218353271484	 457.1153259277344
v 998.9641723632812	 31.876298904418945	 454.1372985839844
v 1002.5732421875	 31.837419509887695	 450.6815185546875
v 1005.722412109375	 31.797208786010742	 446.8025817871094
v 1008.2880249023438	 31.757770538330078	 442.517578125
v 1010.1376342773438	 31.72278594970703	 437.8776550292969
v 1011.4111938476562	 31.696670532226562	 433.04437255859375
v 1012.3428955078125	 31.681447982788086	 428.13226318359375
v 1013.0518798828125	 31.676841735839844	 423.18438720703125
v 1013.5830688476562	 31.67704200744629	 418.2147216796875
v 1014.0232543945312	 31.683916091918945	 413.2337341308594
v 1014.423095703125	 31.69552230834961	 408.2508850097656
v 1014.802978515625	 31.708171844482422	 403.267578125
v 1015.17236328125	 31.722654342651367	 398.2775573730469
v 1015.5350341796875	 31.738170623779297	 393.28985595703125
v 1015.893310546875	 31.750972747802734	 388.3016357421875
v 1016.2483520507812	 31.762645721435547	 383.31817626953125
v 1016.6015625	 31.772768020629883	 378.330078125
v 1016.9532470703125	 31.778209686279297	 373.3424072265625
v 1017.303955078125	 31.782100677490234	 368.3520202636719
v 1017.653564453125	 31.782100677490234	 363.36676025390625
v 1018.0028076171875	 31.782100677490234	 358.379150390625
v 1018.3519287109375	 31.778209686279297	 353.3907470703125
v 1018.700927734375	 31.770427703857422	 348.4022216796875
v 1019.0499267578125	 31.766536712646484	 343.41400146484375
v 1019.399169921875	 31.75875473022461	 338.4259948730469
v 1019.7486572265625	 31.754863739013672	 333.438232421875
v 1020.0986938476562	 31.750972747802734	 328.4505920410156
v 1020.4494018554688	 31.747081756591797	 323.4630126953125
v 1020.80078125	 31.74319076538086	 318.47528076171875
v 1021.153076171875	 31.74319076538086	 313.4874267578125
v 1021.5064086914062	 31.74513816833496	 308.49945068359375
v 1021.86083984375	 31.747081756591797	 303.5115051269531
v 1022.2164306640625	 31.747081756591797	 298.5237731933594
v 1022.5733642578125	 31.750972747802734	 293.5368957519531
v 1022.9317626953125	 31.750972747802734	 288.5498046875
v 1023.291748046875	 31.749269485473633	 283.56256103515625
v 1023.6535034179688	 31.747081756591797	 278.575439453125
v 1024.01708984375	 31.74319076538086	 273.58856201171875
v 1024.3826904296875	 31.739299774169922	 268.60186767578125
v 1024.750244140625	 31.735408782958984	 263.61517333984375
v 1025.1202392578125	 31.72762680053711	 258.6285705566406
v 1025.4927978515625	 31.723735809326172	 253.642333984375
v 1025.8677978515625	 31.718505859375	 248.65652465820312
v 1026.245361328125	 31.71206283569336	 243.67144775390625
v 1026.62548828125	 31.708171844482422	 238.68524169921875
v 1027.00830078125	 31.704280853271484	 233.69912719726562
v 1027.3935546875	 31.700389862060547	 228.71337890625
v 1027.781494140625	 31.6954402923584	 223.72802734375
v 1028.172119140625	 31.692607879638672	 218.742919921875
v 1028.5654296875	 31.688716888427734	 213.75808715820312
v 1028.961669921875	 31.684823989868164	 208.77352905273438
v 1029.3607177734375	 31.68011474609375	 203.78952026367188
v 1029.7630615234375	 31.67629051208496	 198.806640625
v 1030.168701171875	 31.669260025024414	 193.82528686523438
v 1030.57861328125	 31.66312026977539	 188.83804321289062
v 1030.9925537109375	 31.657024383544922	 183.85580444335938
v 1031.4114990234375	 31.64591407775879	 178.87240600585938
v 1031.8358154296875	 31.634241104125977	 173.89486694335938
v 1032.267333984375	 31.622230529785156	 168.91317749023438
v 1032.706787109375	 31.60673713684082	 163.93148803710938
v 1033.15576171875	 31.587350845336914	 158.9493408203125
v 1033.615234375	 31.567873001098633	 153.97134399414062
v 1034.087158203125	 31.544696807861328	 148.99392700195312
v 1034.5732421875	 31.52147674560547	 144.01968383789062
v 1035.0750732421875	 31.49822998046875	 139.04458618164062
v 1035.591552734375	 31.478879928588867	 134.07260131835938
v 1036.12060546875	 31.46342658996582	 129.100830078125
v 1036.6571044921875	 31.45525360107422	 124.12942504882812
v 1037.1920166015625	 31.458526611328125	 119.15850830078125
v 1037.71337890625	 31.473983764648438	 114.18612670898438
v 1038.210205078125	 31.501941680908203	 109.21096801757812
v 1038.683349609375	 31.541698455810547	 104.23345947265625
v 1039.1400146484375	 31.60369110107422	 99.25439453125
v 1039.586181640625	 31.649805068969727	 94.27447509765625
l 1 2
l 2 3
l 3 4
l 4 5
l 5 6
l 6 7
l 7 8
l 8 9
l 9 10
l 10 11
l 11 12
l 12 13
l 13 14
l 14 15
l 15 16
l 16 17
l 17 18
l 18 19
l 19 20
l 20 21
l 21 22
l 22 23
l 23 24
l 24 25
l 25 26
l 26 27
l 27 28
l 28 29
l 29 30
l 30 31
l 31 32
l 32 33
l 33 34
l 34 35
l 35 36
l 36 37
l 37 38
l 38 39
l 39 40
l 40 41
l 41 42
l 42 43
l 43 44
l 44 45
l 45 46
l 46 47
l 47 48
l 48 49
l 49 50
l 50 51
l 51 52
l 52 53
l 53 54
l 54 55
l 55 56
l 56 57
l 57 58
l 58 59
l 59 60
l 60 61
l 61 62
l 62 63
l 63 64
l 64 65
l 65 66
l 66 67
l 67 68
l 68 69
l 69 70
l 70 71
l 71 72
l 72 73
l 73 74
l 74 75
l 75 76
l 76 77
l 77 78
l 78 79
l 79 80
l 80 81
l 81 82
l 82 83
l 83 84
l 84 85
l 85 86
l 86 87
l 87 88
l 88 89
l 89 90
l 90 91
l 91 92
l 92 93
l 93 94
l 94 95
l 95 96
l 96 97
l 97 98
l 98 99
l 99 100
l 100 101
l 101 102
l 102 103
l 103 104
l 104 105
l 105 106
l 106 107
l 107 108
l 108 109
l 109 110
l 110 111
l 111 112
l 112 113
l 113 114
l 114 115
l 115 116
l 116 117
l 117 118
l 118 119
l 119 120
l 120 121
l 121 122
l 122 123
l 123 124
l 124 125
l 125 126
l 126 127
l 127 128
l 128 129
l 129 130
l 130 131
l 131 132
l 132 133
l 133 134
l 134 135
l 135 136
l 136 137
l 137 138
l 138 139
l 139 140
l 140 141
l 141 142
l 142 143
l 143 144
l 144 145
l 145 146
l 146 147
l 147 148
l 148 149
l 149 150
l 150 151
l 151 152
l 152 153
l 153 154
l 154 155
l 155 156
l 156 157
l 157 158
l 158 159
l 159 160
l 160 161
l 161 162
