# GE Spline Export primaryRoad09
v 1886.998046875	 31.315176010131836	 -2048.93798828125
v 1887.0108642578125	 31.279434204101562	 -2043.9381103515625
v 1887.080322265625	 31.232744216918945	 -2038.9385986328125
v 1887.2064208984375	 31.182186126708984	 -2033.9405517578125
v 1887.3614501953125	 31.131629943847656	 -2028.9429931640625
v 1887.53173828125	 31.07740020751953	 -2023.9461669921875
v 1887.7110595703125	 31.023881912231445	 -2018.9495849609375
v 1887.8966064453125	 30.96832275390625	 -2013.9530029296875
v 1888.0855712890625	 30.913894653320312	 -2008.9569091796875
v 1888.2763671875	 30.85946273803711	 -2003.9605712890625
v 1888.46826171875	 30.8051700592041	 -1998.96435546875
v 1888.6602783203125	 30.754615783691406	 -1993.968017578125
v 1888.852294921875	 30.707843780517578	 -1988.971923828125
v 1889.044189453125	 30.66128921508789	 -1983.9755859375
v 1889.2357177734375	 30.618513107299805	 -1978.9791259765625
v 1889.4261474609375	 30.579633712768555	 -1973.98291015625
v 1889.6158447265625	 30.54075050354004	 -1968.9864501953125
v 1889.803955078125	 30.50652313232422	 -1963.989990234375
v 1889.990966796875	 30.47854995727539	 -1958.99365234375
v 1890.1768798828125	 30.447460174560547	 -1953.9971923828125
v 1890.3604736328125	 30.42023277282715	 -1949.0003662109375
v 1890.542236328125	 30.39301109313965	 -1944.0035400390625
v 1890.7227783203125	 30.36967658996582	 -1939.0067138671875
v 1890.9019775390625	 30.346342086791992	 -1934.009765625
v 1891.080078125	 30.32300567626953	 -1929.012939453125
v 1891.2569580078125	 30.30356216430664	 -1924.015869140625
v 1891.4329833984375	 30.291828155517578	 -1919.01904296875
v 1891.608154296875	 30.28023910522461	 -1914.0218505859375
v 1891.7828369140625	 30.276264190673828	 -1909.024658203125
v 1891.9573974609375	 30.280048370361328	 -1904.0277099609375
v 1892.132080078125	 30.28404426574707	 -1899.0306396484375
v 1892.30615234375	 30.295591354370117	 -1894.0335693359375
v 1892.4803466796875	 30.307392120361328	 -1889.0364990234375
v 1892.6551513671875	 30.32669448852539	 -1884.03955078125
v 1892.8302001953125	 30.34613609313965	 -1879.0426025390625
v 1893.00537109375	 30.369293212890625	 -1874.0457763671875
v 1893.181396484375	 30.392807006835938	 -1869.0489501953125
v 1893.358154296875	 30.420032501220703	 -1864.052001953125
v 1893.5355224609375	 30.450931549072266	 -1859.0550537109375
v 1893.7139892578125	 30.47837257385254	 -1854.0582275390625
v 1893.892578125	 30.509489059448242	 -1849.0614013671875
v 1894.0721435546875	 30.54424476623535	 -1844.0645751953125
v 1894.2523193359375	 30.57560920715332	 -1839.0679931640625
v 1894.433349609375	 30.610340118408203	 -1834.0714111328125
v 1894.6143798828125	 30.64533233642578	 -1829.0745849609375
v 1894.7962646484375	 30.680326461791992	 -1824.0780029296875
v 1894.9781494140625	 30.71921157836914	 -1819.0814208984375
v 1895.1602783203125	 30.75420379638672	 -1814.084716796875
v 1895.3433837890625	 30.7930908203125	 -1809.0880126953125
v 1895.5262451171875	 30.831972122192383	 -1804.0914306640625
v 1895.7091064453125	 30.870859146118164	 -1799.0946044921875
v 1895.8922119140625	 30.913633346557617	 -1794.0980224609375
v 1896.0753173828125	 30.95990562438965	 -1789.101318359375
v 1896.2581787109375	 31.00307846069336	 -1784.1046142578125
v 1896.4410400390625	 31.049741744995117	 -1779.1080322265625
v 1896.6234130859375	 31.095972061157227	 -1774.1116943359375
v 1896.80615234375	 31.139183044433594	 -1769.1151123046875
v 1896.9884033203125	 31.185848236083984	 -1764.1185302734375
v 1897.1712646484375	 31.228811264038086	 -1759.1221923828125
v 1897.3543701171875	 31.275287628173828	 -1754.1256103515625
v 1897.53857421875	 31.315765380859375	 -1749.1290283203125
v 1897.724365234375	 31.35694694519043	 -1744.1324462890625
v 1897.911865234375	 31.395828247070312	 -1739.135986328125
v 1898.102783203125	 31.434711456298828	 -1734.1395263671875
v 1898.296875	 31.473590850830078	 -1729.1434326171875
v 1898.494140625	 31.512470245361328	 -1724.1474609375
v 1898.6959228515625	 31.555240631103516	 -1719.151611328125
v 1898.9019775390625	 31.59800910949707	 -1714.1558837890625
v 1899.1131591796875	 31.64077377319336	 -1709.1605224609375
v 1899.329345703125	 31.68743133544922	 -1704.1651611328125
v 1899.5513916015625	 31.734085083007812	 -1699.170166015625
v 1899.7791748046875	 31.779191970825195	 -1694.1756591796875
v 1900.0123291015625	 31.8234920501709	 -1689.18115234375
v 1900.2513427734375	 31.866249084472656	 -1684.1868896484375
v 1900.496337890625	 31.905113220214844	 -1679.1929931640625
v 1900.74609375	 31.9439754486084	 -1674.1993408203125
v 1900.9998779296875	 31.98283576965332	 -1669.2056884765625
v 1901.2572021484375	 32.01780319213867	 -1664.21240234375
v 1901.517822265625	 32.05276870727539	 -1659.2191162109375
v 1901.7816162109375	 32.09162139892578	 -1654.226318359375
v 1902.0467529296875	 32.12677001953125	 -1649.2332763671875
v 1902.3135986328125	 32.16544723510742	 -1644.2403564453125
v 1902.581298828125	 32.20819091796875	 -1639.2476806640625
v 1902.849609375	 32.249359130859375	 -1634.2550048828125
v 1903.1181640625	 32.29311752319336	 -1629.2623291015625
v 1903.3857421875	 32.336421966552734	 -1624.2696533203125
v 1903.65185546875	 32.38306427001953	 -1619.2767333984375
v 1903.9163818359375	 32.42826461791992	 -1614.2838134765625
v 1904.1773681640625	 32.47244644165039	 -1609.2906494140625
v 1904.4339599609375	 32.51129913330078	 -1604.2974853515625
v 1904.6837158203125	 32.54356384277344	 -1599.3035888671875
v 1904.9241943359375	 32.5629997253418	 -1594.3092041015625
v 1905.15234375	 32.565425872802734	 -1589.3143310546875
v 1905.3641357421875	 32.543338775634766	 -1584.3187255859375
v 1905.5562744140625	 32.49014663696289	 -1579.3226318359375
v 1905.72314453125	 32.403228759765625	 -1574.3260498046875
v 1905.8592529296875	 32.26885986328125	 -1569.32958984375
v 1905.9356689453125	 32.09100341796875	 -1564.3328857421875
v 1905.9168701171875	 31.891050338745117	 -1559.3348388671875
l 1 2
l 2 3
l 3 4
l 4 5
l 5 6
l 6 7
l 7 8
l 8 9
l 9 10
l 10 11
l 11 12
l 12 13
l 13 14
l 14 15
l 15 16
l 16 17
l 17 18
l 18 19
l 19 20
l 20 21
l 21 22
l 22 23
l 23 24
l 24 25
l 25 26
l 26 27
l 27 28
l 28 29
l 29 30
l 30 31
l 31 32
l 32 33
l 33 34
l 34 35
l 35 36
l 36 37
l 37 38
l 38 39
l 39 40
l 40 41
l 41 42
l 42 43
l 43 44
l 44 45
l 45 46
l 46 47
l 47 48
l 48 49
l 49 50
l 50 51
l 51 52
l 52 53
l 53 54
l 54 55
l 55 56
l 56 57
l 57 58
l 58 59
l 59 60
l 60 61
l 61 62
l 62 63
l 63 64
l 64 65
l 65 66
l 66 67
l 67 68
l 68 69
l 69 70
l 70 71
l 71 72
l 72 73
l 73 74
l 74 75
l 75 76
l 76 77
l 77 78
l 78 79
l 79 80
l 80 81
l 81 82
l 82 83
l 83 84
l 84 85
l 85 86
l 86 87
l 87 88
l 88 89
l 89 90
l 90 91
l 91 92
l 92 93
l 93 94
l 94 95
l 95 96
l 96 97
l 97 98
l 98 99
