# GE Spline Export primaryRoad05
v 422.71856689453125	 32.17604446411133	 557.4010009765625
v 427.31292724609375	 32.02841567993164	 559.3544921875
v 432.1888427734375	 31.632720947265625	 560.4371948242188
v 437.16070556640625	 31.418031692504883	 560.959228515625
v 442.1519470214844	 31.25656509399414	 561.2286376953125
v 447.14788818359375	 31.127113342285156	 561.3995971679688
v 452.14739990234375	 30.959461212158203	 561.5333862304688
v 457.1446838378906	 30.910505294799805	 561.6581420898438
v 462.1453857421875	 30.910505294799805	 561.7884521484375
v 467.13995361328125	 30.910505294799805	 561.9320068359375
v 472.138671875	 30.910505294799805	 562.092529296875
v 477.136474609375	 30.910505294799805	 562.2670288085938
v 482.1333923339844	 30.910505294799805	 562.451904296875
v 487.1302185058594	 30.910505294799805	 562.6449584960938
v 492.1269836425781	 30.9114933013916	 562.8443603515625
v 497.1233215332031	 30.957677841186523	 563.0487670898438
v 502.11883544921875	 31.00824546813965	 563.257080078125
v 507.11383056640625	 31.092201232910156	 563.46826171875
v 512.1094970703125	 31.121047973632812	 563.681396484375
v 517.107421875	 31.15301513671875	 563.8953247070312
v 522.1046142578125	 31.203554153442383	 564.1084594726562
v 527.1002197265625	 31.23813247680664	 564.31884765625
v 532.0946655273438	 31.292198181152344	 564.525634765625
v 537.0903930664062	 31.339223861694336	 564.7276611328125
v 542.0861206054688	 31.390445709228516	 564.9226684570312
v 547.0824584960938	 31.432228088378906	 565.1063842773438
v 552.078857421875	 31.498666763305664	 565.2640991210938
v 557.0697631835938	 31.541128158569336	 565.1165771484375
v 561.8883666992188	 31.57500457763672	 563.8377685546875
v 566.1206665039062	 31.61749839782715	 561.21484375
v 569.533935546875	 31.65007209777832	 557.5716552734375
v 572.4978637695312	 31.678977966308594	 553.5463256835938
l 1 2
l 2 3
l 3 4
l 4 5
l 5 6
l 6 7
l 7 8
l 8 9
l 9 10
l 10 11
l 11 12
l 12 13
l 13 14
l 14 15
l 15 16
l 16 17
l 17 18
l 18 19
l 19 20
l 20 21
l 21 22
l 22 23
l 23 24
l 24 25
l 25 26
l 26 27
l 27 28
l 28 29
l 29 30
l 30 31
l 31 32
