# GE Spline Export primaryRoad03
v -1130.0709228515625	 32.56393051147461	 2048.72802734375
v -1130.0877685546875	 32.55181121826172	 2043.7276611328125
v -1130.111572265625	 32.5406608581543	 2038.7274169921875
v -1130.1392822265625	 32.5452880859375	 2033.7274169921875
v -1130.168212890625	 32.553836822509766	 2028.7274169921875
v -1130.1982421875	 32.570701599121094	 2023.7271728515625
v -1130.2291259765625	 32.591285705566406	 2018.7271728515625
v -1130.26123046875	 32.60536575317383	 2013.7271728515625
v -1130.2940673828125	 32.6215705871582	 2008.7271728515625
v -1130.3282470703125	 32.62761306762695	 2003.7271728515625
v -1130.3634033203125	 32.62892532348633	 1998.7271728515625
v -1130.400146484375	 32.634246826171875	 1993.7269287109375
v -1130.4384765625	 32.636966705322266	 1988.7266845703125
v -1130.47900390625	 32.64679718017578	 1983.7266845703125
v -1130.5206298828125	 32.660736083984375	 1978.7266845703125
v -1130.5643310546875	 32.656005859375	 1973.7271728515625
v -1130.610595703125	 32.652801513671875	 1968.7271728515625
v -1130.6595458984375	 32.64957046508789	 1963.7271728515625
v -1130.71142578125	 32.632423400878906	 1958.7274169921875
v -1130.7664794921875	 32.61202621459961	 1953.7279052734375
v -1130.824462890625	 32.57108688354492	 1948.7279052734375
v -1130.8857421875	 32.528961181640625	 1943.7286376953125
v -1130.9505615234375	 32.503196716308594	 1938.7288818359375
v -1131.0185546875	 32.464778900146484	 1933.7293701171875
v -1131.0894775390625	 32.430782318115234	 1928.7296142578125
v -1131.1634521484375	 32.408634185791016	 1923.7301025390625
v -1131.2403564453125	 32.415035247802734	 1918.7305908203125
v -1131.3193359375	 32.49039840698242	 1913.7313232421875
v -1131.400390625	 32.50555419921875	 1908.7318115234375
v -1131.4833984375	 32.45155715942383	 1903.7325439453125
v -1131.568115234375	 32.49256896972656	 1898.7330322265625
v -1131.6531982421875	 32.61802673339844	 1893.7352294921875
v -1131.739013671875	 32.836708068847656	 1888.7398681640625
v -1131.8250732421875	 33.02766418457031	 1883.7432861328125
v -1131.9110107421875	 33.034236907958984	 1878.7442626953125
v -1131.9979248046875	 32.92787170410156	 1873.7457275390625
v -1132.084716796875	 32.82553482055664	 1868.7474365234375
v -1132.1710205078125	 32.74880599975586	 1863.7486572265625
v -1132.2576904296875	 32.701568603515625	 1858.7496337890625
v -1132.3441162109375	 32.66501998901367	 1853.7503662109375
v -1132.4307861328125	 32.620689392089844	 1848.751220703125
v -1132.516845703125	 32.58509826660156	 1843.7518310546875
v -1132.60205078125	 32.5601806640625	 1838.7525634765625
v -1132.6878662109375	 32.547916412353516	 1833.7530517578125
v -1132.7728271484375	 32.55119323730469	 1828.753662109375
v -1132.857666015625	 32.569618225097656	 1823.7542724609375
v -1132.9420166015625	 32.59633255004883	 1818.7550048828125
v -1133.0260009765625	 32.61817169189453	 1813.755615234375
v -1133.10986328125	 32.61687088012695	 1808.7559814453125
v -1133.194091796875	 32.59514236450195	 1803.756591796875
v -1133.27880859375	 32.58085250854492	 1798.7572021484375
v -1133.364013671875	 32.580596923828125	 1793.7576904296875
v -1133.4498291015625	 32.56734085083008	 1788.7584228515625
v -1133.5362548828125	 32.51252365112305	 1783.7593994140625
v -1133.6241455078125	 32.4359016418457	 1778.760498046875
v -1133.7132568359375	 32.39426803588867	 1773.76123046875
v -1133.8040771484375	 32.38376998901367	 1768.761962890625
v -1133.896240234375	 32.38105773925781	 1763.7623291015625
v -1133.990234375	 32.38395309448242	 1758.7633056640625
v -1134.08544921875	 32.379425048828125	 1753.763671875
v -1134.18310546875	 32.382415771484375	 1748.7645263671875
v -1134.282470703125	 32.3812370300293	 1743.7655029296875
v -1134.3843994140625	 32.381614685058594	 1738.7664794921875
v -1134.488525390625	 32.37617111206055	 1733.767578125
v -1134.59521484375	 32.37104034423828	 1728.7684326171875
v -1134.704345703125	 32.369815826416016	 1723.769287109375
v -1134.8162841796875	 32.366214752197266	 1718.7706298828125
v -1134.9305419921875	 32.36216735839844	 1713.771728515625
v -1135.0474853515625	 32.35926818847656	 1708.77294921875
v -1135.167236328125	 32.363182067871094	 1703.7744140625
v -1135.288330078125	 32.3532829284668	 1698.7755126953125
v -1135.4119873046875	 32.34498596191406	 1693.77685546875
v -1135.536376953125	 32.3453483581543	 1688.778564453125
v -1135.6619873046875	 32.375144958496094	 1683.780029296875
v -1135.7880859375	 32.40528869628906	 1678.7816162109375
v -1135.9141845703125	 32.42787551879883	 1673.7830810546875
v -1136.0411376953125	 32.45252227783203	 1668.78466796875
v -1136.16796875	 32.47037124633789	 1663.7861328125
v -1136.2940673828125	 32.48432159423828	 1658.78759765625
v -1136.419921875	 32.50478744506836	 1653.7890625
v -1136.544921875	 32.529273986816406	 1648.7904052734375
v -1136.6689453125	 32.54952621459961	 1643.7918701171875
v -1136.7919921875	 32.57328414916992	 1638.7933349609375
v -1136.913818359375	 32.599422454833984	 1633.7947998046875
v -1137.0350341796875	 32.62015151977539	 1628.796142578125
v -1137.155029296875	 32.641937255859375	 1623.7974853515625
v -1137.27392578125	 32.66194152832031	 1618.798828125
v -1137.3909912109375	 32.67601776123047	 1613.80029296875
v -1137.5062255859375	 32.693572998046875	 1608.801513671875
v -1137.620849609375	 32.71045684814453	 1603.802734375
v -1137.734130859375	 32.726097106933594	 1598.8040771484375
v -1137.8458251953125	 32.74108123779297	 1593.8050537109375
v -1137.9560546875	 32.74892044067383	 1588.80615234375
v -1138.0648193359375	 32.756126403808594	 1583.807373046875
v -1138.172119140625	 32.758140563964844	 1578.8084716796875
v -1138.2781982421875	 32.7539176940918	 1573.8095703125
v -1138.383544921875	 32.75123977661133	 1568.810302734375
v -1138.4871826171875	 32.744686126708984	 1563.811279296875
v -1138.5899658203125	 32.73977279663086	 1558.812255859375
v -1138.6920166015625	 32.73898696899414	 1553.813232421875
v -1138.793212890625	 32.7297248840332	 1548.814208984375
v -1138.89404296875	 32.722679138183594	 1543.815185546875
v -1138.9940185546875	 32.71498107910156	 1538.8160400390625
v -1139.093017578125	 32.701847076416016	 1533.8170166015625
v -1139.1912841796875	 32.6846923828125	 1528.81787109375
v -1139.289306640625	 32.66865158081055	 1523.81884765625
v -1139.386962890625	 32.657257080078125	 1518.819580078125
v -1139.48388671875	 32.652496337890625	 1513.820556640625
v -1139.5802001953125	 32.646080017089844	 1508.8214111328125
v -1139.6763916015625	 32.64110565185547	 1503.8223876953125
v -1139.7720947265625	 32.6402473449707	 1498.8232421875
v -1139.8677978515625	 32.631961822509766	 1493.8240966796875
v -1139.96240234375	 32.62859344482422	 1488.824951171875
v -1140.057373046875	 32.62779998779297	 1483.8258056640625
v -1140.152099609375	 32.62281799316406	 1478.82666015625
v -1140.2462158203125	 32.62245178222656	 1473.8275146484375
v -1140.3402099609375	 32.62081527709961	 1468.8282470703125
v -1140.43408203125	 32.61595916748047	 1463.8289794921875
v -1140.528076171875	 32.61499786376953	 1458.8297119140625
v -1140.6219482421875	 32.611751556396484	 1453.8306884765625
v -1140.7152099609375	 32.61259460449219	 1448.83154296875
v -1140.808837890625	 32.6190185546875	 1443.8323974609375
v -1140.9022216796875	 32.61838150024414	 1438.833251953125
v -1140.9952392578125	 32.62238311767578	 1433.833740234375
v -1141.0882568359375	 32.62428665161133	 1428.8345947265625
v -1141.18115234375	 32.62290573120117	 1423.835205078125
v -1141.2742919921875	 32.628971099853516	 1418.8358154296875
v -1141.3677978515625	 32.630516052246094	 1413.8365478515625
v -1141.4605712890625	 32.6273307800293	 1408.8372802734375
v -1141.5540771484375	 32.62751388549805	 1403.838134765625
v -1141.6470947265625	 32.62514877319336	 1398.8388671875
v -1141.740234375	 32.62802505493164	 1393.8397216796875
v -1141.8331298828125	 32.635528564453125	 1388.8404541015625
v -1141.9263916015625	 32.63887405395508	 1383.8411865234375
v -1142.02001953125	 32.64249038696289	 1378.842041015625
v -1142.1134033203125	 32.64078140258789	 1373.8427734375
v -1142.20703125	 32.635379791259766	 1368.8436279296875
v -1142.3004150390625	 32.63075256347656	 1363.8443603515625
v -1142.3941650390625	 32.62255859375	 1358.844970703125
v -1142.48828125	 32.61381912231445	 1353.8458251953125
v -1142.58203125	 32.611820220947266	 1348.8465576171875
v -1142.675537109375	 32.6021614074707	 1343.847412109375
v -1142.7701416015625	 32.597164154052734	 1338.8482666015625
v -1142.8641357421875	 32.59288024902344	 1333.84912109375
v -1142.9581298828125	 32.58932113647461	 1328.849853515625
v -1143.0523681640625	 32.59307098388672	 1323.850830078125
v -1143.14697265625	 32.59658432006836	 1318.8516845703125
v -1143.2413330078125	 32.597511291503906	 1313.8524169921875
v -1143.3359375	 32.60451126098633	 1308.853271484375
v -1143.4302978515625	 32.60761642456055	 1303.85400390625
v -1143.5252685546875	 32.60798645019531	 1298.8548583984375
v -1143.6202392578125	 32.607791900634766	 1293.855712890625
v -1143.7152099609375	 32.60648727416992	 1288.8564453125
v -1143.8101806640625	 32.6027717590332	 1283.8572998046875
v -1143.9051513671875	 32.60591506958008	 1278.8580322265625
v -1144.0001220703125	 32.60700607299805	 1273.85888671875
v -1144.0953369140625	 32.614410400390625	 1268.8597412109375
v -1144.1910400390625	 32.62202072143555	 1263.860595703125
v -1144.2862548828125	 32.62981414794922	 1258.861328125
v -1144.38134765625	 32.64129638671875	 1253.8621826171875
v -1144.4771728515625	 32.64688491821289	 1248.863037109375
v -1144.572998046875	 32.649322509765625	 1243.8638916015625
v -1144.668212890625	 32.65324020385742	 1238.8646240234375
v -1144.76416015625	 32.64513397216797	 1233.8656005859375
v -1144.8599853515625	 32.638832092285156	 1228.8663330078125
v -1144.955322265625	 32.639244079589844	 1223.8670654296875
v -1145.0511474609375	 32.63194274902344	 1218.867919921875
v -1145.1470947265625	 32.630523681640625	 1213.8687744140625
v -1145.2432861328125	 32.627197265625	 1208.8695068359375
v -1145.339111328125	 32.624088287353516	 1203.870361328125
v -1145.4351806640625	 32.62782669067383	 1198.8712158203125
v -1145.5321044921875	 32.625389099121094	 1193.8719482421875
v -1145.6280517578125	 32.62221145629883	 1188.872802734375
v -1145.7242431640625	 32.62583541870117	 1183.87353515625
v -1145.8209228515625	 32.62150192260742	 1178.87451171875
v -1145.9171142578125	 32.61837387084961	 1173.8753662109375
v -1146.0133056640625	 32.61471939086914	 1168.8760986328125
v -1146.1099853515625	 32.606056213378906	 1163.876953125
v -1146.2069091796875	 32.602577209472656	 1158.8778076171875
v -1146.3033447265625	 32.59769821166992	 1153.8785400390625
v -1146.4000244140625	 32.59143829345703	 1148.8795166015625
v -1146.4971923828125	 32.59522247314453	 1143.88037109375
v -1146.593994140625	 32.59120559692383	 1138.8812255859375
v -1146.691162109375	 32.58600616455078	 1133.882080078125
v -1146.7880859375	 32.57802200317383	 1128.8828125
v -1146.8851318359375	 32.5661735534668	 1123.8836669921875
v -1146.9820556640625	 32.55940246582031	 1118.884765625
v -1147.0791015625	 32.55110168457031	 1113.885498046875
v -1147.1761474609375	 32.542449951171875	 1108.886474609375
v -1147.2730712890625	 32.54007339477539	 1103.8873291015625
v -1147.3702392578125	 32.53825759887695	 1098.88818359375
v -1147.4678955078125	 32.537784576416016	 1093.8890380859375
v -1147.5653076171875	 32.54677963256836	 1088.889892578125
v -1147.6629638671875	 32.556758880615234	 1083.8909912109375
v -1147.7603759765625	 32.57163619995117	 1078.891845703125
v -1147.858154296875	 32.5760383605957	 1073.8927001953125
v -1147.9559326171875	 32.56596374511719	 1068.8934326171875
v -1148.0533447265625	 32.5578727722168	 1063.894287109375
v -1148.151123046875	 32.5494499206543	 1058.8951416015625
v -1148.2491455078125	 32.54861068725586	 1053.89599609375
v -1148.34716796875	 32.55865478515625	 1048.89697265625
v -1148.445068359375	 32.565956115722656	 1043.8978271484375
v -1148.5430908203125	 32.57366180419922	 1038.8985595703125
v -1148.6412353515625	 32.5838623046875	 1033.8995361328125
v -1148.7391357421875	 32.583778381347656	 1028.900390625
v -1148.8372802734375	 32.583839416503906	 1023.9013671875
v -1148.9361572265625	 32.58393859863281	 1018.9022216796875
v -1149.0343017578125	 32.576568603515625	 1013.903076171875
v -1149.1329345703125	 32.56834030151367	 1008.9039306640625
v -1149.2313232421875	 32.55936050415039	 1003.90478515625
v -1149.3302001953125	 32.54463577270508	 998.9056396484375
v -1149.42919921875	 32.53439712524414	 993.9066162109375
v -1149.5281982421875	 32.51583480834961	 988.9075927734375
v -1149.627197265625	 32.49486541748047	 983.9083251953125
v -1149.7261962890625	 32.48280334472656	 978.9093017578125
v -1149.8251953125	 32.46687698364258	 973.9102783203125
v -1149.9241943359375	 32.459495544433594	 968.9112548828125
v -1150.0233154296875	 32.459869384765625	 963.9122314453125
v -1150.1229248046875	 32.455665588378906	 958.9130859375
v -1150.2222900390625	 32.46001052856445	 953.9139404296875
v -1150.3221435546875	 32.463565826416016	 948.9150390625
v -1150.4219970703125	 32.457427978515625	 943.9158935546875
v -1150.5213623046875	 32.452362060546875	 938.9168701171875
v -1150.621337890625	 32.4333610534668	 933.917724609375
v -1150.7213134765625	 32.41360092163086	 928.918701171875
v -1150.8212890625	 32.399208068847656	 923.919677734375
v -1150.92138671875	 32.38092803955078	 918.9205322265625
v -1151.0220947265625	 32.37002944946289	 913.9215087890625
v -1151.1224365234375	 32.361488342285156	 908.9222412109375
v -1151.2230224609375	 32.353816986083984	 903.923095703125
v -1151.3233642578125	 32.353736877441406	 898.9239501953125
v -1151.424072265625	 32.355018615722656	 893.9249267578125
v -1151.5252685546875	 32.351173400878906	 888.9259033203125
v -1151.6260986328125	 32.35364532470703	 883.9267578125
v -1151.7271728515625	 32.350189208984375	 878.927734375
v -1151.8282470703125	 32.3460693359375	 873.9285888671875
v -1151.9293212890625	 32.34300231933594	 868.9295654296875
v -1152.030517578125	 32.33557891845703	 863.9305419921875
v -1152.1322021484375	 32.33485412597656	 858.9315185546875
v -1152.2335205078125	 32.337100982666016	 853.932373046875
v -1152.335205078125	 32.33339309692383	 848.9334716796875
v -1152.4373779296875	 32.33049392700195	 843.9345703125
v -1152.5391845703125	 32.33170700073242	 838.935546875
v -1152.6412353515625	 32.32571029663086	 833.9365844726562
v -1152.743408203125	 32.31761932373047	 828.9375
v -1152.845458984375	 32.30479431152344	 823.9385375976562
v -1152.9481201171875	 32.28937530517578	 818.9395751953125
v -1153.0504150390625	 32.277442932128906	 813.9404907226562
v -1153.1529541015625	 32.26816177368164	 808.9415283203125
v -1153.255615234375	 32.26277542114258	 803.9425659179688
v -1153.3582763671875	 32.267669677734375	 798.9435424804688
v -1153.461181640625	 32.275360107421875	 793.9445190429688
v -1153.5643310546875	 32.287742614746094	 788.945556640625
v -1153.6673583984375	 32.29034423828125	 783.946533203125
v -1153.7711181640625	 32.29159164428711	 778.9475708007812
v -1153.87451171875	 32.303001403808594	 773.9486083984375
v -1153.9781494140625	 32.31043243408203	 768.9495849609375
v -1154.0814208984375	 32.3173942565918	 763.9505615234375
v -1154.185302734375	 32.324832916259766	 758.9515380859375
v -1154.2891845703125	 32.3214111328125	 753.9525146484375
v -1154.393310546875	 32.321163177490234	 748.9534912109375
v -1154.4971923828125	 32.32480239868164	 743.95458984375
v -1154.6014404296875	 32.326904296875	 738.95556640625
v -1154.7061767578125	 32.342655181884766	 733.9567260742188
v -1154.8104248046875	 32.361534118652344	 728.9576416015625
v -1154.915283203125	 32.377525329589844	 723.958740234375
v -1155.020263671875	 32.401485443115234	 718.9597778320312
v -1155.1253662109375	 32.41635513305664	 713.9609375
v -1155.230224609375	 32.42455291748047	 708.9619750976562
v -1155.3353271484375	 32.44120788574219	 703.9630126953125
v -1155.4405517578125	 32.45075988769531	 698.964111328125
v -1155.546142578125	 32.46306610107422	 693.9651489257812
v -1155.6514892578125	 32.479244232177734	 688.9663696289062
v -1155.75732421875	 32.49061584472656	 683.9674072265625
v -1155.8634033203125	 32.49945831298828	 678.9686279296875
v -1155.9693603515625	 32.504051208496094	 673.9696044921875
v -1156.075439453125	 32.49291229248047	 668.9707641601562
v -1156.1822509765625	 32.488765716552734	 663.9718627929688
v -1156.28857421875	 32.47405242919922	 658.972900390625
v -1156.3951416015625	 32.46049118041992	 653.9740600585938
v -1156.5015869140625	 32.45717239379883	 648.9752807617188
v -1156.6082763671875	 32.44863510131836	 643.9762573242188
v -1156.71533203125	 32.44974136352539	 638.977294921875
v -1156.8223876953125	 32.45076370239258	 633.9783325195312
v -1156.929443359375	 32.447792053222656	 628.9794921875
v -1157.0372314453125	 32.452598571777344	 623.980712890625
v -1157.1444091796875	 32.46031188964844	 618.9818115234375
v -1157.2523193359375	 32.468963623046875	 613.9829711914062
v -1157.3603515625	 32.48100662231445	 608.9841918945312
v -1157.4683837890625	 32.4926872253418	 603.9852294921875
v -1157.576416015625	 32.50392150878906	 598.9864501953125
v -1157.6844482421875	 32.517112731933594	 593.9874267578125
v -1157.793212890625	 32.52570343017578	 588.9886474609375
v -1157.9014892578125	 32.53510665893555	 583.9898071289062
v -1158.0103759765625	 32.53343963623047	 578.9909057617188
v -1158.1192626953125	 32.529930114746094	 573.9920043945312
v -1158.2283935546875	 32.5341796875	 568.9931030273438
v -1158.3372802734375	 32.53450393676758	 563.994140625
v -1158.4462890625	 32.53445816040039	 558.995361328125
v -1158.5555419921875	 32.54734420776367	 553.9965209960938
v -1158.665283203125	 32.55116271972656	 548.9976806640625
v -1158.7745361328125	 32.55581283569336	 543.998779296875
v -1158.8841552734375	 32.553550720214844	 538.9999389648438
v -1158.99365234375	 32.540470123291016	 534.001220703125
v -1159.1033935546875	 32.52932357788086	 529.0023803710938
v -1159.21337890625	 32.51887893676758	 524.0036010742188
v -1159.3231201171875	 32.51314163208008	 519.0047607421875
v -1159.4324951171875	 32.52045822143555	 514.005859375
v -1159.5423583984375	 32.52337646484375	 509.0069580078125
v -1159.65234375	 32.5194091796875	 504.00811767578125
v -1159.7623291015625	 32.52012252807617	 499.00927734375
v -1159.8720703125	 32.51057815551758	 494.01025390625
v -1159.9815673828125	 32.5047607421875	 489.01141357421875
v -1160.09130859375	 32.49740982055664	 484.01251220703125
v -1160.2012939453125	 32.49032211303711	 479.013671875
v -1160.3111572265625	 32.49070739746094	 474.0147705078125
v -1160.42041015625	 32.4965934753418	 469.0159912109375
v -1160.5303955078125	 32.493587493896484	 464.01715087890625
v -1160.6402587890625	 32.49931335449219	 459.018310546875
v -1160.74951171875	 32.50094985961914	 454.0194091796875
v -1160.859130859375	 32.502052307128906	 449.0205078125
v -1160.9683837890625	 32.511898040771484	 444.021728515625
v -1161.077392578125	 32.51243591308594	 439.02294921875
v -1161.1864013671875	 32.51625442504883	 434.0240478515625
v -1161.2952880859375	 32.521217346191406	 429.025146484375
v -1161.4041748046875	 32.515350341796875	 424.02630615234375
v -1161.512451171875	 32.51609802246094	 419.02734375
v -1161.6212158203125	 32.516971588134766	 414.0284423828125
v -1161.7296142578125	 32.51278305053711	 409.0296630859375
v -1161.8382568359375	 32.51396942138672	 404.03076171875
v -1161.9461669921875	 32.51102066040039	 399.031982421875
v -1162.053466796875	 32.499717712402344	 394.0330810546875
v -1162.1611328125	 32.49542236328125	 389.0343017578125
v -1162.268310546875	 32.48514938354492	 384.035400390625
v -1162.375244140625	 32.48152542114258	 379.03643798828125
v -1162.4822998046875	 32.485694885253906	 374.03759765625
v -1162.589111328125	 32.488250732421875	 369.0386962890625
v -1162.6954345703125	 32.495506286621094	 364.03973388671875
v -1162.802001953125	 32.49597930908203	 359.0408935546875
v -1162.907470703125	 32.49301528930664	 354.04193115234375
v -1163.01318359375	 32.49846649169922	 349.04296875
v -1163.1182861328125	 32.502197265625	 344.0440673828125
v -1163.2232666015625	 32.509765625	 339.045166015625
v -1163.3275146484375	 32.5224723815918	 334.0462951660156
v -1163.4320068359375	 32.52432632446289	 329.0473327636719
v -1163.5355224609375	 32.53065490722656	 324.04840087890625
v -1163.63916015625	 32.541866302490234	 319.0494689941406
v -1163.7421875	 32.55385208129883	 314.0504150390625
v -1163.8443603515625	 32.5788688659668	 309.051513671875
v -1163.9462890625	 32.59977722167969	 304.0524597167969
v -1164.04833984375	 32.61648178100586	 299.0535583496094
v -1164.150146484375	 32.624149322509766	 294.0545654296875
v -1164.2510986328125	 32.56463623046875	 289.0557556152344
v -1164.3514404296875	 32.55801010131836	 284.0567626953125
v -1164.4521484375	 32.552528381347656	 279.05780029296875
v -1164.55224609375	 32.552528381347656	 274.0587158203125
v -1164.6514892578125	 32.56420135498047	 269.05963134765625
v -1164.7510986328125	 32.566890716552734	 264.0606689453125
v -1164.850341796875	 32.66616439819336	 259.0619812011719
v -1164.9490966796875	 32.63240051269531	 254.06292724609375
v -1165.04736328125	 32.58180236816406	 249.0640869140625
v -1165.1453857421875	 32.541996002197266	 244.065185546875
v -1165.2432861328125	 32.520503997802734	 239.06610107421875
v -1165.34130859375	 32.512569427490234	 234.0670166015625
v -1165.4390869140625	 32.5156135559082	 229.06796264648438
v -1165.5362548828125	 32.52642059326172	 224.06884765625
v -1165.63330078125	 32.535526275634766	 219.06982421875
v -1165.7303466796875	 32.5417594909668	 214.07073974609375
v -1165.8275146484375	 32.552650451660156	 209.07168579101562
v -1165.9241943359375	 32.552879333496094	 204.0726318359375
v -1166.0205078125	 32.5530891418457	 199.07354736328125
v -1166.1171875	 32.552284240722656	 194.074462890625
v -1166.2135009765625	 32.5513916015625	 189.0753173828125
v -1166.310302734375	 32.55172348022461	 184.076171875
v -1166.406494140625	 32.54530334472656	 179.0771484375
v -1166.50244140625	 32.53932189941406	 174.0780029296875
v -1166.5985107421875	 32.53767013549805	 169.0789794921875
v -1166.6947021484375	 32.530799865722656	 164.0799560546875
v -1166.791259765625	 32.530296325683594	 159.08084106445312
v -1166.887451171875	 32.52381134033203	 154.08175659179688
v -1166.9835205078125	 32.51654815673828	 149.08270263671875
v -1167.0794677734375	 32.5128173828125	 144.08358764648438
v -1167.1756591796875	 32.50878143310547	 139.08447265625
v -1167.272216796875	 32.501922607421875	 134.0853271484375
v -1167.36865234375	 32.50605010986328	 129.0863037109375
v -1167.4647216796875	 32.504188537597656	 124.08712768554688
v -1167.5614013671875	 32.508358001708984	 119.08804321289062
v -1167.6583251953125	 32.51677322387695	 114.08895874023438
v -1167.7547607421875	 32.516780853271484	 109.08987426757812
v -1167.8514404296875	 32.52166748046875	 104.0908203125
v -1167.94873046875	 32.526390075683594	 99.091796875
v -1168.0462646484375	 32.52690887451172	 94.09268188476562
v -1168.1435546875	 32.534210205078125	 89.09365844726562
v -1168.2406005859375	 32.53559112548828	 84.09457397460938
v -1168.3385009765625	 32.543670654296875	 79.09552001953125
v -1168.4366455078125	 32.553462982177734	 74.096435546875
v -1168.534423828125	 32.56010437011719	 69.09744262695312
v -1168.6324462890625	 32.567527770996094	 64.09844970703125
v -1168.730712890625	 32.57183074951172	 59.099456787109375
v -1168.829345703125	 32.57303237915039	 54.10047912597656
v -1168.9278564453125	 32.57499313354492	 49.101409912109375
v -1169.0264892578125	 32.57700729370117	 44.10234069824219
v -1169.125732421875	 32.570472717285156	 39.10333251953125
v -1169.225341796875	 32.571712493896484	 34.10438537597656
v -1169.32470703125	 32.57284164428711	 29.105361938476562
v -1169.4244384765625	 32.567867279052734	 24.106307983398438
v -1169.5245361328125	 32.563690185546875	 19.1072998046875
v -1169.62451171875	 32.55049133300781	 14.108306884765625
v -1169.7247314453125	 32.544246673583984	 9.1092529296875
v -1169.8253173828125	 32.54165267944336	 4.110260009765625
v -1169.9256591796875	 32.52859115600586	 -0.888824462890625
v -1170.0267333984375	 32.52254867553711	 -5.887847900390625
v -1170.1282958984375	 32.51176834106445	 -10.886749267578125
v -1170.2296142578125	 32.49365234375	 -15.8857421875
v -1170.331298828125	 32.48757553100586	 -20.884765625
v -1170.4327392578125	 32.47538757324219	 -25.88385009765625
v -1170.53466796875	 32.46148681640625	 -30.882781982421875
v -1170.637451171875	 32.455421447753906	 -35.8818359375
v -1170.7396240234375	 32.44440841674805	 -40.88084411621094
v -1170.8426513671875	 32.43875503540039	 -45.87982177734375
v -1170.945556640625	 32.43629837036133	 -50.87886047363281
v -1171.048583984375	 32.43009948730469	 -55.877906799316406
v -1171.151611328125	 32.43061447143555	 -60.876922607421875
v -1171.2554931640625	 32.43116760253906	 -65.87574005126953
v -1171.359619140625	 32.4365348815918	 -70.87458801269531
v -1171.463623046875	 32.44577407836914	 -75.87358856201172
v -1171.5677490234375	 32.448951721191406	 -80.87240600585938
v -1171.6724853515625	 32.447811126708984	 -85.87132263183594
v -1171.77685546875	 32.45389938354492	 -90.87014770507812
v -1171.8817138671875	 32.451778411865234	 -95.86917114257812
v -1171.9874267578125	 32.45442199707031	 -100.86798095703125
v -1172.0927734375	 32.459224700927734	 -105.86695861816406
v -1172.198486328125	 32.45673751831055	 -110.86590576171875
v -1172.3045654296875	 32.465579986572266	 -115.86466979980469
v -1172.41064453125	 32.46824264526367	 -120.86358642578125
v -1172.5167236328125	 32.47172927856445	 -125.86236572265625
v -1172.6236572265625	 32.481441497802734	 -130.8612518310547
v -1172.73046875	 32.48181915283203	 -135.8600616455078
v -1172.8375244140625	 32.47952651977539	 -140.85882568359375
v -1172.9447021484375	 32.47938537597656	 -145.85769653320312
v -1173.052490234375	 32.47382736206055	 -150.8565673828125
v -1173.159912109375	 32.47501754760742	 -155.85533142089844
v -1173.268310546875	 32.474327087402344	 -160.85403442382812
v -1173.376708984375	 32.470924377441406	 -165.85292053222656
v -1173.4847412109375	 32.47187423706055	 -170.85183715820312
v -1173.5936279296875	 32.46166229248047	 -175.85073852539062
v -1173.7025146484375	 32.44898986816406	 -180.84942626953125
v -1173.8118896484375	 32.44670104980469	 -185.84815979003906
v -1173.9215087890625	 32.43478775024414	 -190.8468475341797
v -1174.031494140625	 32.42242431640625	 -195.8455810546875
v -1174.140869140625	 32.42012405395508	 -200.8444061279297
v -1174.25146484375	 32.411197662353516	 -205.84304809570312
v -1174.36181640625	 32.401649475097656	 -210.8419189453125
v -1174.472412109375	 32.393951416015625	 -215.8406982421875
v -1174.583740234375	 32.37937927246094	 -220.83941650390625
v -1174.694580078125	 32.378501892089844	 -225.83827209472656
v -1174.8057861328125	 32.3754997253418	 -230.8369140625
v -1174.9176025390625	 32.36808776855469	 -235.83567810058594
v -1175.0296630859375	 32.36790084838867	 -240.83433532714844
v -1175.1416015625	 32.362449645996094	 -245.83316040039062
v -1175.2537841796875	 32.360782623291016	 -250.83200073242188
v -1175.36669921875	 32.36304473876953	 -255.83065795898438
v -1175.479736328125	 32.35671615600586	 -260.829345703125
v -1175.5926513671875	 32.355960845947266	 -265.82794189453125
v -1175.7056884765625	 32.354068756103516	 -270.8267822265625
v -1175.8193359375	 32.34602737426758	 -275.8255615234375
v -1175.9327392578125	 32.34989929199219	 -280.8243408203125
v -1176.0467529296875	 32.35288619995117	 -285.8229675292969
v -1176.1614990234375	 32.35064697265625	 -290.82171630859375
v -1176.27587890625	 32.35529327392578	 -295.8204345703125
v -1176.390380859375	 32.35118865966797	 -300.81915283203125
v -1176.5050048828125	 32.3575439453125	 -305.8177185058594
v -1176.620361328125	 32.36453628540039	 -310.81634521484375
v -1176.735595703125	 32.36661148071289	 -315.81500244140625
v -1176.8507080078125	 32.375919342041016	 -320.81365966796875
v -1176.96630859375	 32.37909698486328	 -325.81243896484375
v -1177.0816650390625	 32.37419891357422	 -330.8111572265625
v -1177.1976318359375	 32.375755310058594	 -335.80987548828125
v -1177.313720703125	 32.37117385864258	 -340.80859375
v -1177.430419921875	 32.365318298339844	 -345.8072814941406
v -1177.5467529296875	 32.36866760253906	 -350.8060302734375
v -1177.66357421875	 32.366851806640625	 -355.80462646484375
v -1177.7806396484375	 32.36984634399414	 -360.80322265625
v -1177.8975830078125	 32.373748779296875	 -365.80181884765625
v -1178.0146484375	 32.37044906616211	 -370.8003845214844
v -1178.1314697265625	 32.3690299987793	 -375.7991027832031
v -1178.2486572265625	 32.3684196472168	 -380.79766845703125
v -1178.3665771484375	 32.358245849609375	 -385.7962646484375
v -1178.4842529296875	 32.36088562011719	 -390.7947692871094
v -1178.6016845703125	 32.36275863647461	 -395.79345703125
v -1178.719482421875	 32.36167907714844	 -400.79205322265625
v -1178.8375244140625	 32.37238693237305	 -405.7905578613281
v -1178.9561767578125	 32.378082275390625	 -410.78912353515625
v -1179.074462890625	 32.3853759765625	 -415.7877197265625
v -1179.1925048828125	 32.39570236206055	 -420.7862243652344
v -1179.3114013671875	 32.399497985839844	 -425.7848205566406
v -1179.430419921875	 32.413387298583984	 -430.7833251953125
v -1179.54931640625	 32.424591064453125	 -435.78192138671875
v -1179.6676025390625	 32.433265686035156	 -440.7804260253906
v -1179.78662109375	 32.45029067993164	 -445.77899169921875
v -1179.90625	 32.45697021484375	 -450.77752685546875
v -1180.025390625	 32.45741271972656	 -455.776123046875
v -1180.1446533203125	 32.452335357666016	 -460.7747802734375
v -1180.2645263671875	 32.436553955078125	 -465.7732849121094
v -1180.38427734375	 32.43098831176758	 -470.7718505859375
v -1180.5035400390625	 32.4282341003418	 -475.7705383300781
v -1180.623291015625	 32.422550201416016	 -480.76898193359375
v -1180.743408203125	 32.426605224609375	 -485.7674560546875
v -1180.8634033203125	 32.426231384277344	 -490.76605224609375
v -1180.9832763671875	 32.422889709472656	 -495.7645263671875
v -1181.1036376953125	 32.42547607421875	 -500.7630920410156
v -1181.22412109375	 32.417808532714844	 -505.7615661621094
v -1181.344482421875	 32.4169921875	 -510.7601318359375
v -1181.4652099609375	 32.42316818237305	 -515.7586059570312
v -1181.58544921875	 32.423274993896484	 -520.7572021484375
v -1181.706298828125	 32.432613372802734	 -525.755859375
v -1181.8272705078125	 32.435516357421875	 -530.754150390625
v -1181.9481201171875	 32.44136047363281	 -535.7528076171875
v -1182.0684814453125	 32.42456817626953	 -540.7512817382812
v -1182.1893310546875	 32.3967399597168	 -545.7496948242188
v -1182.3101806640625	 32.37997055053711	 -550.7481079101562
v -1182.4315185546875	 32.3731689453125	 -555.7467041015625
v -1182.5531005859375	 32.360538482666016	 -560.7451171875
v -1182.6741943359375	 32.35560989379883	 -565.7437744140625
v -1182.79541015625	 32.3563232421875	 -570.7422485351562
v -1182.9171142578125	 32.35573959350586	 -575.7406616210938
v -1183.0384521484375	 32.359920501708984	 -580.7391357421875
v -1183.1600341796875	 32.3621826171875	 -585.737548828125
v -1183.281494140625	 32.3587760925293	 -590.7359619140625
v -1183.403076171875	 32.3643684387207	 -595.734375
v -1183.5252685546875	 32.363441467285156	 -600.7327880859375
v -1183.647216796875	 32.363250732421875	 -605.731201171875
v -1183.76904296875	 32.374725341796875	 -610.7295532226562
v -1183.8912353515625	 32.378021240234375	 -615.7279052734375
v -1184.0130615234375	 32.379058837890625	 -620.7264404296875
v -1184.1351318359375	 32.383216857910156	 -625.7249755859375
v -1184.257080078125	 32.382652282714844	 -630.7235717773438
v -1184.379150390625	 32.381046295166016	 -635.7220458984375
v -1184.5013427734375	 32.384422302246094	 -640.7205200195312
v -1184.6239013671875	 32.38271713256836	 -645.718994140625
v -1184.7462158203125	 32.38596725463867	 -650.7174682617188
v -1184.8680419921875	 32.38977813720703	 -655.7158203125
v -1184.9903564453125	 32.39624786376953	 -660.7142333984375
v -1185.1131591796875	 32.401729583740234	 -665.7127685546875
v -1185.2359619140625	 32.400123596191406	 -670.7113037109375
v -1185.3583984375	 32.399452209472656	 -675.7095947265625
v -1185.4808349609375	 32.401756286621094	 -680.7079467773438
v -1185.6033935546875	 32.3970832824707	 -685.7064819335938
v -1185.725830078125	 32.39759826660156	 -690.7048950195312
v -1185.848388671875	 32.39912033081055	 -695.7034301757812
v -1185.9710693359375	 32.39497375488281	 -700.7019653320312
v -1186.093994140625	 32.3939323425293	 -705.7003784179688
v -1186.21630859375	 32.38786315917969	 -710.6987915039062
v -1186.3389892578125	 32.38158416748047	 -715.697265625
v -1186.462158203125	 32.383445739746094	 -720.69580078125
v -1186.5850830078125	 32.378177642822266	 -725.6942749023438
v -1186.7081298828125	 32.3744010925293	 -730.6927490234375
v -1186.830322265625	 32.36939239501953	 -735.6911010742188
v -1186.953125	 32.356266021728516	 -740.6895751953125
v -1187.0760498046875	 32.345664978027344	 -745.6879272460938
v -1187.19921875	 32.33192825317383	 -750.6862182617188
v -1187.3221435546875	 32.31588363647461	 -755.6845092773438
v -1187.4451904296875	 32.310455322265625	 -760.6829223632812
v -1187.5679931640625	 32.302345275878906	 -765.6815185546875
v -1187.6904296875	 32.29177474975586	 -770.6800537109375
v -1187.8131103515625	 32.28870391845703	 -775.6785888671875
v -1187.936279296875	 32.28396987915039	 -780.6771240234375
v -1188.05908203125	 32.28245544433594	 -785.6756591796875
v -1188.1822509765625	 32.28073501586914	 -790.6740112304688
v -1188.304931640625	 32.277645111083984	 -795.6725463867188
v -1188.427490234375	 32.27638626098633	 -800.6708984375
v -1188.5501708984375	 32.269073486328125	 -805.669189453125
v -1188.6732177734375	 32.262351989746094	 -810.6676025390625
v -1188.796142578125	 32.25946807861328	 -815.6661376953125
v -1188.9190673828125	 32.249813079833984	 -820.66455078125
v -1189.041259765625	 32.2401123046875	 -825.6630249023438
v -1189.1640625	 32.236637115478516	 -830.6614379882812
v -1189.2862548828125	 32.234039306640625	 -835.6597900390625
v -1189.408935546875	 32.23699188232422	 -840.6583251953125
v -1189.5313720703125	 32.24660110473633	 -845.65673828125
v -1189.654052734375	 32.2496337890625	 -850.6550903320312
v -1189.7763671875	 32.26019287109375	 -855.653564453125
v -1189.8990478515625	 32.27037048339844	 -860.652099609375
v -1190.021240234375	 32.27709197998047	 -865.6504516601562
v -1190.1431884765625	 32.28183364868164	 -870.6489868164062
v -1190.2652587890625	 32.27731704711914	 -875.6473999023438
v -1190.38720703125	 32.27639389038086	 -880.6459350585938
v -1190.5093994140625	 32.284488677978516	 -885.6444091796875
v -1190.6312255859375	 32.28623962402344	 -890.642822265625
v -1190.7530517578125	 32.2900505065918	 -895.6412353515625
v -1190.87451171875	 32.29617691040039	 -900.6397094726562
v -1190.99609375	 32.29935073852539	 -905.6381225585938
v -1191.1175537109375	 32.30029296875	 -910.6365356445312
v -1191.2391357421875	 32.29866027832031	 -915.6348876953125
v -1191.3602294921875	 32.29308319091797	 -920.6334228515625
v -1191.481201171875	 32.29484176635742	 -925.6318359375
v -1191.6021728515625	 32.291160583496094	 -930.6302490234375
v -1191.72314453125	 32.29231262207031	 -935.6287841796875
v -1191.8433837890625	 32.29436111450195	 -940.6272583007812
v -1191.964111328125	 32.29348373413086	 -945.6259765625
v -1192.0843505859375	 32.29511260986328	 -950.62451171875
v -1192.20458984375	 32.296695709228516	 -955.6229248046875
v -1192.324951171875	 32.291439056396484	 -960.6213989257812
v -1192.4444580078125	 32.29312515258789	 -965.6199340820312
v -1192.5643310546875	 32.29072952270508	 -970.6184692382812
v -1192.6842041015625	 32.28389358520508	 -975.6170654296875
v -1192.803466796875	 32.28112030029297	 -980.615478515625
v -1192.923095703125	 32.27357864379883	 -985.614013671875
v -1193.0423583984375	 32.263526916503906	 -990.612548828125
v -1193.161376953125	 32.258567810058594	 -995.6109619140625
v -1193.2801513671875	 32.24868392944336	 -1000.609375
v -1193.3984375	 32.245052337646484	 -1005.6078491210938
v -1193.51708984375	 32.24190902709961	 -1010.6065673828125
v -1193.6353759765625	 32.23731231689453	 -1015.60498046875
v -1193.754150390625	 32.237548828125	 -1020.6034545898438
v -1193.872314453125	 32.238677978515625	 -1025.6019287109375
v -1193.9903564453125	 32.23838424682617	 -1030.600341796875
v -1194.1083984375	 32.23683547973633	 -1035.598876953125
v -1194.2261962890625	 32.23127746582031	 -1040.597412109375
v -1194.3441162109375	 32.22739791870117	 -1045.5960693359375
v -1194.4613037109375	 32.22575378417969	 -1050.5946044921875
v -1194.5792236328125	 32.21150588989258	 -1055.59326171875
v -1194.697021484375	 32.20375061035156	 -1060.591796875
v -1194.814453125	 32.19454574584961	 -1065.59033203125
v -1194.93212890625	 32.180782318115234	 -1070.5889892578125
v -1195.049072265625	 32.16884231567383	 -1075.58740234375
v -1195.1663818359375	 32.1546516418457	 -1080.5859375
v -1195.2840576171875	 32.13996887207031	 -1085.58447265625
v -1195.401123046875	 32.13629150390625	 -1090.5831298828125
v -1195.518310546875	 32.12483596801758	 -1095.581787109375
v -1195.635986328125	 32.11587142944336	 -1100.580322265625
v -1195.753173828125	 32.1126594543457	 -1105.578857421875
v -1195.870361328125	 32.10729217529297	 -1110.577392578125
v -1195.9879150390625	 32.11227798461914	 -1115.5760498046875
v -1196.105224609375	 32.1187744140625	 -1120.5745849609375
v -1196.22216796875	 32.12797164916992	 -1125.5732421875
v -1196.3399658203125	 32.1250114440918	 -1130.571533203125
v -1196.457275390625	 32.10540008544922	 -1135.5703125
v -1196.5743408203125	 32.08683776855469	 -1140.568603515625
v -1196.692138671875	 32.079010009765625	 -1145.5670166015625
v -1196.8099365234375	 32.069156646728516	 -1150.5655517578125
v -1196.9273681640625	 32.07358169555664	 -1155.5640869140625
v -1197.045166015625	 32.08329391479492	 -1160.5626220703125
v -1197.1630859375	 32.08869171142578	 -1165.5611572265625
v -1197.2811279296875	 32.09763717651367	 -1170.559814453125
v -1197.399169921875	 32.105796813964844	 -1175.558349609375
v -1197.51708984375	 32.09617614746094	 -1180.556884765625
v -1197.6353759765625	 32.098976135253906	 -1185.555419921875
v -1197.7540283203125	 32.11531066894531	 -1190.553955078125
v -1197.8721923828125	 32.140560150146484	 -1195.5523681640625
v -1197.9910888671875	 32.172691345214844	 -1200.55078125
v -1198.110107421875	 32.18199157714844	 -1205.5494384765625
v -1198.229248046875	 32.18669509887695	 -1210.5479736328125
v -1198.34912109375	 32.194114685058594	 -1215.5465087890625
v -1198.4691162109375	 32.1908073425293	 -1220.5450439453125
v -1198.5888671875	 32.188411712646484	 -1225.5435791015625
v -1198.7086181640625	 32.18208694458008	 -1230.5421142578125
v -1198.8291015625	 32.171573638916016	 -1235.5406494140625
v -1198.949951171875	 32.18614196777344	 -1240.5390625
v -1199.0711669921875	 32.21276092529297	 -1245.5374755859375
v -1199.1922607421875	 32.21820831298828	 -1250.5360107421875
v -1199.3140869140625	 32.18795394897461	 -1255.5341796875
v -1199.4361572265625	 32.117557525634766	 -1260.5321044921875
v -1199.5582275390625	 32.03110122680664	 -1265.5299072265625
v -1199.6812744140625	 31.97895622253418	 -1270.5279541015625
v -1199.8048095703125	 31.93781852722168	 -1275.5262451171875
v -1199.9283447265625	 31.90400505065918	 -1280.5245361328125
v -1200.0521240234375	 31.891042709350586	 -1285.5230712890625
v -1200.1761474609375	 31.893329620361328	 -1290.5216064453125
v -1200.3011474609375	 31.90549087524414	 -1295.52001953125
v -1200.4263916015625	 31.911531448364258	 -1300.5184326171875
v -1200.5521240234375	 31.922733306884766	 -1305.5166015625
v -1200.6781005859375	 31.94141387939453	 -1310.5150146484375
v -1200.80419921875	 31.922422409057617	 -1315.5130615234375
v -1200.93115234375	 31.923954010009766	 -1320.5115966796875
v -1201.0582275390625	 31.906139373779297	 -1325.5098876953125
v -1201.185302734375	 31.85603141784668	 -1330.508056640625
v -1201.3134765625	 31.85481071472168	 -1335.5064697265625
v -1201.4420166015625	 31.856481552124023	 -1340.504638671875
v -1201.570556640625	 31.919401168823242	 -1345.5025634765625
v -1201.699951171875	 31.961477279663086	 -1350.5006103515625
v -1201.8294677734375	 31.981019973754883	 -1355.4989013671875
v -1201.9593505859375	 31.981395721435547	 -1360.4971923828125
v -1202.0892333984375	 31.95473289489746	 -1365.4954833984375
v -1202.22021484375	 31.9060001373291	 -1370.4932861328125
v -1202.3514404296875	 31.864513397216797	 -1375.4913330078125
v -1202.4832763671875	 31.836030960083008	 -1380.4893798828125
v -1202.614990234375	 31.811914443969727	 -1385.487548828125
v -1202.74658203125	 31.79947853088379	 -1390.4857177734375
v -1202.879150390625	 31.791080474853516	 -1395.48388671875
v -1203.0123291015625	 31.78234100341797	 -1400.482177734375
v -1203.145263671875	 31.781034469604492	 -1405.480224609375
v -1203.2784423828125	 31.783626556396484	 -1410.4783935546875
v -1203.412353515625	 31.786231994628906	 -1415.4765625
v -1203.5462646484375	 31.796621322631836	 -1420.474609375
v -1203.6802978515625	 31.800628662109375	 -1425.4727783203125
v -1203.814453125	 31.804285049438477	 -1430.4708251953125
v -1203.9493408203125	 31.798351287841797	 -1435.4691162109375
v -1204.0843505859375	 31.78872299194336	 -1440.4671630859375
v -1204.2193603515625	 31.7838077545166	 -1445.465087890625
v -1204.3544921875	 31.7823486328125	 -1450.4635009765625
v -1204.490234375	 31.781949996948242	 -1455.4615478515625
v -1204.6263427734375	 31.778722763061523	 -1460.4593505859375
v -1204.762451171875	 31.775699615478516	 -1465.4573974609375
v -1204.898193359375	 31.76667594909668	 -1470.4554443359375
v -1205.0343017578125	 31.753232955932617	 -1475.453369140625
v -1205.1705322265625	 31.734981536865234	 -1480.451171875
v -1205.3070068359375	 31.723426818847656	 -1485.44921875
v -1205.4434814453125	 31.721128463745117	 -1490.4471435546875
v -1205.580078125	 31.7249813079834	 -1495.4451904296875
v -1205.7164306640625	 31.734886169433594	 -1500.443115234375
v -1205.8533935546875	 31.740337371826172	 -1505.441162109375
v -1205.9901123046875	 31.742996215820312	 -1510.4390869140625
v -1206.1263427734375	 31.74757194519043	 -1515.4368896484375
v -1206.26318359375	 31.751996994018555	 -1520.4351806640625
v -1206.3992919921875	 31.761211395263672	 -1525.4332275390625
v -1206.5361328125	 31.768903732299805	 -1530.431396484375
v -1206.67236328125	 31.77311134338379	 -1535.4293212890625
v -1206.8092041015625	 31.78005027770996	 -1540.42724609375
v -1206.9451904296875	 31.79047203063965	 -1545.42529296875
v -1207.081298828125	 31.797664642333984	 -1550.4234619140625
v -1207.2174072265625	 31.797664642333984	 -1555.4215087890625
v -1207.3538818359375	 31.802934646606445	 -1560.41943359375
v -1207.4893798828125	 31.809255599975586	 -1565.41748046875
v -1207.6251220703125	 31.8206844329834	 -1570.4154052734375
v -1207.7611083984375	 31.83353614807129	 -1575.41357421875
v -1207.8963623046875	 31.851322174072266	 -1580.4117431640625
v -1208.0321044921875	 31.869300842285156	 -1585.4097900390625
v -1208.1671142578125	 31.88003158569336	 -1590.4075927734375
v -1208.302001953125	 31.89497947692871	 -1595.4056396484375
v -1208.436279296875	 31.90938949584961	 -1600.4036865234375
v -1208.5709228515625	 31.918731689453125	 -1605.4017333984375
v -1208.7052001953125	 31.93196678161621	 -1610.3997802734375
v -1208.840087890625	 31.942413330078125	 -1615.397705078125
v -1208.973876953125	 31.952699661254883	 -1620.395751953125
v -1209.107421875	 31.961090087890625	 -1625.3939208984375
v -1209.2408447265625	 31.9683780670166	 -1630.3919677734375
v -1209.374267578125	 31.9825439453125	 -1635.39013671875
v -1209.5076904296875	 31.99425506591797	 -1640.3883056640625
v -1209.6402587890625	 31.999794006347656	 -1645.3863525390625
v -1209.7728271484375	 32.004249572753906	 -1650.3843994140625
v -1209.9051513671875	 32.002044677734375	 -1655.382568359375
v -1210.037109375	 31.99073600769043	 -1660.3807373046875
v -1210.1689453125	 31.97517967224121	 -1665.3790283203125
v -1210.3001708984375	 31.95690155029297	 -1670.3770751953125
v -1210.4317626953125	 31.935752868652344	 -1675.3751220703125
v -1210.562255859375	 31.915616989135742	 -1680.3734130859375
v -1210.69287109375	 31.896499633789062	 -1685.3714599609375
v -1210.8231201171875	 31.879825592041016	 -1690.3695068359375
v -1210.9532470703125	 31.86925506591797	 -1695.3677978515625
v -1211.0828857421875	 31.854928970336914	 -1700.3658447265625
v -1211.2120361328125	 31.850723266601562	 -1705.3641357421875
v -1211.3409423828125	 31.850902557373047	 -1710.3623046875
v -1211.4697265625	 31.851903915405273	 -1715.3604736328125
v -1211.5980224609375	 31.851505279541016	 -1720.3590087890625
v -1211.7257080078125	 31.847871780395508	 -1725.3570556640625
v -1211.8531494140625	 31.841501235961914	 -1730.3553466796875
v -1211.97998046875	 31.834808349609375	 -1735.3536376953125
v -1212.1068115234375	 31.819643020629883	 -1740.3516845703125
v -1212.23291015625	 31.807973861694336	 -1745.3502197265625
v -1212.3590087890625	 31.7951717376709	 -1750.3482666015625
v -1212.4847412109375	 31.789766311645508	 -1755.3465576171875
v -1212.6099853515625	 31.793113708496094	 -1760.3448486328125
v -1212.7352294921875	 31.797433853149414	 -1765.3431396484375
v -1212.85986328125	 31.810503005981445	 -1770.3414306640625
v -1212.9840087890625	 31.825851440429688	 -1775.33984375
v -1213.1080322265625	 31.83699607849121	 -1780.33837890625
v -1213.23193359375	 31.846162796020508	 -1785.3369140625
v -1213.3548583984375	 31.854900360107422	 -1790.3353271484375
v -1213.4781494140625	 31.85253143310547	 -1795.3338623046875
v -1213.6007080078125	 31.848526000976562	 -1800.3319091796875
v -1213.7230224609375	 31.84157371520996	 -1805.3306884765625
v -1213.844970703125	 31.829065322875977	 -1810.3289794921875
v -1213.967041015625	 31.822729110717773	 -1815.3275146484375
v -1214.0889892578125	 31.804872512817383	 -1820.3260498046875
v -1214.2099609375	 31.78329086303711	 -1825.3243408203125
v -1214.3309326171875	 31.76914405822754	 -1830.3226318359375
v -1214.451904296875	 31.75889015197754	 -1835.3209228515625
v -1214.57275390625	 31.748214721679688	 -1840.3192138671875
v -1214.6932373046875	 31.742307662963867	 -1845.3175048828125
v -1214.8133544921875	 31.743450164794922	 -1850.3160400390625
v -1214.9332275390625	 31.74967384338379	 -1855.3148193359375
v -1215.052978515625	 31.75875473022461	 -1860.3134765625
v -1215.1727294921875	 31.767881393432617	 -1865.311767578125
v -1215.2918701171875	 31.78557777404785	 -1870.3101806640625
v -1215.410888671875	 31.803661346435547	 -1875.30859375
v -1215.5299072265625	 31.82267189025879	 -1880.3072509765625
v -1215.6488037109375	 31.838891983032227	 -1885.3056640625
v -1215.7677001953125	 31.847902297973633	 -1890.3043212890625
v -1215.885986328125	 31.861148834228516	 -1895.302734375
v -1216.00390625	 31.87159538269043	 -1900.30126953125
v -1216.121826171875	 31.868650436401367	 -1905.2996826171875
v -1216.23974609375	 31.862720489501953	 -1910.2982177734375
v -1216.35791015625	 31.86044692993164	 -1915.2967529296875
v -1216.4755859375	 31.85157012939453	 -1920.2950439453125
v -1216.5931396484375	 31.84149932861328	 -1925.293701171875
v -1216.710693359375	 31.827558517456055	 -1930.2921142578125
v -1216.82763671875	 31.811294555664062	 -1935.2906494140625
v -1216.94482421875	 31.798500061035156	 -1940.2891845703125
v -1217.061767578125	 31.777812957763672	 -1945.28759765625
v -1217.1788330078125	 31.759729385375977	 -1950.2860107421875
v -1217.2958984375	 31.755578994750977	 -1955.2847900390625
v -1217.4127197265625	 31.757396697998047	 -1960.2833251953125
v -1217.5289306640625	 31.76698875427246	 -1965.2816162109375
v -1217.645751953125	 31.781566619873047	 -1970.2801513671875
v -1217.7618408203125	 31.793190002441406	 -1975.278564453125
v -1217.8785400390625	 31.81147003173828	 -1980.27685546875
v -1217.9947509765625	 31.829763412475586	 -1985.2755126953125
v -1218.11083984375	 31.840898513793945	 -1990.2742919921875
v -1218.2266845703125	 31.843111038208008	 -1995.2725830078125
v -1218.3428955078125	 31.838302612304688	 -2000.2708740234375
v -1218.4588623046875	 31.83172607421875	 -2005.2694091796875
v -1218.5748291015625	 31.825607299804688	 -2010.2679443359375
v -1218.6907958984375	 31.82037353515625	 -2015.2659912109375
v -1218.806884765625	 31.818891525268555	 -2020.2647705078125
v -1218.9227294921875	 31.813390731811523	 -2025.26318359375
v -1219.0386962890625	 31.80215835571289	 -2030.26171875
v -1219.1546630859375	 31.792892456054688	 -2035.2601318359375
v -1219.270751953125	 31.778579711914062	 -2040.258544921875
v -1219.3868408203125	 31.762895584106445	 -2045.257080078125
l 1 2
l 2 3
l 3 4
l 4 5
l 5 6
l 6 7
l 7 8
l 8 9
l 9 10
l 10 11
l 11 12
l 12 13
l 13 14
l 14 15
l 15 16
l 16 17
l 17 18
l 18 19
l 19 20
l 20 21
l 21 22
l 22 23
l 23 24
l 24 25
l 25 26
l 26 27
l 27 28
l 28 29
l 29 30
l 30 31
l 31 32
l 32 33
l 33 34
l 34 35
l 35 36
l 36 37
l 37 38
l 38 39
l 39 40
l 40 41
l 41 42
l 42 43
l 43 44
l 44 45
l 45 46
l 46 47
l 47 48
l 48 49
l 49 50
l 50 51
l 51 52
l 52 53
l 53 54
l 54 55
l 55 56
l 56 57
l 57 58
l 58 59
l 59 60
l 60 61
l 61 62
l 62 63
l 63 64
l 64 65
l 65 66
l 66 67
l 67 68
l 68 69
l 69 70
l 70 71
l 71 72
l 72 73
l 73 74
l 74 75
l 75 76
l 76 77
l 77 78
l 78 79
l 79 80
l 80 81
l 81 82
l 82 83
l 83 84
l 84 85
l 85 86
l 86 87
l 87 88
l 88 89
l 89 90
l 90 91
l 91 92
l 92 93
l 93 94
l 94 95
l 95 96
l 96 97
l 97 98
l 98 99
l 99 100
l 100 101
l 101 102
l 102 103
l 103 104
l 104 105
l 105 106
l 106 107
l 107 108
l 108 109
l 109 110
l 110 111
l 111 112
l 112 113
l 113 114
l 114 115
l 115 116
l 116 117
l 117 118
l 118 119
l 119 120
l 120 121
l 121 122
l 122 123
l 123 124
l 124 125
l 125 126
l 126 127
l 127 128
l 128 129
l 129 130
l 130 131
l 131 132
l 132 133
l 133 134
l 134 135
l 135 136
l 136 137
l 137 138
l 138 139
l 139 140
l 140 141
l 141 142
l 142 143
l 143 144
l 144 145
l 145 146
l 146 147
l 147 148
l 148 149
l 149 150
l 150 151
l 151 152
l 152 153
l 153 154
l 154 155
l 155 156
l 156 157
l 157 158
l 158 159
l 159 160
l 160 161
l 161 162
l 162 163
l 163 164
l 164 165
l 165 166
l 166 167
l 167 168
l 168 169
l 169 170
l 170 171
l 171 172
l 172 173
l 173 174
l 174 175
l 175 176
l 176 177
l 177 178
l 178 179
l 179 180
l 180 181
l 181 182
l 182 183
l 183 184
l 184 185
l 185 186
l 186 187
l 187 188
l 188 189
l 189 190
l 190 191
l 191 192
l 192 193
l 193 194
l 194 195
l 195 196
l 196 197
l 197 198
l 198 199
l 199 200
l 200 201
l 201 202
l 202 203
l 203 204
l 204 205
l 205 206
l 206 207
l 207 208
l 208 209
l 209 210
l 210 211
l 211 212
l 212 213
l 213 214
l 214 215
l 215 216
l 216 217
l 217 218
l 218 219
l 219 220
l 220 221
l 221 222
l 222 223
l 223 224
l 224 225
l 225 226
l 226 227
l 227 228
l 228 229
l 229 230
l 230 231
l 231 232
l 232 233
l 233 234
l 234 235
l 235 236
l 236 237
l 237 238
l 238 239
l 239 240
l 240 241
l 241 242
l 242 243
l 243 244
l 244 245
l 245 246
l 246 247
l 247 248
l 248 249
l 249 250
l 250 251
l 251 252
l 252 253
l 253 254
l 254 255
l 255 256
l 256 257
l 257 258
l 258 259
l 259 260
l 260 261
l 261 262
l 262 263
l 263 264
l 264 265
l 265 266
l 266 267
l 267 268
l 268 269
l 269 270
l 270 271
l 271 272
l 272 273
l 273 274
l 274 275
l 275 276
l 276 277
l 277 278
l 278 279
l 279 280
l 280 281
l 281 282
l 282 283
l 283 284
l 284 285
l 285 286
l 286 287
l 287 288
l 288 289
l 289 290
l 290 291
l 291 292
l 292 293
l 293 294
l 294 295
l 295 296
l 296 297
l 297 298
l 298 299
l 299 300
l 300 301
l 301 302
l 302 303
l 303 304
l 304 305
l 305 306
l 306 307
l 307 308
l 308 309
l 309 310
l 310 311
l 311 312
l 312 313
l 313 314
l 314 315
l 315 316
l 316 317
l 317 318
l 318 319
l 319 320
l 320 321
l 321 322
l 322 323
l 323 324
l 324 325
l 325 326
l 326 327
l 327 328
l 328 329
l 329 330
l 330 331
l 331 332
l 332 333
l 333 334
l 334 335
l 335 336
l 336 337
l 337 338
l 338 339
l 339 340
l 340 341
l 341 342
l 342 343
l 343 344
l 344 345
l 345 346
l 346 347
l 347 348
l 348 349
l 349 350
l 350 351
l 351 352
l 352 353
l 353 354
l 354 355
l 355 356
l 356 357
l 357 358
l 358 359
l 359 360
l 360 361
l 361 362
l 362 363
l 363 364
l 364 365
l 365 366
l 366 367
l 367 368
l 368 369
l 369 370
l 370 371
l 371 372
l 372 373
l 373 374
l 374 375
l 375 376
l 376 377
l 377 378
l 378 379
l 379 380
l 380 381
l 381 382
l 382 383
l 383 384
l 384 385
l 385 386
l 386 387
l 387 388
l 388 389
l 389 390
l 390 391
l 391 392
l 392 393
l 393 394
l 394 395
l 395 396
l 396 397
l 397 398
l 398 399
l 399 400
l 400 401
l 401 402
l 402 403
l 403 404
l 404 405
l 405 406
l 406 407
l 407 408
l 408 409
l 409 410
l 410 411
l 411 412
l 412 413
l 413 414
l 414 415
l 415 416
l 416 417
l 417 418
l 418 419
l 419 420
l 420 421
l 421 422
l 422 423
l 423 424
l 424 425
l 425 426
l 426 427
l 427 428
l 428 429
l 429 430
l 430 431
l 431 432
l 432 433
l 433 434
l 434 435
l 435 436
l 436 437
l 437 438
l 438 439
l 439 440
l 440 441
l 441 442
l 442 443
l 443 444
l 444 445
l 445 446
l 446 447
l 447 448
l 448 449
l 449 450
l 450 451
l 451 452
l 452 453
l 453 454
l 454 455
l 455 456
l 456 457
l 457 458
l 458 459
l 459 460
l 460 461
l 461 462
l 462 463
l 463 464
l 464 465
l 465 466
l 466 467
l 467 468
l 468 469
l 469 470
l 470 471
l 471 472
l 472 473
l 473 474
l 474 475
l 475 476
l 476 477
l 477 478
l 478 479
l 479 480
l 480 481
l 481 482
l 482 483
l 483 484
l 484 485
l 485 486
l 486 487
l 487 488
l 488 489
l 489 490
l 490 491
l 491 492
l 492 493
l 493 494
l 494 495
l 495 496
l 496 497
l 497 498
l 498 499
l 499 500
l 500 501
l 501 502
l 502 503
l 503 504
l 504 505
l 505 506
l 506 507
l 507 508
l 508 509
l 509 510
l 510 511
l 511 512
l 512 513
l 513 514
l 514 515
l 515 516
l 516 517
l 517 518
l 518 519
l 519 520
l 520 521
l 521 522
l 522 523
l 523 524
l 524 525
l 525 526
l 526 527
l 527 528
l 528 529
l 529 530
l 530 531
l 531 532
l 532 533
l 533 534
l 534 535
l 535 536
l 536 537
l 537 538
l 538 539
l 539 540
l 540 541
l 541 542
l 542 543
l 543 544
l 544 545
l 545 546
l 546 547
l 547 548
l 548 549
l 549 550
l 550 551
l 551 552
l 552 553
l 553 554
l 554 555
l 555 556
l 556 557
l 557 558
l 558 559
l 559 560
l 560 561
l 561 562
l 562 563
l 563 564
l 564 565
l 565 566
l 566 567
l 567 568
l 568 569
l 569 570
l 570 571
l 571 572
l 572 573
l 573 574
l 574 575
l 575 576
l 576 577
l 577 578
l 578 579
l 579 580
l 580 581
l 581 582
l 582 583
l 583 584
l 584 585
l 585 586
l 586 587
l 587 588
l 588 589
l 589 590
l 590 591
l 591 592
l 592 593
l 593 594
l 594 595
l 595 596
l 596 597
l 597 598
l 598 599
l 599 600
l 600 601
l 601 602
l 602 603
l 603 604
l 604 605
l 605 606
l 606 607
l 607 608
l 608 609
l 609 610
l 610 611
l 611 612
l 612 613
l 613 614
l 614 615
l 615 616
l 616 617
l 617 618
l 618 619
l 619 620
l 620 621
l 621 622
l 622 623
l 623 624
l 624 625
l 625 626
l 626 627
l 627 628
l 628 629
l 629 630
l 630 631
l 631 632
l 632 633
l 633 634
l 634 635
l 635 636
l 636 637
l 637 638
l 638 639
l 639 640
l 640 641
l 641 642
l 642 643
l 643 644
l 644 645
l 645 646
l 646 647
l 647 648
l 648 649
l 649 650
l 650 651
l 651 652
l 652 653
l 653 654
l 654 655
l 655 656
l 656 657
l 657 658
l 658 659
l 659 660
l 660 661
l 661 662
l 662 663
l 663 664
l 664 665
l 665 666
l 666 667
l 667 668
l 668 669
l 669 670
l 670 671
l 671 672
l 672 673
l 673 674
l 674 675
l 675 676
l 676 677
l 677 678
l 678 679
l 679 680
l 680 681
l 681 682
l 682 683
l 683 684
l 684 685
l 685 686
l 686 687
l 687 688
l 688 689
l 689 690
l 690 691
l 691 692
l 692 693
l 693 694
l 694 695
l 695 696
l 696 697
l 697 698
l 698 699
l 699 700
l 700 701
l 701 702
l 702 703
l 703 704
l 704 705
l 705 706
l 706 707
l 707 708
l 708 709
l 709 710
l 710 711
l 711 712
l 712 713
l 713 714
l 714 715
l 715 716
l 716 717
l 717 718
l 718 719
l 719 720
l 720 721
l 721 722
l 722 723
l 723 724
l 724 725
l 725 726
l 726 727
l 727 728
l 728 729
l 729 730
l 730 731
l 731 732
l 732 733
l 733 734
l 734 735
l 735 736
l 736 737
l 737 738
l 738 739
l 739 740
l 740 741
l 741 742
l 742 743
l 743 744
l 744 745
l 745 746
l 746 747
l 747 748
l 748 749
l 749 750
l 750 751
l 751 752
l 752 753
l 753 754
l 754 755
l 755 756
l 756 757
l 757 758
l 758 759
l 759 760
l 760 761
l 761 762
l 762 763
l 763 764
l 764 765
l 765 766
l 766 767
l 767 768
l 768 769
l 769 770
l 770 771
l 771 772
l 772 773
l 773 774
l 774 775
l 775 776
l 776 777
l 777 778
l 778 779
l 779 780
l 780 781
l 781 782
l 782 783
l 783 784
l 784 785
l 785 786
l 786 787
l 787 788
l 788 789
l 789 790
l 790 791
l 791 792
l 792 793
l 793 794
l 794 795
l 795 796
l 796 797
l 797 798
l 798 799
l 799 800
l 800 801
l 801 802
l 802 803
l 803 804
l 804 805
l 805 806
l 806 807
l 807 808
l 808 809
l 809 810
l 810 811
l 811 812
l 812 813
l 813 814
l 814 815
l 815 816
l 816 817
l 817 818
l 818 819
l 819 820
