# GE Spline Export primaryRoad04
v -1201.37939453125	 31.854555130004883	 -1334.52294921875
v -1206.374755859375	 31.825878143310547	 -1334.52294921875
v -1211.3721923828125	 31.7869873046875	 -1334.52294921875
v -1216.375732421875	 31.748048782348633	 -1334.52294921875
v -1221.3724365234375	 31.710615158081055	 -1334.52294921875
v -1226.3731689453125	 31.679481506347656	 -1334.52197265625
v -1231.3663330078125	 31.660053253173828	 -1334.5159912109375
v -1236.3697509765625	 31.64591407775879	 -1334.5028076171875
v -1241.3719482421875	 31.64202308654785	 -1334.48193359375
v -1246.3670654296875	 31.64202308654785	 -1334.4537353515625
v -1251.3621826171875	 31.645915985107422	 -1334.418212890625
v -1256.372802734375	 31.649805068969727	 -1334.3759765625
v -1261.3609619140625	 31.6575870513916	 -1334.32763671875
v -1266.37744140625	 31.665369033813477	 -1334.273193359375
v -1271.3602294921875	 31.6745548248291	 -1334.2137451171875
v -1276.3582763671875	 31.684823989868164	 -1334.1490478515625
v -1281.3643798828125	 31.69402503967285	 -1334.0794677734375
v -1286.37353515625	 31.705734252929688	 -1334.0054931640625
v -1291.3707275390625	 31.715951919555664	 -1333.927490234375
v -1296.3658447265625	 31.72762680053711	 -1333.8455810546875
v -1301.36376953125	 31.739299774169922	 -1333.760009765625
v -1306.3641357421875	 31.748498916625977	 -1333.6708984375
v -1311.3673095703125	 31.760183334350586	 -1333.578369140625
v -1316.3699951171875	 31.770427703857422	 -1333.48291015625
v -1321.3594970703125	 31.778209686279297	 -1333.384521484375
v -1326.349853515625	 31.787353515625	 -1333.283447265625
v -1331.34375	 31.797664642333984	 -1333.1795654296875
v -1336.34375	 31.806785583496094	 -1333.072998046875
v -1341.3525390625	 31.817121505737305	 -1332.9637451171875
v -1346.359619140625	 31.82490348815918	 -1332.8525390625
v -1351.342529296875	 31.832685470581055	 -1332.73974609375
v -1356.3382568359375	 31.84046745300293	 -1332.625
v -1361.3486328125	 31.845714569091797	 -1332.5081787109375
v -1366.34814453125	 31.852140426635742	 -1332.39013671875
v -1371.3343505859375	 31.857332229614258	 -1332.2711181640625
v -1376.339599609375	 31.863813400268555	 -1332.150390625
v -1381.347412109375	 31.867704391479492	 -1332.0283203125
v -1386.3304443359375	 31.87159538269043	 -1331.9058837890625
v -1391.3367919921875	 31.872905731201172	 -1331.781982421875
v -1396.3387451171875	 31.875486373901367	 -1331.6571044921875
v -1401.325927734375	 31.875486373901367	 -1331.5318603515625
v -1406.33984375	 31.87159538269043	 -1331.4051513671875
v -1411.3267822265625	 31.87032699584961	 -1331.2784423828125
v -1416.324951171875	 31.866439819335938	 -1331.1507568359375
v -1421.3345947265625	 31.862512588500977	 -1331.0220947265625
v -1426.3184814453125	 31.85868263244629	 -1330.8935546875
v -1431.3341064453125	 31.85603141784668	 -1330.763671875
v -1436.31689453125	 31.85603141784668	 -1330.6341552734375
v -1441.32177734375	 31.85603141784668	 -1330.503662109375
v -1446.3182373046875	 31.857269287109375	 -1330.3729248046875
v -1451.313720703125	 31.863813400268555	 -1330.2418212890625
v -1456.3204345703125	 31.86895179748535	 -1330.110107421875
v -1461.3082275390625	 31.879377365112305	 -1329.978515625
v -1466.322509765625	 31.88841438293457	 -1329.845947265625
v -1471.30419921875	 31.898832321166992	 -1329.7139892578125
v -1476.323486328125	 31.907873153686523	 -1329.5806884765625
v -1481.3009033203125	 31.91828727722168	 -1329.4483642578125
v -1486.318115234375	 31.923418045043945	 -1329.314697265625
v -1491.297607421875	 31.929960250854492	 -1329.181884765625
v -1496.313232421875	 31.929960250854492	 -1329.0479736328125
v -1501.29443359375	 31.93270492553711	 -1328.914794921875
v -1506.3095703125	 31.929960250854492	 -1328.780517578125
v -1511.2908935546875	 31.926069259643555	 -1328.6470947265625
v -1516.307373046875	 31.92098617553711	 -1328.5125732421875
v -1521.2874755859375	 31.914396286010742	 -1328.37890625
v -1526.30615234375	 31.906614303588867	 -1328.244140625
v -1531.2841796875	 31.9016170501709	 -1328.1104736328125
v -1536.2989501953125	 31.894941329956055	 -1327.9757080078125
v -1541.28125	 31.88715934753418	 -1327.841796875
v -1546.2913818359375	 31.88213539123535	 -1327.7071533203125
v -1551.2789306640625	 31.878293991088867	 -1327.572998046875
v -1556.28369140625	 31.875486373901367	 -1327.4384765625
v -1561.2777099609375	 31.879377365112305	 -1327.30419921875
v -1566.2764892578125	 31.88715934753418	 -1327.1697998046875
v -1571.278076171875	 31.89991569519043	 -1327.035400390625
v -1576.270263671875	 31.915449142456055	 -1326.9012451171875
v -1581.2802734375	 31.93105125427246	 -1326.7666015625
v -1586.265380859375	 31.950448989868164	 -1326.6328125
v -1591.2806396484375	 31.969966888427734	 -1326.4981689453125
v -1596.2625732421875	 31.989349365234375	 -1326.364501953125
v -1601.2694091796875	 32.004940032958984	 -1326.230224609375
v -1606.26220703125	 32.023345947265625	 -1326.096435546875
v -1611.26025390625	 32.03602981567383	 -1325.962646484375
v -1616.2646484375	 32.04772186279297	 -1325.8287353515625
v -1621.25390625	 32.05935287475586	 -1325.6953125
v -1626.2698974609375	 32.07108688354492	 -1325.561279296875
v -1631.2508544921875	 32.08171081542969	 -1325.42822265625
v -1636.2569580078125	 32.090492248535156	 -1325.294677734375
v -1641.25146484375	 32.10214614868164	 -1325.16162109375
v -1646.247802734375	 32.11283874511719	 -1325.028564453125
v -1651.255859375	 32.12161636352539	 -1324.895263671875
v -1656.24267578125	 32.1284065246582	 -1324.7626953125
v -1661.2523193359375	 32.13229751586914	 -1324.6295166015625
v -1666.24169921875	 32.13618850708008	 -1324.4970703125
v -1671.2412109375	 32.13229751586914	 -1324.3643798828125
v -1676.2451171875	 32.131343841552734	 -1324.231689453125
v -1681.2349853515625	 32.12451171875	 -1324.0994873046875
v -1686.2452392578125	 32.116729736328125	 -1323.966796875
v -1691.233642578125	 32.10894775390625	 -1323.834716796875
v -1696.233642578125	 32.104148864746094	 -1323.7025146484375
v -1701.2369384765625	 32.09727478027344	 -1323.5701904296875
v -1706.2274169921875	 32.0933837890625	 -1323.4383544921875
v -1711.236083984375	 32.0933837890625	 -1323.30615234375
v -1716.226318359375	 32.0933837890625	 -1323.1744384765625
v -1721.22509765625	 32.09727478027344	 -1323.0426025390625
v -1726.230224609375	 32.101165771484375	 -1322.91064453125
v -1731.2197265625	 32.10591125488281	 -1322.7791748046875
v -1736.2255859375	 32.11371994018555	 -1322.6473388671875
v -1741.2198486328125	 32.121482849121094	 -1322.515869140625
v -1746.21630859375	 32.133140563964844	 -1322.3843994140625
v -1751.224853515625	 32.14397048950195	 -1322.2525634765625
v -1756.212646484375	 32.155643463134766	 -1322.1214599609375
v -1761.21484375	 32.16731643676758	 -1321.9901123046875
v -1766.21435546875	 32.17593002319336	 -1321.8587646484375
v -1771.207763671875	 32.18394088745117	 -1321.7276611328125
v -1776.21484375	 32.1906623840332	 -1321.59619140625
v -1781.2064208984375	 32.1906623840332	 -1321.4652099609375
v -1786.2047119140625	 32.1906623840332	 -1321.334228515625
v -1791.2100830078125	 32.18288040161133	 -1321.2030029296875
v -1796.200439453125	 32.17509841918945	 -1321.0721435546875
v -1801.20263671875	 32.16263198852539	 -1320.941162109375
v -1806.201416015625	 32.14707565307617	 -1320.8101806640625
v -1811.19580078125	 32.131534576416016	 -1320.679443359375
v -1816.201416015625	 32.11594772338867	 -1320.5484619140625
v -1821.1943359375	 32.09727478027344	 -1320.4178466796875
v -1826.1922607421875	 32.080963134765625	 -1320.287109375
v -1831.197509765625	 32.06538009643555	 -1320.15625
v -1836.1884765625	 32.04985046386719	 -1320.0257568359375
v -1841.189208984375	 32.03501892089844	 -1319.8951416015625
v -1846.189697265625	 32.02260971069336	 -1319.764404296875
v -1851.183837890625	 32.01167297363281	 -1319.634033203125
v -1856.1866455078125	 32.00316619873047	 -1319.50341796875
v -1861.18310546875	 31.996109008789062	 -1319.3729248046875
v -1866.179443359375	 31.992218017578125	 -1319.2425537109375
v -1871.1842041015625	 31.992218017578125	 -1319.1119384765625
v -1876.1771240234375	 31.996109008789062	 -1318.981689453125
v -1881.17578125	 32.00389099121094	 -1318.851318359375
v -1886.1787109375	 32.01167297363281	 -1318.720947265625
v -1891.1719970703125	 32.02012252807617	 -1318.5906982421875
v -1896.172119140625	 32.031795501708984	 -1318.4603271484375
v -1901.172119140625	 32.04669189453125	 -1318.330078125
v -1906.1673583984375	 32.05836486816406	 -1318.199951171875
v -1911.168701171875	 32.07069778442383	 -1318.069580078125
v -1916.166259765625	 32.082359313964844	 -1317.939453125
v -1921.162841796875	 32.09402084350586	 -1317.809326171875
v -1926.1651611328125	 32.10505676269531	 -1317.6790771484375
v -1931.160888671875	 32.11283874511719	 -1317.549072265625
v -1936.15869140625	 32.117347717285156	 -1317.4189453125
v -1941.161376953125	 32.12451171875	 -1317.2886962890625
v -1946.15576171875	 32.12451171875	 -1317.15869140625
v -1951.15478515625	 32.12451171875	 -1317.0286865234375
v -1956.1553955078125	 32.12062072753906	 -1316.8985595703125
v -1961.1510009765625	 32.116729736328125	 -1316.7685546875
v -1966.1505126953125	 32.10894775390625	 -1316.6385498046875
v -1971.149658203125	 32.101165771484375	 -1316.508544921875
v -1976.146484375	 32.09727478027344	 -1316.3785400390625
v -1981.1463623046875	 32.0933837890625	 -1316.24853515625
v -1986.14453125	 32.09727478027344	 -1316.11865234375
v -1991.14208984375	 32.101165771484375	 -1315.9886474609375
v -1996.14208984375	 32.10950469970703	 -1315.858642578125
v -2001.1395263671875	 32.12116622924805	 -1315.728759765625
v -2006.1376953125	 32.13229751586914	 -1315.598876953125
v -2011.1376953125	 32.140079498291016	 -1315.4688720703125
v -2016.134765625	 32.140079498291016	 -1315.3389892578125
v -2021.13330078125	 32.140079498291016	 -1315.2091064453125
v -2026.1326904296875	 32.140079498291016	 -1315.0791015625
v -2031.1302490234375	 32.14397048950195	 -1314.94921875
v -2036.1287841796875	 32.14447021484375	 -1314.8193359375
v -2041.1275634765625	 32.15175247192383	 -1314.689453125
v -2046.125732421875	 32.155643463134766	 -1314.5595703125
v -2051.124267578125	 32.1595344543457	 -1314.4296875
l 1 2
l 2 3
l 3 4
l 4 5
l 5 6
l 6 7
l 7 8
l 8 9
l 9 10
l 10 11
l 11 12
l 12 13
l 13 14
l 14 15
l 15 16
l 16 17
l 17 18
l 18 19
l 19 20
l 20 21
l 21 22
l 22 23
l 23 24
l 24 25
l 25 26
l 26 27
l 27 28
l 28 29
l 29 30
l 30 31
l 31 32
l 32 33
l 33 34
l 34 35
l 35 36
l 36 37
l 37 38
l 38 39
l 39 40
l 40 41
l 41 42
l 42 43
l 43 44
l 44 45
l 45 46
l 46 47
l 47 48
l 48 49
l 49 50
l 50 51
l 51 52
l 52 53
l 53 54
l 54 55
l 55 56
l 56 57
l 57 58
l 58 59
l 59 60
l 60 61
l 61 62
l 62 63
l 63 64
l 64 65
l 65 66
l 66 67
l 67 68
l 68 69
l 69 70
l 70 71
l 71 72
l 72 73
l 73 74
l 74 75
l 75 76
l 76 77
l 77 78
l 78 79
l 79 80
l 80 81
l 81 82
l 82 83
l 83 84
l 84 85
l 85 86
l 86 87
l 87 88
l 88 89
l 89 90
l 90 91
l 91 92
l 92 93
l 93 94
l 94 95
l 95 96
l 96 97
l 97 98
l 98 99
l 99 100
l 100 101
l 101 102
l 102 103
l 103 104
l 104 105
l 105 106
l 106 107
l 107 108
l 108 109
l 109 110
l 110 111
l 111 112
l 112 113
l 113 114
l 114 115
l 115 116
l 116 117
l 117 118
l 118 119
l 119 120
l 120 121
l 121 122
l 122 123
l 123 124
l 124 125
l 125 126
l 126 127
l 127 128
l 128 129
l 129 130
l 130 131
l 131 132
l 132 133
l 133 134
l 134 135
l 135 136
l 136 137
l 137 138
l 138 139
l 139 140
l 140 141
l 141 142
l 142 143
l 143 144
l 144 145
l 145 146
l 146 147
l 147 148
l 148 149
l 149 150
l 150 151
l 151 152
l 152 153
l 153 154
l 154 155
l 155 156
l 156 157
l 157 158
l 158 159
l 159 160
l 160 161
l 161 162
l 162 163
l 163 164
l 164 165
l 165 166
l 166 167
l 167 168
l 168 169
l 169 170
l 170 171
