# GE Spline Export primaryRoad01
v -2047.9049072265625	 32.168052673339844	 297.1969909667969
v -2042.9058837890625	 32.19102478027344	 297.0909729003906
v -2037.9066162109375	 32.20658874511719	 296.98907470703125
v -2032.9075927734375	 32.2217903137207	 296.8887634277344
v -2027.9085693359375	 32.233463287353516	 296.7890625
v -2022.9093017578125	 32.24124526977539	 296.6899719238281
v -2017.9097900390625	 32.24513626098633	 296.59161376953125
v -2012.9107666015625	 32.24513626098633	 296.4928283691406
v -2007.9117431640625	 32.24513626098633	 296.3944091796875
v -2002.9122314453125	 32.240901947021484	 296.2956237792969
v -1997.9132080078125	 32.233123779296875	 296.19696044921875
v -1992.9136962890625	 32.2217903137207	 296.0986633300781
v -1987.9146728515625	 32.20978546142578	 296.00048828125
v -1982.9151611328125	 32.190330505371094	 295.9016418457031
v -1977.9161376953125	 32.17087936401367	 295.8028869628906
v -1972.9168701171875	 32.15142822265625	 295.70458984375
v -1967.9178466796875	 32.135868072509766	 295.6058044433594
v -1962.9188232421875	 32.12062072753906	 295.50689697265625
v -1957.9195556640625	 32.11252975463867	 295.4078674316406
v -1952.9200439453125	 32.10505676269531	 295.3088684082031
v -1947.9210205078125	 32.101165771484375	 295.2098388671875
v -1942.9219970703125	 32.101165771484375	 295.1108093261719
v -1937.9227294921875	 32.101165771484375	 295.01165771484375
v -1932.9234619140625	 32.101165771484375	 294.9120178222656
v -1927.9241943359375	 32.101165771484375	 294.8126525878906
v -1922.9249267578125	 32.10505676269531	 294.71282958984375
v -1917.9256591796875	 32.10894775390625	 294.61285400390625
v -1912.9263916015625	 32.11312484741211	 294.51287841796875
v -1907.9273681640625	 32.12090301513672	 294.4127502441406
v -1902.9283447265625	 32.132572174072266	 294.31207275390625
v -1897.9290771484375	 32.14424133300781	 294.2117614746094
v -1892.9302978515625	 32.1598014831543	 294.1109313964844
v -1887.9312744140625	 32.17536163330078	 294.0097351074219
v -1882.9320068359375	 32.194820404052734	 293.9080810546875
v -1877.9327392578125	 32.21038055419922	 293.8067626953125
v -1872.9337158203125	 32.22957229614258	 293.7049560546875
v -1867.9344482421875	 32.24539566040039	 293.6028137207031
v -1862.9354248046875	 32.26095199584961	 293.5
v -1857.9361572265625	 32.27651596069336	 293.3970031738281
v -1852.9371337890625	 32.29182815551758	 293.29388427734375
v -1847.9376220703125	 32.30374526977539	 293.19000244140625
v -1842.9388427734375	 32.31541442871094	 293.0858154296875
v -1837.9398193359375	 32.326847076416016	 292.9809265136719
v -1832.9403076171875	 32.334861755371094	 292.8757019042969
v -1827.9412841796875	 32.3463020324707	 292.7697448730469
v -1822.9420166015625	 32.35408401489258	 292.66278076171875
v -1817.9432373046875	 32.36208724975586	 292.55499267578125
v -1812.9442138671875	 32.373538970947266	 292.44683837890625
v -1807.9449462890625	 32.381534576416016	 292.3377685546875
v -1802.9459228515625	 32.39299774169922	 292.2276916503906
v -1797.9473876953125	 32.40098190307617	 292.11676025390625
v -1792.9483642578125	 32.412452697753906	 292.0046081542969
v -1787.9490966796875	 32.42412567138672	 291.8908386230469
v -1782.9505615234375	 32.43210220336914	 291.77655029296875
v -1777.9517822265625	 32.44376754760742	 291.6607360839844
v -1772.952880859375	 32.45154571533203	 291.5434875488281
v -1767.9541015625	 32.45932388305664	 291.4246520996094
v -1762.9554443359375	 32.46692657470703	 291.304443359375
v -1757.9566650390625	 32.47081756591797	 291.1824645996094
v -1752.9581298828125	 32.474708557128906	 291.05859375
v -1747.9593505859375	 32.47081756591797	 290.93341064453125
v -1742.9608154296875	 32.47081756591797	 290.8062438964844
v -1737.9622802734375	 32.46692657470703	 290.67657470703125
v -1732.9637451171875	 32.463035583496094	 290.5453796386719
v -1727.96533203125	 32.459007263183594	 290.412353515625
v -1722.967041015625	 32.45136260986328	 290.2774963378906
v -1717.9686279296875	 32.443580627441406	 290.14129638671875
v -1712.9700927734375	 32.43579864501953	 290.00341796875
v -1707.9720458984375	 32.42790603637695	 289.8645935058594
v -1702.9737548828125	 32.42013168334961	 289.72540283203125
v -1697.9754638671875	 32.412452697753906	 289.5855407714844
v -1692.9771728515625	 32.40856170654297	 289.445556640625
v -1687.9791259765625	 32.40856170654297	 289.3056640625
v -1682.9805908203125	 32.40863800048828	 289.1666564941406
v -1677.9825439453125	 32.416343688964844	 289.0284423828125
v -1672.9840087890625	 32.42418670654297	 288.890625
v -1667.9862060546875	 32.43579864501953	 288.7537536621094
v -1662.9876708984375	 32.447471618652344	 288.618408203125
v -1657.9888916015625	 32.455299377441406	 288.48382568359375
v -1652.990478515625	 32.46692657470703	 288.35052490234375
v -1647.9920654296875	 32.474708557128906	 288.2184143066406
v -1642.9932861328125	 32.48249053955078	 288.08746337890625
v -1637.994873046875	 32.48640441894531	 287.957763671875
v -1632.996337890625	 32.494163513183594	 287.82965087890625
v -1627.9976806640625	 32.49805450439453	 287.7027587890625
v -1622.9989013671875	 32.50194549560547	 287.5772705078125
v -1618.0006103515625	 32.505836486816406	 287.45263671875
v -1613.0018310546875	 32.50971984863281	 287.3294372558594
v -1608.0032958984375	 32.51360321044922	 287.207275390625
v -1603.00439453125	 32.51750946044922	 287.0856018066406
v -1598.005859375	 32.521400451660156	 286.9653625488281
v -1593.0069580078125	 32.52918243408203	 286.845703125
v -1588.0081787109375	 32.53693389892578	 286.7274169921875
v -1583.0093994140625	 32.540855407714844	 286.6095275878906
v -1578.0107421875	 32.5485954284668	 286.49163818359375
v -1573.01171875	 32.552528381347656	 286.37451171875
v -1568.012939453125	 32.556419372558594	 286.25830078125
v -1563.0142822265625	 32.556419372558594	 286.1424865722656
v -1558.0152587890625	 32.556419372558594	 286.0273742675781
v -1553.016357421875	 32.556419372558594	 285.9123840332031
v -1548.0177001953125	 32.55259704589844	 285.79766845703125
v -1543.018798828125	 32.552528381347656	 285.683349609375
v -1538.02001953125	 32.552528381347656	 285.5693359375
v -1533.021240234375	 32.552528381347656	 285.45538330078125
v -1528.0220947265625	 32.54863739013672	 285.3415832519531
v -1523.0235595703125	 32.54863739013672	 285.22845458984375
v -1518.0247802734375	 32.54863739013672	 285.1153564453125
v -1513.0257568359375	 32.54863739013672	 285.0023498535156
v -1508.0267333984375	 32.54484939575195	 284.8895263671875
v -1503.0281982421875	 32.54474639892578	 284.77728271484375
v -1498.0294189453125	 32.540855407714844	 284.66455078125
v -1493.0303955078125	 32.536964416503906	 284.5523681640625
v -1488.0316162109375	 32.53307342529297	 284.4404602050781
v -1483.0328369140625	 32.52153015136719	 284.3284606933594
v -1478.0338134765625	 32.50986099243164	 284.21636962890625
v -1473.0350341796875	 32.494300842285156	 284.10443115234375
v -1468.036376953125	 32.474849700927734	 283.99249267578125
v -1463.0374755859375	 32.44776153564453	 283.8804016113281
v -1458.0384521484375	 32.4205322265625	 283.76837158203125
v -1453.0396728515625	 32.39330291748047	 283.65643310546875
v -1448.041015625	 32.369808197021484	 283.54443359375
v -1443.0421142578125	 32.34646224975586	 283.432373046875
v -1438.0433349609375	 32.3270149230957	 283.3204345703125
v -1433.0445556640625	 32.311458587646484	 283.2086181640625
v -1428.045654296875	 32.30739212036133	 283.0972595214844
v -1423.0467529296875	 32.30739212036133	 282.9852600097656
v -1418.0479736328125	 32.311283111572266	 282.87261962890625
v -1413.0491943359375	 32.32295608520508	 282.76043701171875
v -1408.0501708984375	 32.33832931518555	 282.6484069824219
v -1403.051513671875	 32.3577766418457	 282.5364685058594
v -1398.052734375	 32.37333679199219	 282.4242858886719
v -1393.053955078125	 32.38910675048828	 282.3116455078125
v -1388.0548095703125	 32.408348083496094	 282.199462890625
v -1383.05615234375	 32.42023468017578	 282.0874328613281
v -1378.0572509765625	 32.43557357788086	 281.9754638671875
v -1373.058349609375	 32.451133728027344	 281.86346435546875
v -1368.0594482421875	 32.46669387817383	 281.75164794921875
v -1363.0604248046875	 32.478599548339844	 281.64044189453125
v -1358.0615234375	 32.4978141784668	 281.52947998046875
v -1353.0626220703125	 32.51361846923828	 281.41864013671875
v -1348.0638427734375	 32.532081604003906	 281.3084716796875
v -1343.0650634765625	 32.55227279663086	 281.198486328125
v -1338.0660400390625	 32.57172775268555	 281.0886535644531
v -1333.0670166015625	 32.59117889404297	 280.9794921875
v -1328.0682373046875	 32.60673904418945	 280.87066650390625
v -1323.0692138671875	 32.614784240722656	 280.7626647949219
v -1318.0704345703125	 32.614784240722656	 280.655517578125
v -1313.0714111328125	 32.61089324951172	 280.5486755371094
v -1308.0723876953125	 32.60700225830078	 280.44268798828125
v -1303.0733642578125	 32.59950637817383	 280.3374938964844
v -1298.0745849609375	 32.599220275878906	 280.232666015625
v -1293.0750732421875	 32.59532928466797	 280.128662109375
v -1288.076171875	 32.59532928466797	 280.02569580078125
v -1283.076904296875	 32.59143829345703	 279.9236755371094
v -1278.0780029296875	 32.582969665527344	 279.82269287109375
v -1273.0787353515625	 32.56122970581055	 279.72271728515625
v -1268.0797119140625	 32.53759002685547	 279.62353515625
v -1263.08056640625	 32.51393127441406	 279.5250244140625
v -1258.0814208984375	 32.494483947753906	 279.4285888671875
v -1253.0823974609375	 32.47502899169922	 279.332763671875
v -1248.083251953125	 32.45557403564453	 279.2379150390625
v -1243.083984375	 32.443580627441406	 279.14495849609375
v -1238.0845947265625	 32.431907653808594	 279.0535888671875
v -1233.0853271484375	 32.42023468017578	 278.96307373046875
v -1228.0858154296875	 32.40889358520508	 278.8746337890625
v -1223.086669921875	 32.40111541748047	 278.787109375
v -1218.087158203125	 32.396888732910156	 278.7017517089844
v -1213.0877685546875	 32.38944625854492	 278.61798095703125
v -1208.088134765625	 32.38910675048828	 278.5359802246094
v -1203.0888671875	 32.39299774169922	 278.4559631347656
v -1198.0892333984375	 32.404319763183594	 278.3779602050781
v -1193.08984375	 32.42377471923828	 278.30206298828125
v -1188.09033203125	 32.450660705566406	 278.2280578613281
v -1183.0908203125	 32.48178482055664	 278.15618896484375
v -1178.09130859375	 32.51679992675781	 278.08721923828125
v -1173.0916748046875	 32.54050064086914	 278.02093505859375
v -1168.0919189453125	 32.55606460571289	 277.9564208984375
v -1163.092041015625	 32.54899597167969	 277.8950500488281
v -1158.092529296875	 32.545108795166016	 277.8360900878906
v -1153.0926513671875	 32.49099349975586	 277.779296875
v -1148.093017578125	 32.44819641113281	 277.7251281738281
v -1143.0933837890625	 32.413177490234375	 277.6731262207031
v -1138.093505859375	 32.3781623840332	 277.62322998046875
v -1133.09375	 32.35055923461914	 277.57611083984375
v -1128.0938720703125	 32.327213287353516	 277.5313415527344
v -1123.0941162109375	 32.30386734008789	 277.48919677734375
v -1118.0941162109375	 32.28830337524414	 277.4491882324219
v -1113.0941162109375	 32.27273941040039	 277.41119384765625
v -1108.09423828125	 32.26106643676758	 277.37518310546875
v -1103.0943603515625	 32.25328826904297	 277.34136962890625
v -1098.09423828125	 32.249027252197266	 277.3102111816406
v -1093.0941162109375	 32.24550247192383	 277.28125
v -1088.0941162109375	 32.24513626098633	 277.2542724609375
v -1083.093994140625	 32.24513626098633	 277.2292785644531
v -1078.0938720703125	 32.24513626098633	 277.2062683105469
v -1073.0938720703125	 32.24513626098633	 277.1854553222656
v -1068.0938720703125	 32.24513626098633	 277.1671142578125
v -1063.09375	 32.23772048950195	 277.1502990722656
v -1058.09375	 32.233463287353516	 277.13543701171875
v -1053.0936279296875	 32.2221565246582	 277.1231384277344
v -1048.0933837890625	 32.21400833129883	 277.1122741699219
v -1043.0931396484375	 32.202335357666016	 277.1033020019531
v -1038.0931396484375	 32.1906623840332	 277.0961608886719
v -1033.093017578125	 32.17934799194336	 277.0903015136719
v -1028.0927734375	 32.171207427978516	 277.0861511230469
v -1023.0928955078125	 32.16342544555664	 277.0831604003906
v -1018.0928955078125	 32.156002044677734	 277.0810241699219
v -1013.0926513671875	 32.15175247192383	 277.0789794921875
v -1008.0924072265625	 32.14786148071289	 277.0769958496094
v -1003.0924072265625	 32.14786148071289	 277.07464599609375
v -998.0924072265625	 32.14786148071289	 277.0702819824219
v -993.09228515625	 32.15175247192383	 277.06243896484375
v -988.0919189453125	 32.1595344543457	 277.0509338378906
v -983.091796875	 32.17084884643555	 277.0341796875
v -978.0919189453125	 32.1864128112793	 277.01318359375
v -973.0919189453125	 32.20197677612305	 276.98846435546875
v -968.092041015625	 32.221431732177734	 276.9616394042969
v -963.091796875	 32.26209259033203	 276.93359375
v -958.091796875	 32.264591217041016	 276.90478515625
v -953.091796875	 32.28226089477539	 276.875732421875
v -948.0916748046875	 32.307037353515625	 276.8467712402344
v -943.0916748046875	 32.322601318359375	 276.8175048828125
v -938.0916748046875	 32.338165283203125	 276.787841796875
v -933.0916748046875	 32.35019302368164	 276.7587585449219
v -928.0916748046875	 32.357975006103516	 276.7297668457031
v -923.0916748046875	 32.36575698852539	 276.7008056640625
v -918.0916748046875	 32.369293212890625	 276.6719970703125
v -913.0916748046875	 32.36964797973633	 276.6436767578125
v -908.0916748046875	 32.37318420410156	 276.6149597167969
v -903.0916748046875	 32.373538970947266	 276.5867614746094
v -898.0916748046875	 32.373538970947266	 276.55877685546875
v -893.091796875	 32.381324768066406	 276.5308837890625
v -888.091552734375	 32.38910675048828	 276.5035705566406
v -883.0916748046875	 32.400421142578125	 276.4758605957031
v -878.0916748046875	 32.41209411621094	 276.44879150390625
v -873.0916748046875	 32.42765808105469	 276.4217834472656
v -868.0916748046875	 32.43968963623047	 276.394775390625
v -863.0916748046875	 32.45489501953125	 276.367919921875
v -858.0919189453125	 32.46656799316406	 276.3417663574219
v -853.0919189453125	 32.474708557128906	 276.3157958984375
v -848.0919189453125	 32.48602294921875	 276.2897644042969
v -843.0919189453125	 32.493804931640625	 276.2639465332031
v -838.092041015625	 32.49805450439453	 276.23876953125
v -833.0919189453125	 32.505836486816406	 276.2137756347656
v -828.0919189453125	 32.509727478027344	 276.18878173828125
v -823.0919189453125	 32.51361846923828	 276.163818359375
v -818.0919189453125	 32.51750946044922	 276.13897705078125
v -813.091796875	 32.51750946044922	 276.1148376464844
v -808.0916748046875	 32.51361846923828	 276.0909423828125
v -803.091552734375	 32.505836486816406	 276.06768798828125
v -798.0916748046875	 32.49452209472656	 276.04400634765625
v -793.0916748046875	 32.48284912109375	 276.02099609375
v -788.091796875	 32.47117614746094	 275.9986572265625
v -783.091552734375	 32.463035583496094	 275.9759826660156
v -778.091552734375	 32.45525360107422	 275.9538269042969
v -773.0914306640625	 32.44782638549805	 275.9319763183594
v -768.09130859375	 32.447471618652344	 275.91070556640625
v -763.0911865234375	 32.447471618652344	 275.8891906738281
v -758.0911865234375	 32.447471618652344	 275.86865234375
v -753.091064453125	 32.45136260986328	 275.8480224609375
v -748.0909423828125	 32.45525360107422	 275.827880859375
v -743.0909423828125	 32.46268081665039	 275.8078308105469
v -738.0908203125	 32.470462799072266	 275.78802490234375
v -733.0906982421875	 32.47824478149414	 275.76885986328125
v -728.0906982421875	 32.486026763916016	 275.7500305175781
v -723.090576171875	 32.49380874633789	 275.731689453125
v -718.090576171875	 32.49805450439453	 275.7130126953125
v -713.0904541015625	 32.50194549560547	 275.6948547363281
v -708.090576171875	 32.505836486816406	 275.6768798828125
v -703.0904541015625	 32.505836486816406	 275.6588439941406
v -698.0902099609375	 32.50194549560547	 275.6410217285156
v -693.09033203125	 32.490623474121094	 275.6238708496094
v -688.090087890625	 32.47895050048828	 275.606689453125
v -683.0902099609375	 32.463382720947266	 275.5889892578125
v -678.0902099609375	 32.447818756103516	 275.57183837890625
v -673.090087890625	 32.43579864501953	 275.55499267578125
v -668.090087890625	 32.42058181762695	 275.5386962890625
v -663.0899658203125	 32.40890884399414	 275.5218811035156
v -658.0899658203125	 32.400779724121094	 275.5050354003906
v -653.0899658203125	 32.39299774169922	 275.48870849609375
v -648.08984375	 32.38910675048828	 275.47186279296875
v -643.08984375	 32.38910675048828	 275.45501708984375
v -638.0897216796875	 32.38910675048828	 275.43865966796875
v -633.08984375	 32.39299774169922	 275.4220275878906
v -628.0897216796875	 32.400779724121094	 275.40570068359375
v -623.0897216796875	 32.412452697753906	 275.38885498046875
v -618.0897216796875	 32.42766571044922	 275.3720397949219
v -613.089599609375	 32.447120666503906	 275.35565185546875
v -608.089599609375	 32.466575622558594	 275.3388366699219
v -603.0897216796875	 32.48603057861328	 275.3218688964844
v -598.0897216796875	 32.509376525878906	 275.3048400878906
v -593.089599609375	 32.528831481933594	 275.287841796875
v -588.0897216796875	 32.552181243896484	 275.2708740234375
v -583.0897216796875	 32.57164001464844	 275.25372314453125
v -578.089599609375	 32.58720016479492	 275.2359924316406
v -573.089599609375	 32.603111267089844	 275.21868896484375
v -568.089599609375	 32.61832809448242	 275.2008361816406
v -563.0894775390625	 32.63035202026367	 275.1828308105469
v -558.0894775390625	 32.64167404174805	 275.16485595703125
v -553.08935546875	 32.64945602416992	 275.14666748046875
v -548.08935546875	 32.6572380065918	 275.1280212402344
v -543.08935546875	 32.66501998901367	 275.10968017578125
v -538.08935546875	 32.67280197143555	 275.0906677246094
v -533.089111328125	 32.68058776855469	 275.07098388671875
v -528.0892333984375	 32.688716888427734	 275.0516662597656
v -523.089111328125	 32.69649887084961	 275.03179931640625
v -518.089111328125	 32.70782470703125	 275.0118408203125
v -513.089111328125	 32.7159538269043	 274.99169921875
v -508.0890808105469	 32.72373580932617	 274.9708251953125
v -503.0889587402344	 32.72762680053711	 274.94964599609375
v -498.0890197753906	 32.73151779174805	 274.9280090332031
v -493.0890197753906	 32.735408782958984	 274.90667724609375
v -488.0890197753906	 32.73151779174805	 274.8846740722656
v -483.0888977050781	 32.72797393798828	 274.8619384765625
v -478.0889587402344	 32.724082946777344	 274.8396911621094
v -473.0888977050781	 32.719844818115234	 274.8166198730469
v -468.0887145996094	 32.712406158447266	 274.79296875
v -463.0887756347656	 32.70817184448242	 274.7696228027344
v -458.0886535644531	 32.70073318481445	 274.74578857421875
v -453.0886535644531	 32.69649887084961	 274.7218017578125
v -448.0885314941406	 32.69260787963867	 274.6977844238281
v -443.0884704589844	 32.688716888427734	 274.67364501953125
v -438.0885314941406	 32.6848258972168	 274.6488037109375
v -433.0885314941406	 32.68093490600586	 274.623779296875
v -428.0885925292969	 32.68093490600586	 274.59881591796875
v -423.0885925292969	 32.68093490600586	 274.57366943359375
v -418.0885314941406	 32.6848258972168	 274.5479736328125
v -413.0884704589844	 32.6922607421875	 274.52264404296875
v -408.0885925292969	 32.700042724609375	 274.496826171875
v -403.0885925292969	 32.71171569824219	 274.4708251953125
v -398.0887145996094	 32.723388671875	 274.4447937011719
v -393.0887756347656	 32.73506164550781	 274.41876220703125
v -388.0888366699219	 32.7470817565918	 274.392822265625
v -383.0887145996094	 32.75875473022461	 274.3667907714844
v -378.0888366699219	 32.77008056640625	 274.34063720703125
v -373.0888977050781	 32.7782096862793	 274.31396484375
v -368.0888366699219	 32.782100677490234	 274.28759765625
v -363.0888366699219	 32.78599166870117	 274.2609558105469
v -358.0888977050781	 32.782100677490234	 274.234619140625
v -353.0888977050781	 32.77855682373047	 274.20794677734375
v -348.0890197753906	 32.77431869506836	 274.181640625
v -343.0890197753906	 32.766883850097656	 274.15496826171875
v -338.0890808105469	 32.76264572143555	 274.128662109375
v -333.0890808105469	 32.75486373901367	 274.1019592285156
v -328.0891418457031	 32.750972747802734	 274.0758056640625
v -323.0892028808594	 32.7470817565918	 274.0497741699219
v -318.0892639160156	 32.7470817565918	 274.0238037109375
v -313.0893859863281	 32.750972747802734	 273.997802734375
v -308.0893859863281	 32.75840377807617	 273.9718017578125
v -303.0894470214844	 32.76618576049805	 273.94580078125
v -298.0895080566406	 32.77431869506836	 273.91998291015625
v -293.0896301269531	 32.78599166870117	 273.89483642578125
v -288.0896911621094	 32.797664642333984	 273.86981201171875
v -283.0896911621094	 32.81288146972656	 273.8448181152344
v -278.0896911621094	 32.82101058959961	 273.8198547363281
v -273.0897521972656	 32.83233642578125	 273.79498291015625
v -268.0898132324219	 32.83657455444336	 273.77081298828125
v -263.0898132324219	 32.8404655456543	 273.7470397949219
v -258.0897521972656	 32.8404655456543	 273.7238464355469
v -253.08975219726562	 32.83657455444336	 273.7008361816406
v -248.08975219726562	 32.825252532958984	 273.677978515625
v -243.08975219726562	 32.81357955932617	 273.65582275390625
v -238.08975219726562	 32.79801559448242	 273.63385009765625
v -233.08987426757812	 32.78245162963867	 273.612060546875
v -228.08987426757812	 32.762996673583984	 273.59088134765625
v -223.08990478515625	 32.7435417175293	 273.56982421875
v -218.0899658203125	 32.720542907714844	 273.5490417480469
v -213.09002685546875	 32.70073699951172	 273.52886962890625
v -208.09005737304688	 32.68517303466797	 273.50909423828125
v -203.08999633789062	 32.66926193237305	 273.4898986816406
v -198.0899658203125	 32.65404510498047	 273.47088623046875
v -193.09002685546875	 32.642372131347656	 273.4520263671875
v -188.09005737304688	 32.63424301147461	 273.433837890625
v -183.09011840820312	 32.626808166503906	 273.416015625
v -178.09014892578125	 32.62256622314453	 273.3988952636719
v -173.090087890625	 32.618675231933594	 273.3818664550781
v -168.09014892578125	 32.618675231933594	 273.36505126953125
v -163.09017944335938	 32.618675231933594	 273.3489074707031
v -158.09011840820312	 32.614784240722656	 273.33294677734375
v -153.09005737304688	 32.618675231933594	 273.31707763671875
v -148.09011840820312	 32.618675231933594	 273.3019104003906
v -143.09005737304688	 32.62256622314453	 273.2870788574219
v -138.08999633789062	 32.626461029052734	 273.2729187011719
v -133.0899658203125	 32.63035202026367	 273.25909423828125
v -128.08987426757812	 32.63813400268555	 273.24591064453125
v -123.08987426757812	 32.64591598510742	 273.2329406738281
v -118.08978271484375	 32.6536979675293	 273.2200927734375
v -113.08981323242188	 32.66537094116211	 273.2080993652344
v -108.08975219726562	 32.67704391479492	 273.19677734375
v -103.0897216796875	 32.692256927490234	 273.185302734375
v -98.08969116210938	 32.704280853271484	 273.1749267578125
v -93.08966064453125	 32.719844818115234	 273.1649169921875
v -88.08963012695312	 32.735408782958984	 273.1553039550781
v -83.089599609375	 32.7506217956543	 273.14715576171875
v -78.0894775390625	 32.76618576049805	 273.14031982421875
v -73.08969116210938	 32.7782096862793	 273.135498046875
v -68.08956909179688	 32.78988265991211	 273.1336669921875
v -63.08953857421875	 32.797664642333984	 273.13623046875
v -58.08941650390625	 32.80155563354492	 273.14593505859375
v -53.0897216796875	 32.80155563354492	 273.1676025390625
v -48.0897216796875	 32.78634262084961	 273.21014404296875
v -43.090362548828125	 32.759456634521484	 273.2892150878906
v -38.092803955078125	 32.707916259765625	 273.436279296875
v -33.10186767578125	 32.6334114074707	 273.7213439941406
v -28.136566162109375	 32.53902053833008	 274.29144287109375
v -23.26922607421875	 32.42333984375	 275.4085998535156
v -18.758514404296875	 32.289730072021484	 277.52276611328125
v -15.162200927734375	 32.14418029785156	 280.95953369140625
v -12.6787109375	 32.0051155090332	 285.2868347167969
v -10.759796142578125	 31.883317947387695	 289.9012756347656
v -9.0771484375	 31.788496017456055	 294.6083068847656
v -7.5302734375	 31.71767807006836	 299.3624267578125
v -6.0506591796875	 31.672273635864258	 304.13824462890625
v -4.606201171875	 31.65009880065918	 308.92486572265625
v -3.18310546875	 31.648706436157227	 313.71795654296875
v -1.774078369140625	 31.663484573364258	 318.5153503417969
v -0.373779296875	 31.6911678314209	 323.315185546875
v 1.020599365234375	 31.729068756103516	 328.11669921875
v 2.41033935546875	 31.777584075927734	 332.91943359375
v 3.7977294921875	 31.828662872314453	 337.722900390625
v 5.1824951171875	 31.886240005493164	 342.5269775390625
v 6.565216064453125	 31.943815231323242	 347.3316650390625
v 7.94696044921875	 32.00528335571289	 352.1365966796875
v 9.328216552734375	 32.065467834472656	 356.941650390625
v 10.709716796875	 32.12431716918945	 361.7464599609375
v 12.09173583984375	 32.1854248046875	 366.55126953125
v 13.475799560546875	 32.24335479736328	 371.35546875
v 14.862762451171875	 32.29704284667969	 376.1590576171875
v 16.255859375	 32.350730895996094	 380.960693359375
v 17.66156005859375	 32.41270446777344	 385.7586669921875
v 19.0966796875	 32.4350471496582	 390.54815673828125
v 20.629043579101562	 32.45136260986328	 395.307373046875
v 22.440353393554688	 32.459144592285156	 399.966064453125
v 24.658721923828125	 32.45484924316406	 404.4454345703125
v 27.122817993164062	 32.440006256103516	 408.79559326171875
v 29.730865478515625	 32.417152404785156	 413.06121826171875
v 32.451446533203125	 32.39024353027344	 417.256103515625
v 35.28297424316406	 32.35929870605469	 421.37664794921875
v 38.267120361328125	 32.32667922973633	 425.38775634765625
v 41.480499267578125	 32.296897888183594	 429.217041015625
v 44.9571533203125	 32.26939392089844	 432.80908203125
v 48.6705322265625	 32.246421813964844	 436.15576171875
v 52.586944580078125	 32.22626495361328	 439.2626953125
v 56.68196105957031	 32.203575134277344	 442.13055419921875
v 60.93223571777344	 32.18313980102539	 444.76300048828125
v 65.29612731933594	 32.15837860107422	 447.2027587890625
v 69.7152099609375	 32.13340377807617	 449.5416259765625
v 74.15594482421875	 32.104469299316406	 451.83935546875
v 78.62190246582031	 32.0726432800293	 454.08740234375
v 83.11770629882812	 32.038455963134766	 456.2750244140625
v 87.64013671875	 32.00510787963867	 458.40704345703125
v 92.183837890625	 31.969411849975586	 460.49346923828125
v 96.74223327636719	 31.933731079101562	 462.547607421875
v 101.31077575683594	 31.901941299438477	 464.579345703125
v 105.88693237304688	 31.870162963867188	 466.5941162109375
v 110.46884155273438	 31.84228515625	 468.59521484375
v 115.05596923828125	 31.81462860107422	 470.5843505859375
v 119.64794921875	 31.7912540435791	 472.5626220703125
v 124.24491882324219	 31.769474029541016	 474.5291748046875
v 128.84739685058594	 31.74968910217285	 476.48272705078125
v 133.45751953125	 31.731517791748047	 478.4183349609375
v 138.07781982421875	 31.714366912841797	 480.32958984375
v 142.71044921875	 31.700389862060547	 482.21087646484375
v 147.3570098876953	 31.684823989868164	 484.05718994140625
v 152.01840209960938	 31.673080444335938	 485.8660888671875
v 156.69378662109375	 31.65877914428711	 487.63824462890625
v 161.38197326660156	 31.644428253173828	 489.3763427734375
v 166.08218383789062	 31.63003158569336	 491.08135986328125
v 170.79391479492188	 31.61478614807129	 492.75408935546875
v 175.51785278320312	 31.59720802307129	 494.39202880859375
v 180.2574462890625	 31.578824996948242	 495.98455810546875
v 185.01881408691406	 31.560237884521484	 497.510498046875
v 189.81155395507812	 31.53769874572754	 498.9342041015625
v 194.64085388183594	 31.511125564575195	 500.22900390625
v 199.5009765625	 31.480915069580078	 501.40289306640625
v 204.38369750976562	 31.450403213500977	 502.47900390625
v 209.28048706054688	 31.41614532470703	 503.4891357421875
v 214.18380737304688	 31.38196563720703	 504.4671630859375
v 219.09095764160156	 31.34783172607422	 505.4251708984375
v 224.0022430419922	 31.31515884399414	 506.36260986328125
v 228.91769409179688	 31.280794143676758	 507.27752685546875
v 233.8376922607422	 31.253549575805664	 508.1673583984375
v 238.7627410888672	 31.226604461669922	 509.02947998046875
v 243.69320678710938	 31.20741844177246	 509.85992431640625
v 248.62953186035156	 31.192102432250977	 510.6552734375
v 253.5721435546875	 31.18454360961914	 511.41009521484375
v 258.52093505859375	 31.182878494262695	 512.122802734375
v 263.47528076171875	 31.188621520996094	 512.7962646484375
v 268.434326171875	 31.200132369995117	 513.4344482421875
v 273.3973388671875	 31.219446182250977	 514.0411987304688
v 278.36358642578125	 31.246551513671875	 514.6201171875
v 283.33258056640625	 31.274961471557617	 515.1754150390625
v 288.3037109375	 31.305866241455078	 515.7110595703125
v 293.2763671875	 31.339597702026367	 516.2325439453125
v 298.2498779296875	 31.37159538269043	 516.7462158203125
v 303.2233581542969	 31.405536651611328	 517.2591552734375
v 308.19610595703125	 31.43732452392578	 517.7803955078125
v 313.16693115234375	 31.468225479125977	 518.3178100585938
v 318.13555908203125	 31.49911117553711	 518.8765869140625
v 323.10162353515625	 31.529577255249023	 519.4580688476562
v 328.06494140625	 31.55692481994629	 520.0619506835938
v 333.0257568359375	 31.583858489990234	 520.68603515625
v 337.9844055175781	 31.6108341217041	 521.3271484375
v 342.94134521484375	 31.634014129638672	 521.9814453125
v 347.89666748046875	 31.661075592041016	 522.646728515625
v 352.85089111328125	 31.68424415588379	 523.32080078125
v 357.8041687011719	 31.711299896240234	 524.0023803710938
v 362.7562255859375	 31.737403869628906	 524.6917114257812
v 367.7074279785156	 31.765398025512695	 525.3883666992188
v 372.657470703125	 31.795000076293945	 526.093017578125
v 377.6060791015625	 31.827260971069336	 526.8063354492188
v 382.5531005859375	 31.864227294921875	 527.5313110351562
v 387.49755859375	 31.90659523010254	 528.2732543945312
v 392.43731689453125	 31.95671272277832	 529.0457153320312
v 397.364990234375	 32.01161575317383	 529.8901977539062
v 402.2574462890625	 32.07271957397461	 530.91650390625
v 407.0440673828125	 32.13027572631836	 532.349365234375
v 411.4996643066406	 32.18128967285156	 534.59228515625
v 415.14141845703125	 32.2183952331543	 537.98681640625
v 417.69793701171875	 32.12199020385742	 542.2733154296875
v 419.67755126953125	 32.04280090332031	 546.8617553710938
v 421.23895263671875	 32.0107421875	 551.6097412109375
v 422.37115478515625	 32.14192581176758	 556.47705078125
v 423.137939453125	 32.294273376464844	 561.414794921875
v 423.6405029296875	 32.42720031738281	 566.387451171875
v 423.9697265625	 32.478599548339844	 571.3761596679688
v 424.2049865722656	 32.507144927978516	 576.3704833984375
v 424.39154052734375	 32.552528381347656	 581.3667602539062
v 424.5510559082031	 32.55500793457031	 586.364013671875
v 424.69464111328125	 32.535560607910156	 591.3618774414062
v 424.8287048339844	 32.49774169921875	 596.360107421875
v 424.9573669433594	 32.44329071044922	 601.3580932617188
v 425.0823059082031	 32.371891021728516	 606.3560791015625
v 425.2053527832031	 32.29410171508789	 611.35400390625
v 425.3272705078125	 32.21242141723633	 616.3517456054688
v 425.4488525390625	 32.13074493408203	 621.3497314453125
v 425.57135009765625	 32.05851364135742	 626.34765625
v 425.69384765625	 31.999855041503906	 631.3458862304688
v 425.8175964355469	 31.950632095336914	 636.343994140625
v 425.942138671875	 31.915624618530273	 641.34228515625
v 426.068115234375	 31.889724731445312	 646.3406372070312
v 426.1952209472656	 31.87159538269043	 651.339111328125
v 426.3233337402344	 31.862503051757812	 656.337158203125
v 426.4526672363281	 31.85603141784668	 661.33544921875
v 426.58355712890625	 31.852140426635742	 666.333740234375
v 426.7157897949219	 31.852140426635742	 671.3320922851562
v 426.8489074707031	 31.856029510498047	 676.330322265625
v 426.9826965332031	 31.85603141784668	 681.3285522460938
v 427.1169738769531	 31.8572998046875	 686.3267211914062
v 427.2521667480469	 31.859922409057617	 691.3248291015625
v 427.3878479003906	 31.85603141784668	 696.3230590820312
v 427.5231628417969	 31.856029510498047	 701.321044921875
v 427.65899658203125	 31.85089683532715	 706.3192138671875
v 427.7948913574219	 31.843921661376953	 711.3173828125
v 427.93084716796875	 31.836576461791992	 716.3154296875
v 428.06658935546875	 31.828794479370117	 721.3134765625
v 428.2017517089844	 31.821012496948242	 726.3115234375
v 428.3367614746094	 31.817121505737305	 731.3097534179688
v 428.4715270996094	 31.817121505737305	 736.3079833984375
v 428.60565185546875	 31.821012496948242	 741.3059692382812
v 428.7396240234375	 31.826086044311523	 746.30419921875
v 428.8733825683594	 31.837749481201172	 751.30224609375
v 429.0063171386719	 31.853307723999023	 756.3003540039062
v 429.13848876953125	 31.868867874145508	 761.2986450195312
v 429.27056884765625	 31.884424209594727	 766.296875
v 429.40216064453125	 31.903871536254883	 771.295166015625
v 429.5325927734375	 31.9194278717041	 776.293212890625
v 429.66302490234375	 31.931093215942383	 781.2913818359375
v 429.7922058105469	 31.941635131835938	 786.2896728515625
v 429.9211120605469	 31.949417114257812	 791.287841796875
v 430.04962158203125	 31.949417114257812	 796.2862548828125
v 430.1769714355469	 31.944419860839844	 801.284423828125
v 430.3038024902344	 31.936641693115234	 806.2827758789062
v 430.4296875	 31.923303604125977	 811.2811279296875
v 430.5549621582031	 31.909420013427734	 816.2794189453125
v 430.6802978515625	 31.893861770629883	 821.2777099609375
v 430.80438232421875	 31.8783016204834	 826.2760620117188
v 430.92755126953125	 31.863813400268555	 831.2743530273438
v 431.0500793457031	 31.851078033447266	 836.27294921875
v 431.17144775390625	 31.83941078186035	 841.271240234375
v 431.2930908203125	 31.828794479370117	 846.26953125
v 431.4140625	 31.819969177246094	 851.26806640625
v 431.533935546875	 31.809337615966797	 856.2667236328125
v 431.6529846191406	 31.801555633544922	 861.26513671875
v 431.7717590332031	 31.793773651123047	 866.263671875
v 431.889892578125	 31.785991668701172	 871.2620849609375
v 432.00787353515625	 31.778209686279297	 876.2603759765625
v 432.1253662109375	 31.770427703857422	 881.2589111328125
v 432.2418518066406	 31.75875473022461	 886.257568359375
v 432.3585205078125	 31.747081756591797	 891.2559814453125
v 432.474365234375	 31.734418869018555	 896.25439453125
v 432.5894775390625	 31.718860626220703	 901.252685546875
v 432.7044677734375	 31.70330238342285	 906.2513427734375
v 432.8192443847656	 31.68385124206543	 911.25
v 432.93310546875	 31.668291091918945	 916.2489013671875
v 433.0464782714844	 31.648841857910156	 921.2474365234375
v 433.1601257324219	 31.629392623901367	 926.2459716796875
v 433.27301025390625	 31.60605239868164	 931.2447509765625
v 433.3851013183594	 31.58565330505371	 936.2435302734375
v 433.4970703125	 31.56325912475586	 941.241943359375
v 433.6088562011719	 31.539918899536133	 946.2406005859375
v 433.719970703125	 31.516578674316406	 951.2393798828125
v 433.8309326171875	 31.497129440307617	 956.238037109375
v 433.94171142578125	 31.473787307739258	 961.2366943359375
v 434.0518493652344	 31.453420639038086	 966.2352294921875
v 434.1615905761719	 31.43099594116211	 971.23388671875
v 434.27069091796875	 31.407655715942383	 976.2325439453125
v 434.37969970703125	 31.384313583374023	 981.231201171875
v 434.48846435546875	 31.360973358154297	 986.2298583984375
v 434.5965576171875	 31.3424129486084	 991.228759765625
v 434.704345703125	 31.329853057861328	 996.227294921875
v 434.8114929199219	 31.32295799255371	 1001.22607421875
v 434.91839599609375	 31.32383155822754	 1006.2247314453125
v 435.02520751953125	 31.33852195739746	 1011.2236328125
v 435.1315612792969	 31.35883903503418	 1016.2222900390625
v 435.23797607421875	 31.38607406616211	 1021.2213134765625
v 435.3431396484375	 31.417198181152344	 1026.2197265625
v 435.4481506347656	 31.448322296142578	 1031.2186279296875
v 435.55322265625	 31.47944450378418	 1036.21728515625
v 435.657958984375	 31.503625869750977	 1041.2159423828125
v 435.76177978515625	 31.526126861572266	 1046.2149658203125
v 435.8651123046875	 31.54116439819336	 1051.213623046875
v 435.9685974121094	 31.54863739013672	 1056.21240234375
v 436.07086181640625	 31.54863739013672	 1061.21142578125
v 436.17279052734375	 31.540855407714844	 1066.2099609375
v 436.2747497558594	 31.528369903564453	 1071.208740234375
v 436.3763427734375	 31.508920669555664	 1076.2076416015625
v 436.47686767578125	 31.485578536987305	 1081.2064208984375
v 436.5775451660156	 31.462236404418945	 1086.2052001953125
v 436.6773681640625	 31.438894271850586	 1091.2041015625
v 436.77642822265625	 31.419443130493164	 1096.2030029296875
v 436.87542724609375	 31.396102905273438	 1101.2017822265625
v 436.9739990234375	 31.376651763916016	 1106.2005615234375
v 437.0712890625	 31.357200622558594	 1111.1993408203125
v 437.1683654785156	 31.337749481201172	 1116.1983642578125
v 437.26531982421875	 31.322187423706055	 1121.1976318359375
v 437.36181640625	 31.306629180908203	 1126.1964111328125
v 437.45703125	 31.294960021972656	 1131.1954345703125
v 437.5517883300781	 31.28793716430664	 1136.1944580078125
v 437.6458740234375	 31.28793716430664	 1141.193359375
v 437.7396545410156	 31.291828155517578	 1146.1925048828125
v 437.83258056640625	 31.300355911254883	 1151.1912841796875
v 437.9247131347656	 31.31202507019043	 1156.1903076171875
v 438.0164794921875	 31.32758331298828	 1161.18896484375
v 438.107421875	 31.347036361694336	 1166.1883544921875
v 438.197509765625	 31.370376586914062	 1171.1871337890625
v 438.28729248046875	 31.39444351196289	 1176.1861572265625
v 438.3761901855469	 31.425567626953125	 1181.1854248046875
v 438.4640808105469	 31.4605770111084	 1186.1842041015625
v 438.55096435546875	 31.50337028503418	 1191.1829833984375
v 438.6370544433594	 31.549348831176758	 1196.181884765625
v 438.72283935546875	 31.60133171081543	 1201.180908203125
v 438.8074951171875	 31.659685134887695	 1206.1798095703125
v 438.8907165527344	 31.7219295501709	 1211.1787109375
v 438.97344970703125	 31.788061141967773	 1216.1773681640625
v 439.05560302734375	 31.854198455810547	 1221.17626953125
v 439.1371765136719	 31.920331954956055	 1226.175048828125
v 439.21722412109375	 31.982574462890625	 1231.1739501953125
v 439.296142578125	 32.04092788696289	 1236.1727294921875
v 439.3742370605469	 32.09539031982422	 1241.1719970703125
v 439.4522705078125	 32.14918899536133	 1246.1708984375
v 439.52984619140625	 32.19587326049805	 1251.1700439453125
v 439.6063232421875	 32.24256134033203	 1256.1690673828125
v 439.6830139160156	 32.28535461425781	 1261.1680908203125
v 439.7591247558594	 32.328147888183594	 1266.1669921875
v 439.8351135253906	 32.3670539855957	 1271.1663818359375
v 439.9111328125	 32.409847259521484	 1276.1654052734375
v 439.98687744140625	 32.44874954223633	 1281.1644287109375
v 440.062255859375	 32.48765563964844	 1286.1634521484375
v 440.13836669921875	 32.5232048034668	 1291.1627197265625
v 440.215087890625	 32.560943603515625	 1296.161865234375
v 440.291259765625	 32.59269332885742	 1301.1610107421875
v 440.3677978515625	 32.623191833496094	 1306.1602783203125
v 440.4453125	 32.65042495727539	 1311.159423828125
v 440.52239990234375	 32.67376708984375	 1316.1585693359375
v 440.5994873046875	 32.69322204589844	 1321.1575927734375
v 440.6773681640625	 32.70878219604492	 1326.1571044921875
v 440.75555419921875	 32.719844818115234	 1331.1563720703125
v 440.83404541015625	 32.72373580932617	 1336.1553955078125
v 440.9134521484375	 32.72762680053711	 1341.1546630859375
v 440.9925537109375	 32.72762680053711	 1346.1539306640625
v 441.0719909667969	 32.72762680053711	 1351.1534423828125
v 441.15179443359375	 32.72762680053711	 1356.1527099609375
v 441.231689453125	 32.72762680053711	 1361.15185546875
v 441.3121032714844	 32.73210525512695	 1366.151123046875
v 441.3929138183594	 32.73988342285156	 1371.1505126953125
v 441.47393798828125	 32.75155258178711	 1376.1497802734375
v 441.55517578125	 32.76264572143555	 1381.14892578125
v 441.6365966796875	 32.77431869506836	 1386.1483154296875
v 441.71820068359375	 32.782676696777344	 1391.1474609375
v 441.8000183105469	 32.79045486450195	 1396.146728515625
v 441.88238525390625	 32.797664642333984	 1401.14599609375
v 441.9649963378906	 32.80155563354492	 1406.1451416015625
v 442.0473937988281	 32.80155563354492	 1411.1444091796875
v 442.1302490234375	 32.793216705322266	 1416.1435546875
v 442.2132263183594	 32.773765563964844	 1421.142822265625
v 442.2964172363281	 32.74208450317383	 1426.1419677734375
v 442.38006591796875	 32.69929122924805	 1431.1409912109375
v 442.4633483886719	 32.64871597290039	 1436.1400146484375
v 442.5472412109375	 32.593711853027344	 1441.138671875
v 442.63116455078125	 32.53146743774414	 1446.1376953125
v 442.71539306640625	 32.464805603027344	 1451.13623046875
v 442.79986572265625	 32.38700866699219	 1456.1348876953125
v 442.88409423828125	 32.30480194091797	 1461.13330078125
v 442.9681701660156	 32.21195602416992	 1466.1319580078125
v 443.0529479980469	 32.11809158325195	 1471.130126953125
v 443.13720703125	 32.02084732055664	 1476.1285400390625
v 443.2220764160156	 31.923606872558594	 1481.126708984375
v 443.30706787109375	 31.83073616027832	 1486.125244140625
v 443.3919677734375	 31.744678497314453	 1491.1236572265625
v 443.47698974609375	 31.66346549987793	 1496.122314453125
v 443.5618591308594	 31.587373733520508	 1501.120849609375
v 443.6469421386719	 31.520004272460938	 1506.11962890625
v 443.7319030761719	 31.457761764526367	 1511.118408203125
v 443.8168640136719	 31.399866104125977	 1516.1173095703125
v 443.902099609375	 31.348838806152344	 1521.1163330078125
v 443.9876708984375	 31.302156448364258	 1526.1153564453125
v 444.07305908203125	 31.25592041015625	 1531.1143798828125
v 444.1586608886719	 31.216569900512695	 1536.1136474609375
v 444.2439880371094	 31.17422103881836	 1541.112548828125
v 444.3296203613281	 31.13532066345215	 1546.111328125
v 444.4149169921875	 31.096418380737305	 1551.1104736328125
v 444.5005798339844	 31.057514190673828	 1556.1094970703125
v 444.5859069824219	 31.02022361755371	 1561.1085205078125
v 444.6717529296875	 30.984018325805664	 1566.1075439453125
v 444.7575378417969	 30.95247459411621	 1571.106689453125
v 444.84283447265625	 30.921768188476562	 1576.1053466796875
v 444.9286804199219	 30.894535064697266	 1581.1043701171875
v 445.01470947265625	 30.871192932128906	 1586.103759765625
v 445.10064697265625	 30.851741790771484	 1591.1025390625
v 445.1866455078125	 30.836576461791992	 1596.1016845703125
v 445.27239990234375	 30.82490348815918	 1601.1007080078125
v 445.35772705078125	 30.817121505737305	 1606.0997314453125
v 445.443603515625	 30.817121505737305	 1611.0987548828125
v 445.529541015625	 30.817121505737305	 1616.0980224609375
v 445.61553955078125	 30.821012496948242	 1621.0970458984375
v 445.7015380859375	 30.828794479370117	 1626.0960693359375
v 445.7874755859375	 30.836946487426758	 1631.0950927734375
v 445.8735656738281	 30.852506637573242	 1636.0941162109375
v 445.9594421386719	 30.868066787719727	 1641.0931396484375
v 446.0454406738281	 30.887516021728516	 1646.092041015625
v 446.13140869140625	 30.907325744628906	 1651.0914306640625
v 446.2171630859375	 30.9306640625	 1656.0902099609375
v 446.30279541015625	 30.95754623413086	 1661.0892333984375
v 446.38897705078125	 30.981231689453125	 1666.0882568359375
v 446.47454833984375	 31.008121490478516	 1671.0872802734375
v 446.5602722167969	 31.031463623046875	 1676.08642578125
v 446.64630126953125	 31.0548095703125	 1681.085693359375
v 446.73223876953125	 31.07847785949707	 1686.0845947265625
v 446.8182067871094	 31.105382919311523	 1691.0836181640625
v 446.90399169921875	 31.128725051879883	 1696.0823974609375
v 446.9892883300781	 31.152385711669922	 1701.0816650390625
v 447.0752868652344	 31.179615020751953	 1706.0806884765625
v 447.1609191894531	 31.206844329833984	 1711.0794677734375
v 447.2464294433594	 31.237659454345703	 1716.0787353515625
v 447.3319091796875	 31.265199661254883	 1721.078125
v 447.4174499511719	 31.296316146850586	 1726.0767822265625
v 447.50286865234375	 31.32744026184082	 1731.0762939453125
v 447.58837890625	 31.358558654785156	 1736.0748291015625
v 447.67376708984375	 31.38968276977539	 1741.0740966796875
v 447.759033203125	 31.42080307006836	 1746.072998046875
v 447.8437805175781	 31.451642990112305	 1751.0723876953125
v 447.9288330078125	 31.48276710510254	 1756.0711669921875
v 448.0137939453125	 31.513893127441406	 1761.0704345703125
v 448.09857177734375	 31.541778564453125	 1766.0694580078125
v 448.1830139160156	 31.57251739501953	 1771.068603515625
v 448.2665710449219	 31.603376388549805	 1776.0677490234375
v 448.3507080078125	 31.6306095123291	 1781.0665283203125
v 448.43511962890625	 31.65420913696289	 1786.0657958984375
v 448.51849365234375	 31.68118667602539	 1791.0648193359375
v 448.6014099121094	 31.70063591003418	 1796.0638427734375
v 448.684326171875	 31.723981857299805	 1801.0628662109375
v 448.76641845703125	 31.743431091308594	 1806.06201171875
v 448.847900390625	 31.76288604736328	 1811.061279296875
v 448.9293212890625	 31.782337188720703	 1816.0604248046875
v 449.0096740722656	 31.80205726623535	 1821.0596923828125
v 449.08978271484375	 31.825132369995117	 1826.0589599609375
v 449.16802978515625	 31.84458351135254	 1831.05810546875
v 449.2448425292969	 31.860143661499023	 1836.05712890625
v 449.3197937011719	 31.87959861755371	 1841.0565185546875
v 449.39117431640625	 31.899049758911133	 1846.0557861328125
v 449.4517822265625	 31.918500900268555	 1851.05517578125
v 449.25103759765625	 31.941816329956055	 1856.0469970703125
v 447.05126953125	 31.962202072143555	 1860.3372802734375
l 1 2
l 2 3
l 3 4
l 4 5
l 5 6
l 6 7
l 7 8
l 8 9
l 9 10
l 10 11
l 11 12
l 12 13
l 13 14
l 14 15
l 15 16
l 16 17
l 17 18
l 18 19
l 19 20
l 20 21
l 21 22
l 22 23
l 23 24
l 24 25
l 25 26
l 26 27
l 27 28
l 28 29
l 29 30
l 30 31
l 31 32
l 32 33
l 33 34
l 34 35
l 35 36
l 36 37
l 37 38
l 38 39
l 39 40
l 40 41
l 41 42
l 42 43
l 43 44
l 44 45
l 45 46
l 46 47
l 47 48
l 48 49
l 49 50
l 50 51
l 51 52
l 52 53
l 53 54
l 54 55
l 55 56
l 56 57
l 57 58
l 58 59
l 59 60
l 60 61
l 61 62
l 62 63
l 63 64
l 64 65
l 65 66
l 66 67
l 67 68
l 68 69
l 69 70
l 70 71
l 71 72
l 72 73
l 73 74
l 74 75
l 75 76
l 76 77
l 77 78
l 78 79
l 79 80
l 80 81
l 81 82
l 82 83
l 83 84
l 84 85
l 85 86
l 86 87
l 87 88
l 88 89
l 89 90
l 90 91
l 91 92
l 92 93
l 93 94
l 94 95
l 95 96
l 96 97
l 97 98
l 98 99
l 99 100
l 100 101
l 101 102
l 102 103
l 103 104
l 104 105
l 105 106
l 106 107
l 107 108
l 108 109
l 109 110
l 110 111
l 111 112
l 112 113
l 113 114
l 114 115
l 115 116
l 116 117
l 117 118
l 118 119
l 119 120
l 120 121
l 121 122
l 122 123
l 123 124
l 124 125
l 125 126
l 126 127
l 127 128
l 128 129
l 129 130
l 130 131
l 131 132
l 132 133
l 133 134
l 134 135
l 135 136
l 136 137
l 137 138
l 138 139
l 139 140
l 140 141
l 141 142
l 142 143
l 143 144
l 144 145
l 145 146
l 146 147
l 147 148
l 148 149
l 149 150
l 150 151
l 151 152
l 152 153
l 153 154
l 154 155
l 155 156
l 156 157
l 157 158
l 158 159
l 159 160
l 160 161
l 161 162
l 162 163
l 163 164
l 164 165
l 165 166
l 166 167
l 167 168
l 168 169
l 169 170
l 170 171
l 171 172
l 172 173
l 173 174
l 174 175
l 175 176
l 176 177
l 177 178
l 178 179
l 179 180
l 180 181
l 181 182
l 182 183
l 183 184
l 184 185
l 185 186
l 186 187
l 187 188
l 188 189
l 189 190
l 190 191
l 191 192
l 192 193
l 193 194
l 194 195
l 195 196
l 196 197
l 197 198
l 198 199
l 199 200
l 200 201
l 201 202
l 202 203
l 203 204
l 204 205
l 205 206
l 206 207
l 207 208
l 208 209
l 209 210
l 210 211
l 211 212
l 212 213
l 213 214
l 214 215
l 215 216
l 216 217
l 217 218
l 218 219
l 219 220
l 220 221
l 221 222
l 222 223
l 223 224
l 224 225
l 225 226
l 226 227
l 227 228
l 228 229
l 229 230
l 230 231
l 231 232
l 232 233
l 233 234
l 234 235
l 235 236
l 236 237
l 237 238
l 238 239
l 239 240
l 240 241
l 241 242
l 242 243
l 243 244
l 244 245
l 245 246
l 246 247
l 247 248
l 248 249
l 249 250
l 250 251
l 251 252
l 252 253
l 253 254
l 254 255
l 255 256
l 256 257
l 257 258
l 258 259
l 259 260
l 260 261
l 261 262
l 262 263
l 263 264
l 264 265
l 265 266
l 266 267
l 267 268
l 268 269
l 269 270
l 270 271
l 271 272
l 272 273
l 273 274
l 274 275
l 275 276
l 276 277
l 277 278
l 278 279
l 279 280
l 280 281
l 281 282
l 282 283
l 283 284
l 284 285
l 285 286
l 286 287
l 287 288
l 288 289
l 289 290
l 290 291
l 291 292
l 292 293
l 293 294
l 294 295
l 295 296
l 296 297
l 297 298
l 298 299
l 299 300
l 300 301
l 301 302
l 302 303
l 303 304
l 304 305
l 305 306
l 306 307
l 307 308
l 308 309
l 309 310
l 310 311
l 311 312
l 312 313
l 313 314
l 314 315
l 315 316
l 316 317
l 317 318
l 318 319
l 319 320
l 320 321
l 321 322
l 322 323
l 323 324
l 324 325
l 325 326
l 326 327
l 327 328
l 328 329
l 329 330
l 330 331
l 331 332
l 332 333
l 333 334
l 334 335
l 335 336
l 336 337
l 337 338
l 338 339
l 339 340
l 340 341
l 341 342
l 342 343
l 343 344
l 344 345
l 345 346
l 346 347
l 347 348
l 348 349
l 349 350
l 350 351
l 351 352
l 352 353
l 353 354
l 354 355
l 355 356
l 356 357
l 357 358
l 358 359
l 359 360
l 360 361
l 361 362
l 362 363
l 363 364
l 364 365
l 365 366
l 366 367
l 367 368
l 368 369
l 369 370
l 370 371
l 371 372
l 372 373
l 373 374
l 374 375
l 375 376
l 376 377
l 377 378
l 378 379
l 379 380
l 380 381
l 381 382
l 382 383
l 383 384
l 384 385
l 385 386
l 386 387
l 387 388
l 388 389
l 389 390
l 390 391
l 391 392
l 392 393
l 393 394
l 394 395
l 395 396
l 396 397
l 397 398
l 398 399
l 399 400
l 400 401
l 401 402
l 402 403
l 403 404
l 404 405
l 405 406
l 406 407
l 407 408
l 408 409
l 409 410
l 410 411
l 411 412
l 412 413
l 413 414
l 414 415
l 415 416
l 416 417
l 417 418
l 418 419
l 419 420
l 420 421
l 421 422
l 422 423
l 423 424
l 424 425
l 425 426
l 426 427
l 427 428
l 428 429
l 429 430
l 430 431
l 431 432
l 432 433
l 433 434
l 434 435
l 435 436
l 436 437
l 437 438
l 438 439
l 439 440
l 440 441
l 441 442
l 442 443
l 443 444
l 444 445
l 445 446
l 446 447
l 447 448
l 448 449
l 449 450
l 450 451
l 451 452
l 452 453
l 453 454
l 454 455
l 455 456
l 456 457
l 457 458
l 458 459
l 459 460
l 460 461
l 461 462
l 462 463
l 463 464
l 464 465
l 465 466
l 466 467
l 467 468
l 468 469
l 469 470
l 470 471
l 471 472
l 472 473
l 473 474
l 474 475
l 475 476
l 476 477
l 477 478
l 478 479
l 479 480
l 480 481
l 481 482
l 482 483
l 483 484
l 484 485
l 485 486
l 486 487
l 487 488
l 488 489
l 489 490
l 490 491
l 491 492
l 492 493
l 493 494
l 494 495
l 495 496
l 496 497
l 497 498
l 498 499
l 499 500
l 500 501
l 501 502
l 502 503
l 503 504
l 504 505
l 505 506
l 506 507
l 507 508
l 508 509
l 509 510
l 510 511
l 511 512
l 512 513
l 513 514
l 514 515
l 515 516
l 516 517
l 517 518
l 518 519
l 519 520
l 520 521
l 521 522
l 522 523
l 523 524
l 524 525
l 525 526
l 526 527
l 527 528
l 528 529
l 529 530
l 530 531
l 531 532
l 532 533
l 533 534
l 534 535
l 535 536
l 536 537
l 537 538
l 538 539
l 539 540
l 540 541
l 541 542
l 542 543
l 543 544
l 544 545
l 545 546
l 546 547
l 547 548
l 548 549
l 549 550
l 550 551
l 551 552
l 552 553
l 553 554
l 554 555
l 555 556
l 556 557
l 557 558
l 558 559
l 559 560
l 560 561
l 561 562
l 562 563
l 563 564
l 564 565
l 565 566
l 566 567
l 567 568
l 568 569
l 569 570
l 570 571
l 571 572
l 572 573
l 573 574
l 574 575
l 575 576
l 576 577
l 577 578
l 578 579
l 579 580
l 580 581
l 581 582
l 582 583
l 583 584
l 584 585
l 585 586
l 586 587
l 587 588
l 588 589
l 589 590
l 590 591
l 591 592
l 592 593
l 593 594
l 594 595
l 595 596
l 596 597
l 597 598
l 598 599
l 599 600
l 600 601
l 601 602
l 602 603
l 603 604
l 604 605
l 605 606
l 606 607
l 607 608
l 608 609
l 609 610
l 610 611
l 611 612
l 612 613
l 613 614
l 614 615
l 615 616
l 616 617
l 617 618
l 618 619
l 619 620
l 620 621
l 621 622
l 622 623
l 623 624
l 624 625
l 625 626
l 626 627
l 627 628
l 628 629
l 629 630
l 630 631
l 631 632
l 632 633
l 633 634
l 634 635
l 635 636
l 636 637
l 637 638
l 638 639
l 639 640
l 640 641
l 641 642
l 642 643
l 643 644
l 644 645
l 645 646
l 646 647
l 647 648
l 648 649
l 649 650
l 650 651
l 651 652
l 652 653
l 653 654
l 654 655
l 655 656
l 656 657
l 657 658
l 658 659
l 659 660
l 660 661
l 661 662
l 662 663
l 663 664
l 664 665
l 665 666
l 666 667
l 667 668
l 668 669
l 669 670
l 670 671
l 671 672
l 672 673
l 673 674
l 674 675
l 675 676
l 676 677
l 677 678
l 678 679
l 679 680
l 680 681
l 681 682
l 682 683
l 683 684
l 684 685
l 685 686
l 686 687
l 687 688
l 688 689
l 689 690
l 690 691
l 691 692
l 692 693
l 693 694
l 694 695
l 695 696
l 696 697
l 697 698
l 698 699
l 699 700
l 700 701
l 701 702
l 702 703
l 703 704
l 704 705
l 705 706
l 706 707
l 707 708
l 708 709
l 709 710
l 710 711
l 711 712
l 712 713
l 713 714
l 714 715
l 715 716
l 716 717
l 717 718
l 718 719
l 719 720
l 720 721
l 721 722
l 722 723
l 723 724
l 724 725
l 725 726
l 726 727
l 727 728
l 728 729
l 729 730
l 730 731
l 731 732
l 732 733
l 733 734
l 734 735
l 735 736
l 736 737
l 737 738
l 738 739
l 739 740
l 740 741
l 741 742
l 742 743
l 743 744
l 744 745
l 745 746
l 746 747
l 747 748
l 748 749
l 749 750
l 750 751
l 751 752
l 752 753
l 753 754
l 754 755
l 755 756
l 756 757
l 757 758
l 758 759
l 759 760
l 760 761
l 761 762
l 762 763
l 763 764
l 764 765
l 765 766
l 766 767
l 767 768
l 768 769
l 769 770
l 770 771
l 771 772
l 772 773
l 773 774
l 774 775
l 775 776
l 776 777
l 777 778
l 778 779
l 779 780
l 780 781
l 781 782
l 782 783
l 783 784
