# GE Spline Export secondaryRoad02
v 298.87109375	 33.342411041259766	 -1560.611328125
v 295.0217590332031	 33.342411041259766	 -1557.42138671875
v 290.9800720214844	 33.342411041259766	 -1554.48291015625
v 286.5177307128906	 33.313350677490234	 -1552.24755859375
v 281.701904296875	 33.247989654541016	 -1550.92578125
v 276.7486572265625	 33.17994689941406	 -1550.282958984375
v 271.75823974609375	 33.11202621459961	 -1550.0081787109375
v 266.7604064941406	 33.04389572143555	 -1549.8807373046875
v 261.76397705078125	 32.96571731567383	 -1549.8148193359375
v 256.7627258300781	 32.854183197021484	 -1549.777587890625
v 251.7655792236328	 32.81140899658203	 -1549.7552490234375
v 246.7620086669922	 32.76857376098633	 -1549.740478515625
v 241.7644500732422	 32.72579574584961	 -1549.72998046875
v 236.758544921875	 32.690731048583984	 -1549.7220458984375
v 231.7621612548828	 32.659629821777344	 -1549.7158203125
v 226.76254272460938	 32.63239288330078	 -1549.71044921875
v 221.76205444335938	 32.60996627807617	 -1549.70556640625
v 216.76132202148438	 32.59143829345703	 -1549.700927734375
v 211.76051330566406	 32.578834533691406	 -1549.6959228515625
v 206.75967407226562	 32.571048736572266	 -1549.690673828125
v 201.75889587402344	 32.56420135498047	 -1549.6844482421875
v 196.75839233398438	 32.56031036376953	 -1549.677490234375
v 191.75839233398438	 32.55548095703125	 -1549.6690673828125
v 186.75808715820312	 32.54863739013672	 -1549.6590576171875
v 181.75741577148438	 32.540855407714844	 -1549.647216796875
v 176.75665283203125	 32.53212356567383	 -1549.633056640625
v 171.7559814453125	 32.51655960083008	 -1549.6162109375
v 166.756103515625	 32.49710464477539	 -1549.595947265625
v 161.75692749023438	 32.47376251220703	 -1549.572021484375
v 156.7588653564453	 32.446533203125	 -1549.543701171875
v 151.756591796875	 32.41928482055664	 -1549.5103759765625
v 146.75518798828125	 32.38815689086914	 -1549.4710693359375
v 141.75723266601562	 32.36091995239258	 -1549.425048828125
v 136.75637817382812	 32.33757019042969	 -1549.3709716796875
v 131.75811767578125	 32.314231872558594	 -1549.3072509765625
v 126.7564468383789	 32.29866409301758	 -1549.232177734375
v 121.75731658935547	 32.2840461730957	 -1549.142822265625
v 116.75823974609375	 32.27626419067383	 -1549.035888671875
v 111.76082611083984	 32.26848220825195	 -1548.906005859375
v 106.7630844116211	 32.264591217041016	 -1548.745361328125
v 101.76750946044922	 32.264591217041016	 -1548.542724609375
v 96.77694702148438	 32.26372528076172	 -1548.2828369140625
v 91.78807830810547	 32.271480560302734	 -1547.9425048828125
v 86.80860900878906	 32.265872955322266	 -1547.4866943359375
v 81.84864807128906	 32.270301818847656	 -1546.8668212890625
v 76.9190673828125	 32.27237319946289	 -1546.0362548828125
v 72.04212951660156	 32.2637939453125	 -1544.9398193359375
v 67.23884582519531	 32.265445709228516	 -1543.5550537109375
v 62.50282287597656	 32.25680923461914	 -1541.9530029296875
v 57.80963134765625	 32.2603759765625	 -1540.2291259765625
v 53.14311218261719	 32.262420654296875	 -1538.43212890625
v 48.4970703125	 32.258155822753906	 -1536.58349609375
v 43.868377685546875	 32.26758575439453	 -1534.6923828125
v 39.256591796875	 32.265655517578125	 -1532.7608642578125
v 34.66658020019531	 32.268890380859375	 -1530.7762451171875
v 30.116302490234375	 32.2660026550293	 -1528.7069091796875
v 25.6492919921875	 32.25680923461914	 -1526.4603271484375
v 21.16363525390625	 32.25680923461914	 -1524.2625732421875
v 16.333694458007812	 32.25680923461914	 -1523.0010986328125
v 11.384567260742188	 32.25680923461914	 -1522.3026123046875
v 6.4062652587890625	 32.26367950439453	 -1521.84765625
v 1.4134979248046875	 32.25680923461914	 -1521.538818359375
v -3.5780029296875	 32.25680923461914	 -1521.3221435546875
v -8.579238891601562	 32.24452209472656	 -1521.1680908203125
v -13.577468872070312	 32.196197509765625	 -1521.0589599609375
v -18.573974609375	 32.15895462036133	 -1520.97900390625
v -23.57647705078125	 32.12002944946289	 -1520.9169921875
v -28.574630737304688	 32.08113479614258	 -1520.86669921875
v -33.57463073730469	 32.04222106933594	 -1520.8233642578125
v -38.57598876953125	 32.01332092285156	 -1520.7840576171875
v -43.57423400878906	 31.992218017578125	 -1520.7462158203125
v -48.57342529296875	 31.978309631347656	 -1520.7080078125
v -53.57569885253906	 31.97052001953125	 -1520.6680908203125
v -58.573455810546875	 31.964981079101562	 -1520.6248779296875
v -63.57536315917969	 31.964981079101562	 -1520.577392578125
v -68.57290649414062	 31.961090087890625	 -1520.52490234375
v -73.57308959960938	 31.957199096679688	 -1520.4678955078125
v -78.57342529296875	 31.95107650756836	 -1520.407470703125
v -83.57131958007812	 31.943302154541016	 -1520.34423828125
v -88.570556640625	 31.937742233276367	 -1520.27880859375
v -93.57060241699219	 31.929960250854492	 -1520.2119140625
v -98.57090759277344	 31.926069259643555	 -1520.1441650390625
v -103.57110595703125	 31.922178268432617	 -1520.0758056640625
v -108.57069396972656	 31.922178268432617	 -1520.007568359375
v -113.56977844238281	 31.922178268432617	 -1519.939697265625
v -118.56828308105469	 31.922178268432617	 -1519.87255859375
v -123.566650390625	 31.926069259643555	 -1519.80615234375
v -128.5654296875	 31.932161331176758	 -1519.7410888671875
v -133.56556701660156	 31.937742233276367	 -1519.6773681640625
v -138.56817626953125	 31.945526123046875	 -1519.614990234375
v -143.56533813476562	 31.95330810546875	 -1519.554443359375
v -148.56488037109375	 31.961090087890625	 -1519.49560546875
v -153.56732177734375	 31.971078872680664	 -1519.4384765625
v -158.56610107421875	 31.980545043945312	 -1519.3831787109375
v -163.56661987304688	 31.988327026367188	 -1519.3297119140625
v -168.56703186035156	 31.996109008789062	 -1519.2783203125
v -173.56761169433594	 32	 -1519.2288818359375
v -178.56747436523438	 32.00389099121094	 -1519.181640625
v -183.56817626953125	 32.00389099121094	 -1519.1368408203125
v -188.56954956054688	 32.00389099121094	 -1519.0947265625
v -193.56727600097656	 32	 -1519.055419921875
v -198.56959533691406	 32.00389099121094	 -1519.0194091796875
v -203.5719757080078	 32.00389099121094	 -1518.9871826171875
v -208.57183837890625	 32.01167297363281	 -1518.959228515625
v -213.57029724121094	 32.02167510986328	 -1518.936279296875
v -218.56980895996094	 32.03723907470703	 -1518.91943359375
v -223.5723419189453	 32.05670166015625	 -1518.91064453125
v -228.5770263671875	 32.07842254638672	 -1518.9119873046875
v -233.56875610351562	 32.105594635009766	 -1518.9276123046875
v -238.57301330566406	 32.136756896972656	 -1518.9647216796875
v -243.5684051513672	 32.1678466796875	 -1519.034423828125
v -248.56814575195312	 32.20065689086914	 -1519.1585693359375
v -253.56338500976562	 32.227874755859375	 -1519.3837890625
v -258.5394287109375	 32.25112533569336	 -1519.813720703125
v -263.4831848144531	 32.264591217041016	 -1520.548583984375
v -268.4095764160156	 32.26070022583008	 -1521.4061279296875
v -273.3356018066406	 32.24382781982422	 -1522.263671875
v -278.2708740234375	 32.21295166015625	 -1523.064697265625
v -283.2223205566406	 32.17725372314453	 -1523.7586669921875
v -288.191650390625	 32.138587951660156	 -1524.3084716796875
v -293.17364501953125	 32.1043815612793	 -1524.72265625
v -298.163818359375	 32.07718276977539	 -1525.0294189453125
v -303.1584167480469	 32.05385971069336	 -1525.26025390625
v -308.15460205078125	 32.03831100463867	 -1525.4412841796875
v -313.15325927734375	 32.02723693847656	 -1525.586669921875
v -318.1519470214844	 32.02275466918945	 -1525.7032470703125
v -323.1496276855469	 32.01945495605469	 -1525.7965087890625
v -328.15057373046875	 32.01556396484375	 -1525.870849609375
v -333.14990234375	 32.01167297363281	 -1525.9298095703125
v -338.1478576660156	 32.007781982421875	 -1525.975830078125
v -343.1488952636719	 32.00389099121094	 -1526.01123046875
v -348.1482238769531	 31.999422073364258	 -1526.0372314453125
v -353.1490478515625	 31.992218017578125	 -1526.05419921875
v -358.1497802734375	 31.98774528503418	 -1526.0623779296875
v -363.150146484375	 31.980545043945312	 -1526.0616455078125
v -368.1502685546875	 31.972763061523438	 -1526.0516357421875
v -373.1502990722656	 31.968286514282227	 -1526.0316162109375
v -378.1505432128906	 31.961090087890625	 -1526.0008544921875
v -383.1508483886719	 31.956613540649414	 -1525.9581298828125
v -388.1510925292969	 31.949417114257812	 -1525.90185546875
v -393.1507873535156	 31.941049575805664	 -1525.8297119140625
v -398.1484375	 31.929960250854492	 -1525.7410888671875
v -403.148681640625	 31.91771125793457	 -1525.636962890625
v -408.145751953125	 31.898265838623047	 -1525.519287109375
v -413.1451721191406	 31.878814697265625	 -1525.39013671875
v -418.143310546875	 31.858806610107422	 -1525.2529296875
v -423.14105224609375	 31.836027145385742	 -1525.111328125
v -428.13885498046875	 31.81658172607422	 -1524.969482421875
v -433.1368713378906	 31.801023483276367	 -1524.8330078125
v -438.13543701171875	 31.78935432434082	 -1524.706787109375
v -443.13385009765625	 31.781579971313477	 -1524.5927734375
v -448.1337585449219	 31.77431869506836	 -1524.4923095703125
v -453.13189697265625	 31.77431869506836	 -1524.406982421875
v -458.13238525390625	 31.77431869506836	 -1524.3406982421875
v -463.1318664550781	 31.77431869506836	 -1524.300048828125
v -468.13226318359375	 31.778209686279297	 -1524.302490234375
v -473.13140869140625	 31.782100677490234	 -1524.407470703125
v -478.10687255859375	 31.78988265991211	 -1524.8526611328125
v -482.9261474609375	 31.79377555847168	 -1526.149169921875
v -487.3775634765625	 31.801555633544922	 -1528.40966796875
v -491.4140930175781	 31.80544662475586	 -1531.35302734375
v -494.96307373046875	 31.809337615966797	 -1534.86767578125
v -497.87896728515625	 31.809337615966797	 -1538.921630859375
v -500.0515441894531	 31.809337615966797	 -1543.41796875
v -501.4737854003906	 31.809337615966797	 -1548.2069091796875
v -502.299072265625	 31.804920196533203	 -1553.1357421875
v -502.7363586425781	 31.79721450805664	 -1558.11572265625
v -502.9831237792969	 31.78598976135254	 -1563.1092529296875
v -503.1559143066406	 31.77431869506836	 -1568.106201171875
v -503.308349609375	 31.762245178222656	 -1573.1031494140625
v -503.4537658691406	 31.746686935424805	 -1578.1016845703125
v -503.5903625488281	 31.73113250732422	 -1583.0989990234375
v -503.7171936035156	 31.711681365966797	 -1588.09765625
v -503.8336181640625	 31.696121215820312	 -1593.0965576171875
v -503.93963623046875	 31.680557250976562	 -1598.0968017578125
v -504.03509521484375	 31.664997100830078	 -1603.095947265625
v -504.1209411621094	 31.649805068969727	 -1608.09423828125
v -504.20111083984375	 31.641658782958984	 -1613.09375
v -504.27911376953125	 31.63035011291504	 -1618.0938720703125
v -504.35845947265625	 31.622568130493164	 -1623.0936279296875
v -504.442138671875	 31.618677139282227	 -1628.09375
v -504.5341796875	 31.61478614807129	 -1633.093505859375
v -504.6399841308594	 31.61089515686035	 -1638.0931396484375
v -504.7677307128906	 31.61478614807129	 -1643.091796875
v -504.93267822265625	 31.61478614807129	 -1648.089599609375
v -505.1590576171875	 31.618677139282227	 -1653.083251953125
v -505.4879455566406	 31.6264591217041	 -1658.070556640625
v -505.9926452636719	 31.63052749633789	 -1663.04541015625
v -506.7758483886719	 31.638132095336914	 -1667.9818115234375
v -507.92437744140625	 31.64591407775879	 -1672.8466796875
v -509.54205322265625	 31.653696060180664	 -1677.5745849609375
v -511.7494812011719	 31.6575870513916	 -1682.0557861328125
v -514.6843872070312	 31.6575870513916	 -1686.094970703125
v -518.2442626953125	 31.653696060180664	 -1689.5994873046875
v -522.1798095703125	 31.649805068969727	 -1692.6810302734375
v -526.3778076171875	 31.64591407775879	 -1695.3946533203125
v -530.80859375	 31.638877868652344	 -1697.706787109375
v -535.4517211914062	 31.636375427246094	 -1699.5546875
v -540.2317504882812	 31.634241104125977	 -1701.020263671875
v -545.0721435546875	 31.634241104125977	 -1702.2650146484375
v -549.940673828125	 31.634241104125977	 -1703.403076171875
v -554.822998046875	 31.638134002685547	 -1704.4915771484375
v -559.708740234375	 31.6447811126709	 -1705.55322265625
v -564.5977783203125	 31.653696060180664	 -1706.6009521484375
v -569.488037109375	 31.665369033813477	 -1707.6435546875
v -574.378173828125	 31.678512573242188	 -1708.6871337890625
v -579.266357421875	 31.693639755249023	 -1709.7386474609375
v -584.1514892578125	 31.712650299072266	 -1710.8040771484375
v -589.0328979492188	 31.727752685546875	 -1711.8858642578125
v -593.9116821289062	 31.74673843383789	 -1712.98583984375
v -598.783935546875	 31.762216567993164	 -1714.1063232421875
v -603.6517333984375	 31.778209686279297	 -1715.2535400390625
v -608.5084228515625	 31.79186248779297	 -1716.43798828125
v -613.3487548828125	 31.802913665771484	 -1717.6904296875
v -618.15283203125	 31.813230514526367	 -1719.073974609375
v -622.8948974609375	 31.821012496948242	 -1720.6561279296875
v -627.5751953125	 31.82490348815918	 -1722.414794921875
v -632.2172241210938	 31.828794479370117	 -1724.2723388671875
l 1 2
l 2 3
l 3 4
l 4 5
l 5 6
l 6 7
l 7 8
l 8 9
l 9 10
l 10 11
l 11 12
l 12 13
l 13 14
l 14 15
l 15 16
l 16 17
l 17 18
l 18 19
l 19 20
l 20 21
l 21 22
l 22 23
l 23 24
l 24 25
l 25 26
l 26 27
l 27 28
l 28 29
l 29 30
l 30 31
l 31 32
l 32 33
l 33 34
l 34 35
l 35 36
l 36 37
l 37 38
l 38 39
l 39 40
l 40 41
l 41 42
l 42 43
l 43 44
l 44 45
l 45 46
l 46 47
l 47 48
l 48 49
l 49 50
l 50 51
l 51 52
l 52 53
l 53 54
l 54 55
l 55 56
l 56 57
l 57 58
l 58 59
l 59 60
l 60 61
l 61 62
l 62 63
l 63 64
l 64 65
l 65 66
l 66 67
l 67 68
l 68 69
l 69 70
l 70 71
l 71 72
l 72 73
l 73 74
l 74 75
l 75 76
l 76 77
l 77 78
l 78 79
l 79 80
l 80 81
l 81 82
l 82 83
l 83 84
l 84 85
l 85 86
l 86 87
l 87 88
l 88 89
l 89 90
l 90 91
l 91 92
l 92 93
l 93 94
l 94 95
l 95 96
l 96 97
l 97 98
l 98 99
l 99 100
l 100 101
l 101 102
l 102 103
l 103 104
l 104 105
l 105 106
l 106 107
l 107 108
l 108 109
l 109 110
l 110 111
l 111 112
l 112 113
l 113 114
l 114 115
l 115 116
l 116 117
l 117 118
l 118 119
l 119 120
l 120 121
l 121 122
l 122 123
l 123 124
l 124 125
l 125 126
l 126 127
l 127 128
l 128 129
l 129 130
l 130 131
l 131 132
l 132 133
l 133 134
l 134 135
l 135 136
l 136 137
l 137 138
l 138 139
l 139 140
l 140 141
l 141 142
l 142 143
l 143 144
l 144 145
l 145 146
l 146 147
l 147 148
l 148 149
l 149 150
l 150 151
l 151 152
l 152 153
l 153 154
l 154 155
l 155 156
l 156 157
l 157 158
l 158 159
l 159 160
l 160 161
l 161 162
l 162 163
l 163 164
l 164 165
l 165 166
l 166 167
l 167 168
l 168 169
l 169 170
l 170 171
l 171 172
l 172 173
l 173 174
l 174 175
l 175 176
l 176 177
l 177 178
l 178 179
l 179 180
l 180 181
l 181 182
l 182 183
l 183 184
l 184 185
l 185 186
l 186 187
l 187 188
l 188 189
l 189 190
l 190 191
l 191 192
l 192 193
l 193 194
l 194 195
l 195 196
l 196 197
l 197 198
l 198 199
l 199 200
l 200 201
l 201 202
l 202 203
l 203 204
l 204 205
l 205 206
l 206 207
l 207 208
l 208 209
l 209 210
l 210 211
l 211 212
l 212 213
l 213 214
l 214 215
l 215 216
l 216 217
l 217 218
