# GE Spline Export secondaryRoad01
v 58.38798522949219	 32.94163513183594	 1867.657958984375
v 58.38798522949219	 32.93522262573242	 1872.6474609375
v 58.38798141479492	 32.91577911376953	 1877.6441650390625
v 58.38798141479492	 32.88594055175781	 1882.65673828125
v 58.38798141479492	 32.847145080566406	 1887.642333984375
v 58.387977600097656	 32.80424499511719	 1892.654541015625
v 58.38798141479492	 32.76145935058594	 1897.652099609375
v 58.387977600097656	 32.722652435302734	 1902.6392822265625
v 58.387977600097656	 32.683719635009766	 1907.64208984375
v 58.38797378540039	 32.65258026123047	 1912.6435546875
v 58.38797378540039	 32.62529754638672	 1917.649169921875
v 58.38797378540039	 32.60451126098633	 1922.6407470703125
v 58.387969970703125	 32.58504104614258	 1927.6444091796875
v 58.387969970703125	 32.57332992553711	 1932.653564453125
v 58.387969970703125	 32.56420135498047	 1937.653076171875
v 58.387969970703125	 32.556419372558594	 1942.6484375
v 58.38796615600586	 32.552528381347656	 1947.646484375
v 58.38796615600586	 32.54863739013672	 1952.64599609375
v 58.38796615600586	 32.54863739013672	 1957.646240234375
v 58.387962341308594	 32.54863739013672	 1962.6468505859375
v 58.387962341308594	 32.54863739013672	 1967.6474609375
v 58.38795852661133	 32.55116271972656	 1972.648193359375
v 58.38795852661133	 32.552528381347656	 1977.64892578125
v 58.387962341308594	 32.55895233154297	 1982.6497802734375
v 58.38795852661133	 32.56420135498047	 1987.65087890625
v 58.38795852661133	 32.57063293457031	 1992.652099609375
v 58.38795471191406	 32.57841873168945	 1997.6534423828125
v 58.38795471191406	 32.586204528808594	 2002.655029296875
v 58.3879508972168	 32.59532928466797	 2007.65673828125
v 58.3879508972168	 32.60567092895508	 2012.6573486328125
v 58.3879508972168	 32.61344909667969	 2017.656005859375
v 58.38794708251953	 32.62256622314453	 2022.6552734375
v 58.3879508972168	 32.63035202026367	 2027.6552734375
v 58.38794708251953	 32.63813400268555	 2032.6556396484375
v 58.38794708251953	 32.64591598510742	 2037.65625
v 58.387943267822266	 32.64980697631836	 2042.656982421875
v 58.387943267822266	 32.65625762939453	 2047.65771484375
l 1 2
l 2 3
l 3 4
l 4 5
l 5 6
l 6 7
l 7 8
l 8 9
l 9 10
l 10 11
l 11 12
l 12 13
l 13 14
l 14 15
l 15 16
l 16 17
l 17 18
l 18 19
l 19 20
l 20 21
l 21 22
l 22 23
l 23 24
l 24 25
l 25 26
l 26 27
l 27 28
l 28 29
l 29 30
l 30 31
l 31 32
l 32 33
l 33 34
l 34 35
l 35 36
l 36 37
