# GE Spline Export secondaryRoad03
v 436.0750427246094	 31.54863739013672	 1061.386962890625
v 431.0750732421875	 31.54863739013672	 1061.386962890625
v 426.0774230957031	 31.502689361572266	 1061.3875732421875
v 421.07684326171875	 31.38731575012207	 1061.3948974609375
v 416.0794982910156	 31.32415008544922	 1061.406005859375
v 411.0838317871094	 31.260875701904297	 1061.4183349609375
v 406.0796813964844	 31.208805084228516	 1061.4315185546875
v 401.07940673828125	 31.149578094482422	 1061.4451904296875
v 396.0814208984375	 31.076562881469727	 1061.45947265625
v 391.08099365234375	 31.014793395996094	 1061.4744873046875
v 386.0833740234375	 30.962575912475586	 1061.4901123046875
v 381.08282470703125	 30.933631896972656	 1061.5064697265625
v 376.0823974609375	 30.934064865112305	 1061.5235595703125
v 371.0823059082031	 30.93694305419922	 1061.5413818359375
v 366.0817565917969	 30.949567794799805	 1061.56005859375
v 361.07952880859375	 30.95317268371582	 1061.5794677734375
v 356.0770568847656	 30.9326171875	 1061.599609375
v 351.0806884765625	 30.915922164916992	 1061.62060546875
v 346.0800476074219	 30.918302536010742	 1061.6424560546875
v 341.0771484375	 30.943716049194336	 1061.6651611328125
v 336.0802307128906	 30.99803352355957	 1061.688720703125
v 331.0775146484375	 31.04779815673828	 1061.7132568359375
v 326.0794372558594	 31.068408966064453	 1061.738525390625
v 321.0782165527344	 31.068195343017578	 1061.764892578125
v 316.0791320800781	 31.048276901245117	 1061.7921142578125
v 311.07818603515625	 31.022783279418945	 1061.820068359375
v 306.07916259765625	 30.981611251831055	 1061.848876953125
v 301.0777893066406	 30.979084014892578	 1061.8782958984375
v 296.079345703125	 31.015295028686523	 1061.9083251953125
v 291.0769958496094	 31.02206802368164	 1061.93896484375
v 286.07928466796875	 31.028202056884766	 1061.97021484375
v 281.07843017578125	 31.046241760253906	 1062.0018310546875
v 276.078857421875	 31.063465118408203	 1062.033935546875
v 271.07928466796875	 31.088682174682617	 1062.06640625
v 266.07806396484375	 31.10634994506836	 1062.099365234375
v 261.0794677734375	 31.115964889526367	 1062.1324462890625
v 256.0791320800781	 31.13690948486328	 1062.166015625
v 251.0791015625	 31.181196212768555	 1062.19970703125
v 246.07968139648438	 31.237428665161133	 1062.2337646484375
v 241.0792694091797	 31.319244384765625	 1062.2679443359375
v 236.07968139648438	 31.41036605834961	 1062.30224609375
v 231.07994079589844	 31.505359649658203	 1062.336669921875
v 226.07968139648438	 31.62238121032715	 1062.371337890625
v 221.080078125	 31.720247268676758	 1062.406005859375
v 216.08021545410156	 31.809755325317383	 1062.440673828125
l 1 2
l 2 3
l 3 4
l 4 5
l 5 6
l 6 7
l 7 8
l 8 9
l 9 10
l 10 11
l 11 12
l 12 13
l 13 14
l 14 15
l 15 16
l 16 17
l 17 18
l 18 19
l 19 20
l 20 21
l 21 22
l 22 23
l 23 24
l 24 25
l 25 26
l 26 27
l 27 28
l 28 29
l 29 30
l 30 31
l 31 32
l 32 33
l 33 34
l 34 35
l 35 36
l 36 37
l 37 38
l 38 39
l 39 40
l 40 41
l 41 42
l 42 43
l 43 44
l 44 45
